<svg width="320" height="198" viewBox="0 0 320 198" fill="none" xmlns="http://www.w3.org/2000/svg">
<g clip-path="url(#clip0_855_6589)">
<g opacity="0.6">
<path d="M51.6752 94.5023C60.0106 86.1669 60.0106 72.6526 51.6752 64.3171C43.3398 55.9817 29.8254 55.9817 21.49 64.3171C13.1546 72.6526 13.1546 86.1669 21.49 94.5023C29.8254 102.838 43.3398 102.838 51.6752 94.5023Z" fill="#5574D8"/>
<path d="M38.3144 98.7633C50.1024 98.7633 59.6585 89.2072 59.6585 77.4191C59.6585 65.6311 50.1024 56.075 38.3144 56.075C26.5263 56.075 16.9702 65.6311 16.9702 77.4191C16.9702 89.2072 26.5263 98.7633 38.3144 98.7633Z" fill="#708CF5"/>
<path d="M38.3733 95.975C37.8235 95.975 37.2688 95.9504 36.714 95.9013C31.81 95.4694 27.3674 93.1474 24.206 89.3724C21.0447 85.5974 19.5425 80.8161 19.9794 75.9121C20.4114 71.008 22.7333 66.5654 26.5083 63.4041C30.2833 60.2427 35.0646 58.7406 39.9687 59.1725C44.8727 59.6045 49.3153 61.9265 52.4767 65.7015C55.6381 69.4764 57.1402 74.2578 56.7033 79.1618C56.2713 84.0658 53.9494 88.5085 50.1744 91.6698C46.8265 94.4728 42.6882 95.9701 38.3684 95.9701L38.3733 95.975ZM38.3095 59.5898C34.1074 59.5898 30.082 61.0478 26.8225 63.7771C23.1457 66.8551 20.8925 71.1798 20.4703 75.9514C20.0481 80.7278 21.511 85.3815 24.5889 89.0534C27.6668 92.7302 31.9916 94.9834 36.7631 95.4055C41.5346 95.8277 46.1932 94.3648 49.8651 91.2869C53.5419 88.209 55.7951 83.8842 56.2173 79.1127C56.6395 74.3363 55.1766 69.6826 52.0987 66.0107C49.0208 62.3339 44.696 60.0807 39.9245 59.6585C39.3845 59.6094 38.8445 59.5849 38.3095 59.5849V59.5898Z" fill="white"/>
<path d="M35.9336 85.4404C34.8438 85.1409 33.862 84.7335 32.9882 84.2131C32.1144 83.6928 31.3977 83.1479 30.8381 82.5735C30.5141 82.2348 30.3913 81.8568 30.4699 81.4494C30.5288 81.1205 30.7006 80.8554 30.9755 80.659C31.2504 80.4578 31.5646 80.394 31.918 80.4578C32.188 80.5069 32.4531 80.6394 32.7035 80.8505C33.3367 81.4003 34.0092 81.8863 34.7161 82.2986C35.423 82.711 36.2428 83.0055 37.1853 83.1822C37.5339 83.2461 37.8726 83.2902 38.1966 83.3099C38.5206 83.3295 38.8397 83.3197 39.1489 83.2853C39.4582 83.251 39.7478 83.1822 40.0129 83.089C40.278 82.9908 40.5136 82.8681 40.7198 82.7208C40.9309 82.5735 41.1027 82.3821 41.25 82.1465C41.3923 81.9108 41.4954 81.6408 41.5494 81.3365C41.6574 80.772 41.5396 80.2663 41.2009 79.8245C40.8621 79.3827 40.2731 78.9655 39.4336 78.5727L36.7681 77.3357C36.2428 77.0853 35.8059 76.8742 35.4672 76.6975C35.1236 76.5208 34.7652 76.3195 34.3823 76.0839C33.9994 75.8483 33.6951 75.6274 33.4643 75.4212C33.2336 75.215 33.0127 74.9696 32.8016 74.6898C32.5906 74.4099 32.4384 74.1203 32.35 73.816C32.2617 73.5116 32.2077 73.168 32.1929 72.7851C32.1782 72.4022 32.2126 71.9849 32.296 71.5333C32.3746 71.116 32.4973 70.7282 32.6691 70.3748C32.8409 70.0213 33.0471 69.7121 33.2876 69.447C33.5282 69.1819 33.808 68.9463 34.1222 68.745C34.4363 68.5388 34.775 68.3719 35.1481 68.2443C35.5163 68.1167 35.9139 68.0185 36.3312 67.9547C36.7484 67.8909 37.1902 67.8614 37.637 67.8565C38.0886 67.8565 38.5598 67.881 39.0507 67.935L39.6987 64.4595C39.7625 64.111 39.9196 63.8557 40.1651 63.7035C40.4105 63.5513 40.6805 63.5022 40.9751 63.5562C41.2696 63.6102 41.5101 63.7575 41.7016 63.9981C41.893 64.2386 41.9519 64.5282 41.8881 64.8669L41.2303 68.3768C41.8096 68.5437 42.3643 68.7548 42.9043 69.0052C43.4443 69.2555 43.8762 69.4912 44.2101 69.7072C44.5439 69.9232 44.8629 70.1441 45.1722 70.3797C45.668 70.743 45.8644 71.1897 45.7662 71.7198C45.7466 71.8327 45.7073 71.9407 45.6533 72.0487C45.5993 72.1567 45.5306 72.25 45.4422 72.3236C45.3538 72.3973 45.2655 72.4709 45.1673 72.5249C45.0691 72.5789 44.9513 72.6182 44.8237 72.6378C44.6911 72.6525 44.5586 72.6476 44.4211 72.6231C44.3524 72.6084 44.2886 72.5936 44.2297 72.5691C44.1708 72.5445 44.1021 72.52 44.0333 72.4905C43.9646 72.4611 43.8959 72.4267 43.8321 72.3924C43.8222 72.3924 43.6848 72.3089 43.4197 72.1469C43.1595 71.9849 42.9681 71.872 42.8503 71.8033C42.7325 71.7346 42.5263 71.6266 42.2268 71.4744C41.9274 71.3222 41.6672 71.2044 41.4414 71.116C41.2156 71.0277 40.9456 70.9344 40.6265 70.8313C40.3074 70.7282 39.9883 70.6497 39.6693 70.5908C39.0115 70.4681 38.4175 70.4239 37.8873 70.4582C37.3522 70.4926 36.8908 70.635 36.4883 70.8902C36.0906 71.1455 35.8452 71.5137 35.7568 71.9996C35.6439 72.6084 35.7372 73.0796 36.0366 73.4134C36.3361 73.7423 36.9939 74.14 38.01 74.5965L40.6314 75.7894C42.325 76.5601 43.4933 77.4142 44.1364 78.342C44.7795 79.2698 44.9808 80.3841 44.7402 81.685C44.4506 83.2313 43.7142 84.3555 42.5263 85.0427C41.3383 85.73 39.8754 86.0049 38.1377 85.8527L37.4995 89.2792C37.4357 89.6179 37.2737 89.8633 37.0086 90.0204C36.7435 90.1775 36.4637 90.2266 36.1545 90.1677C35.9728 90.1333 35.8108 90.0646 35.6685 89.9517C35.5261 89.8437 35.4132 89.6915 35.3396 89.505C35.2659 89.3135 35.2463 89.1024 35.2905 88.8668L35.9286 85.4404H35.9336Z" fill="white"/>
</g>
<g opacity="0.6">
<path d="M79.8914 45.9699C87.4879 44.416 92.3866 36.9982 90.8327 29.4016C89.2789 21.805 81.861 16.9064 74.2645 18.4602C66.6679 20.0141 61.7693 27.4319 63.3231 35.0285C64.8769 42.6251 72.2948 47.5237 79.8914 45.9699Z" fill="#5574D8"/>
<path d="M81.7676 44.369C89.2538 42.349 93.685 34.6429 91.6651 27.1567C89.6452 19.6706 81.939 15.2393 74.4529 17.2592C66.9667 19.2792 62.5355 26.9853 64.5554 34.4715C66.5753 41.9576 74.2815 46.3889 81.7676 44.369Z" fill="#708CF5"/>
<path d="M78.1358 43.1006C78.0965 43.1006 78.0573 43.1006 78.0131 43.1006C74.7535 43.0711 71.6953 41.7703 69.4126 39.4385C67.1299 37.1117 65.888 34.0289 65.9174 30.7693C65.9469 27.5049 67.2477 24.4515 69.5746 22.1688C71.8769 19.9107 74.9057 18.6736 78.126 18.6736C78.1653 18.6736 78.2045 18.6736 78.2487 18.6736C81.5083 18.7031 84.5665 20.004 86.8492 22.3357C89.1319 24.6626 90.3738 27.7454 90.3444 31.0049C90.3149 34.2645 89.014 37.3228 86.6872 39.6054C84.3849 41.8635 81.3561 43.1006 78.1358 43.1006ZM78.1309 19.1694C75.0432 19.1694 72.1322 20.3574 69.9231 22.5223C67.6895 24.7166 66.4427 27.6472 66.4083 30.7791C66.3789 33.911 67.5717 36.8662 69.7611 39.0998C71.9554 41.3334 74.8861 42.5803 78.018 42.6146C81.145 42.6392 84.1051 41.4512 86.3387 39.2618C88.5722 37.0675 89.8191 34.1369 89.8535 31.0049C89.8829 27.873 88.6901 24.9178 86.5007 22.6843C84.3064 20.4507 81.3757 19.2038 78.2438 19.1694C78.2045 19.1694 78.1653 19.1694 78.126 19.1694H78.1309Z" fill="white"/>
<path d="M76.9626 36.1986C76.2311 36.0611 75.5684 35.8402 74.9646 35.5457C74.3657 35.2512 73.865 34.9272 73.4674 34.5835C73.2367 34.3774 73.1385 34.1368 73.1679 33.8668C73.1925 33.6508 73.2907 33.4692 73.4576 33.3219C73.6294 33.1747 73.8306 33.1158 74.0663 33.1403C74.2479 33.16 74.4246 33.2336 74.6013 33.3563C75.0481 33.6852 75.5095 33.965 75.9955 34.2006C76.4815 34.4363 77.0362 34.5835 77.6596 34.6523C77.8953 34.6768 78.1162 34.6866 78.3272 34.6817C78.5383 34.6817 78.7494 34.6572 78.9507 34.6179C79.1519 34.5786 79.3385 34.5197 79.5054 34.4412C79.6723 34.3626 79.8245 34.2694 79.9521 34.1614C80.0797 34.0534 80.1877 33.9159 80.2712 33.7539C80.3546 33.5919 80.4037 33.4103 80.4283 33.2041C80.4675 32.8261 80.3645 32.5022 80.119 32.2322C79.8736 31.9622 79.4661 31.7167 78.8967 31.5007L77.0853 30.8282C76.7269 30.6907 76.4324 30.5729 76.1968 30.4748C75.9611 30.3766 75.7157 30.2637 75.4506 30.1262C75.1855 29.9888 74.9744 29.8611 74.8124 29.7384C74.6504 29.6157 74.4933 29.4684 74.3412 29.2966C74.189 29.1248 74.0761 28.9432 74.0025 28.7468C73.9288 28.5504 73.8748 28.3295 73.8454 28.0792C73.8159 27.8288 73.8159 27.5539 73.8454 27.2496C73.8748 26.9698 73.9386 26.7096 74.0319 26.469C74.1252 26.2285 74.2479 26.0125 74.3903 25.826C74.5375 25.6394 74.7044 25.4725 74.9008 25.3204C75.0972 25.1682 75.3131 25.0405 75.5439 24.9375C75.7795 24.8344 76.0348 24.7509 76.3048 24.6871C76.5797 24.6233 76.8595 24.5791 77.1589 24.5546C77.4534 24.53 77.7676 24.5202 78.0916 24.5349L78.3371 22.2228C78.3616 21.9872 78.45 21.8154 78.6021 21.7024C78.7543 21.5895 78.931 21.5454 79.1225 21.565C79.3188 21.5846 79.4858 21.6681 79.6183 21.8154C79.7557 21.9626 79.8097 22.1492 79.7852 22.375L79.5348 24.7116C79.9227 24.7902 80.3006 24.8982 80.6639 25.0356C81.0321 25.1731 81.3266 25.3056 81.5573 25.4283C81.7881 25.5511 82.009 25.6836 82.225 25.8211C82.5686 26.0321 82.7208 26.3169 82.6815 26.6703C82.6717 26.7439 82.652 26.8176 82.6226 26.8912C82.5931 26.9648 82.5489 27.0287 82.4999 27.0827C82.4508 27.1367 82.3919 27.1858 82.328 27.2299C82.2642 27.2741 82.1906 27.3036 82.1071 27.3183C82.0237 27.3379 81.9353 27.3379 81.8421 27.3281C81.7979 27.3281 81.7537 27.3134 81.7144 27.3036C81.6752 27.2937 81.631 27.279 81.5819 27.2594C81.5328 27.2447 81.4886 27.225 81.4444 27.2054C81.4346 27.2054 81.3413 27.1563 81.1646 27.0679C80.983 26.9747 80.8554 26.9109 80.7768 26.8716C80.6983 26.8323 80.5559 26.7734 80.3497 26.6899C80.1436 26.6065 79.9668 26.5427 79.8147 26.4985C79.6625 26.4543 79.4808 26.4052 79.2649 26.3561C79.0489 26.307 78.8378 26.2727 78.6267 26.2481C78.1898 26.204 77.7971 26.204 77.4485 26.2531C77.1 26.3021 76.8006 26.42 76.5551 26.6065C76.3048 26.793 76.1673 27.0483 76.1329 27.3723C76.0888 27.7797 76.1771 28.0841 76.3882 28.2854C76.6042 28.4866 77.0558 28.7124 77.7431 28.9579L79.525 29.6059C80.6737 30.0231 81.4837 30.5238 81.955 31.0982C82.4262 31.6725 82.6177 32.3942 82.5244 33.2581C82.4164 34.289 81.9893 35.0597 81.2432 35.5752C80.5019 36.0906 79.5545 36.341 78.4058 36.336L78.1652 38.6138C78.1407 38.8396 78.0474 39.0114 77.8805 39.1243C77.7185 39.2421 77.532 39.2863 77.3307 39.2667C77.208 39.252 77.1 39.2176 77.0018 39.1538C76.9036 39.09 76.8202 38.9967 76.7613 38.8789C76.7024 38.7562 76.6827 38.6187 76.6975 38.4616L76.938 36.1839L76.9626 36.1986Z" fill="white"/>
</g>
<g opacity="0.4">
<path d="M50.7567 122.001C51.4835 116.056 47.2536 110.648 41.3089 109.921C35.3643 109.195 29.956 113.425 29.2293 119.369C28.5025 125.314 32.7324 130.722 38.6771 131.449C44.6218 132.176 50.03 127.946 50.7567 122.001Z" fill="#5574D8"/>
<path d="M51.6774 121.003C52.3917 115.057 48.1504 109.658 42.2043 108.943C36.2581 108.229 30.8588 112.47 30.1445 118.417C29.4302 124.363 33.6714 129.762 39.6176 130.476C45.5637 131.191 50.9631 126.949 51.6774 121.003Z" fill="#708CF5"/>
<path d="M40.9309 129.258C38.1033 129.258 35.3003 128.001 33.43 125.6C31.8739 123.603 31.1915 121.114 31.5008 118.6C31.815 116.087 33.0913 113.844 35.0893 112.287C39.2177 109.077 45.1919 109.818 48.4072 113.952C51.6177 118.08 50.8764 124.054 46.7431 127.265C45.0152 128.61 42.9632 129.263 40.926 129.263L40.9309 129.258ZM40.9113 110.775C38.982 110.775 37.0332 111.394 35.3936 112.67C33.4987 114.148 32.2862 116.273 31.9917 118.659C31.6923 121.045 32.3402 123.401 33.8178 125.301C36.8663 129.218 42.5263 129.925 46.4437 126.877C50.361 123.828 51.0679 118.163 48.0194 114.251C46.2473 111.973 43.5916 110.78 40.9064 110.78L40.9113 110.775Z" fill="white"/>
<path d="M39.5564 123.74C39.0066 123.568 38.5157 123.342 38.0837 123.063C37.6518 122.783 37.2934 122.493 37.0234 122.189C36.8663 122.012 36.8123 121.816 36.8565 121.614C36.8958 121.447 36.9841 121.32 37.1265 121.222C37.2688 121.124 37.4308 121.099 37.6076 121.138C37.745 121.168 37.8776 121.241 38.0003 121.354C38.3145 121.644 38.6434 121.904 38.9968 122.125C39.3502 122.346 39.7626 122.513 40.2339 122.616C40.4106 122.655 40.5824 122.685 40.7444 122.699C40.9064 122.714 41.0684 122.719 41.2304 122.704C41.3875 122.689 41.5347 122.665 41.6722 122.621C41.8096 122.577 41.9324 122.518 42.0404 122.449C42.1484 122.375 42.2416 122.282 42.3202 122.164C42.3987 122.046 42.4527 121.909 42.4871 121.757C42.5509 121.472 42.5018 121.212 42.3398 120.981C42.1778 120.75 41.8833 120.53 41.466 120.314L40.1357 119.636C39.8706 119.499 39.6546 119.386 39.4877 119.288C39.3159 119.194 39.1392 119.081 38.9477 118.954C38.7563 118.826 38.6041 118.708 38.4912 118.6C38.3783 118.492 38.2703 118.365 38.1672 118.217C38.0641 118.07 37.9954 117.923 37.9561 117.766C37.9168 117.609 37.8972 117.437 37.8923 117.241C37.8923 117.044 37.9168 116.833 37.9659 116.607C38.015 116.396 38.0837 116.205 38.177 116.028C38.2703 115.851 38.3832 115.699 38.5108 115.567C38.6384 115.439 38.7857 115.321 38.9477 115.223C39.1097 115.125 39.2864 115.046 39.4779 114.987C39.6693 114.928 39.8706 114.889 40.0866 114.865C40.3026 114.84 40.5235 114.83 40.7542 114.84C40.9849 114.845 41.2206 114.869 41.4709 114.909L41.8636 113.156C41.9029 112.98 41.9864 112.857 42.114 112.783C42.2416 112.71 42.3791 112.69 42.5263 112.724C42.6736 112.759 42.7963 112.837 42.8847 112.96C42.9731 113.083 43.0025 113.235 42.9632 113.407L42.5656 115.179C42.8552 115.272 43.1351 115.39 43.405 115.527C43.675 115.665 43.891 115.792 44.0579 115.905C44.2248 116.018 44.3819 116.141 44.5341 116.264C44.7796 116.455 44.8728 116.686 44.809 116.956C44.7943 117.015 44.7746 117.069 44.7452 117.123C44.7157 117.177 44.6765 117.221 44.6323 117.26C44.5881 117.299 44.539 117.329 44.4899 117.358C44.4408 117.388 44.3819 117.403 44.3132 117.407C44.2445 117.412 44.1807 117.407 44.1119 117.393C44.0776 117.383 44.0432 117.373 44.0138 117.363C43.9843 117.349 43.9499 117.334 43.9156 117.319C43.8812 117.304 43.8469 117.285 43.8174 117.265C43.8125 117.265 43.7438 117.221 43.6112 117.133C43.4787 117.044 43.3854 116.985 43.3314 116.946C43.2725 116.907 43.1694 116.848 43.0221 116.769C42.8749 116.686 42.7423 116.622 42.6294 116.573C42.5165 116.524 42.3791 116.47 42.222 116.416C42.0649 116.362 41.9029 116.313 41.7409 116.278C41.412 116.205 41.1077 116.17 40.8377 116.18C40.5677 116.19 40.3271 116.254 40.121 116.377C39.9148 116.499 39.7822 116.681 39.7282 116.926C39.6595 117.236 39.6988 117.476 39.8461 117.648C39.9933 117.82 40.3173 118.036 40.8278 118.286L42.1385 118.939C42.9829 119.361 43.5621 119.813 43.8714 120.299C44.1807 120.785 44.2641 121.349 44.1168 122.007C43.9401 122.788 43.5474 123.342 42.9289 123.671C42.3153 124 41.5642 124.113 40.6855 124.005L40.2977 125.733C40.2584 125.905 40.17 126.028 40.0375 126.101C39.9 126.175 39.7577 126.194 39.6006 126.16C39.5073 126.14 39.4288 126.101 39.3552 126.042C39.2864 125.983 39.2324 125.905 39.1981 125.807C39.1637 125.708 39.1588 125.6 39.1883 125.483L39.5761 123.755L39.5564 123.74Z" fill="white"/>
</g>
<g opacity="0.4">
<path d="M90.2878 64.8422C90.803 60.5023 87.7025 56.5665 83.3626 56.0513C79.0227 55.5361 75.0869 58.6367 74.5717 62.9765C74.0565 67.3164 77.1571 71.2522 81.4969 71.7674C85.8368 72.2826 89.7727 69.1821 90.2878 64.8422Z" fill="#5574D8"/>
<path d="M90.9559 63.5808C91.1892 59.2166 87.8405 55.4897 83.4763 55.2564C79.1122 55.0231 75.3853 58.3718 75.152 62.7359C74.9187 67.1001 78.2674 70.827 82.6315 71.0603C86.9956 71.2936 90.7226 67.9449 90.9559 63.5808Z" fill="#708CF5"/>
<path d="M83.0791 70.1932C82.9221 70.1932 82.765 70.1883 82.6079 70.1785C80.7425 70.0557 79.0391 69.2163 77.8118 67.8074C75.269 64.9062 75.5635 60.4833 78.4647 57.9404C79.8687 56.7083 81.6703 56.0996 83.5308 56.2223C85.3962 56.345 87.0996 57.1845 88.3268 58.5933C89.5541 60.0022 90.1677 61.7989 90.0449 63.6594C89.9222 65.5248 89.0828 67.2282 87.6739 68.4554C86.3878 69.5845 84.7727 70.1883 83.0742 70.1883L83.0791 70.1932ZM83.0595 56.7034C81.4837 56.7034 79.9816 57.2679 78.7838 58.3135C76.0888 60.6747 75.8188 64.7933 78.18 67.4883C79.3238 68.7941 80.9094 69.5747 82.6423 69.6925C84.3751 69.8054 86.0491 69.2408 87.3548 68.0971C88.6606 66.9533 89.4412 65.3677 89.559 63.6348C89.6719 61.902 89.1073 60.228 87.9636 58.9222C86.8198 57.6164 85.2342 56.8359 83.5013 56.7181C83.354 56.7083 83.2117 56.7034 83.0644 56.7034H83.0595Z" fill="white"/>
<path d="M82.2446 66.1531C81.8371 66.05 81.469 65.9076 81.1401 65.7211C80.8112 65.5345 80.5412 65.3382 80.3301 65.132C80.2074 65.0093 80.1583 64.8718 80.1828 64.7196C80.2025 64.5969 80.2614 64.4987 80.3645 64.4202C80.4676 64.3417 80.5805 64.3171 80.713 64.3367C80.8161 64.3515 80.9143 64.4006 81.0075 64.4742C81.2481 64.6755 81.4984 64.8473 81.7635 64.9945C82.0286 65.1418 82.3379 65.2449 82.6864 65.2989C82.8189 65.3185 82.9417 65.3333 83.0644 65.3382C83.1822 65.3382 83.3 65.3382 83.4178 65.3235C83.5307 65.3087 83.6387 65.2793 83.7369 65.2449C83.8351 65.2105 83.9185 65.1615 83.9971 65.1025C84.0756 65.0436 84.1395 64.9749 84.1885 64.8865C84.2376 64.7982 84.2769 64.6951 84.2916 64.5822C84.326 64.3711 84.2769 64.1846 84.1493 64.0226C84.0216 63.8606 83.8007 63.7133 83.4817 63.571L82.4851 63.1341C82.2888 63.0457 82.1268 62.9721 81.9991 62.9082C81.8715 62.8444 81.7341 62.7708 81.5917 62.6873C81.4493 62.6039 81.3315 62.5253 81.2432 62.4468C81.1548 62.3732 81.0714 62.2848 80.9928 62.1817C80.9143 62.0786 80.8554 61.9755 80.8161 61.8626C80.7817 61.7497 80.7572 61.6221 80.7474 61.4797C80.7375 61.3374 80.7474 61.1803 80.7768 61.0134C80.8014 60.8563 80.8455 60.7139 80.9044 60.5814C80.9634 60.4489 81.037 60.331 81.1254 60.2329C81.2137 60.1347 81.3119 60.0414 81.4297 59.9629C81.5426 59.8843 81.6702 59.8205 81.8028 59.7665C81.9353 59.7125 82.0826 59.6782 82.2397 59.6487C82.3968 59.6192 82.5588 59.6045 82.7257 59.5996C82.8926 59.5947 83.0693 59.5996 83.2509 59.6192L83.462 58.3233C83.4817 58.1907 83.5406 58.0975 83.6289 58.0386C83.7173 57.9797 83.8204 57.96 83.9284 57.9797C84.0364 57.9993 84.1296 58.0484 84.1984 58.1367C84.2671 58.2251 84.2965 58.3331 84.2769 58.4558L84.0609 59.7616C84.2769 59.8205 84.4831 59.8892 84.6843 59.9825C84.8856 60.0709 85.0476 60.1543 85.1752 60.2329C85.3029 60.3114 85.4207 60.39 85.5385 60.4734C85.725 60.601 85.8036 60.7679 85.7692 60.9643C85.7643 61.0085 85.7496 61.0478 85.73 61.087C85.7103 61.1263 85.6858 61.1607 85.6563 61.1901C85.6269 61.2196 85.5925 61.2441 85.5581 61.2687C85.5238 61.2932 85.4796 61.303 85.4305 61.3128C85.3814 61.3227 85.3323 61.3177 85.2832 61.3128C85.2587 61.3128 85.2341 61.303 85.2096 61.2932C85.1851 61.2834 85.1605 61.2736 85.136 61.2637C85.1114 61.2539 85.0869 61.2392 85.0623 61.2294C85.0623 61.2294 85.0083 61.1999 84.9102 61.141C84.812 61.0821 84.7383 61.0428 84.6991 61.0183C84.6549 60.9938 84.5763 60.9545 84.4634 60.9005C84.3505 60.8465 84.2524 60.8072 84.1689 60.7728C84.0855 60.7434 83.9824 60.709 83.8645 60.6747C83.7467 60.6403 83.624 60.6109 83.5062 60.5912C83.2607 60.5519 83.0398 60.5421 82.8435 60.5569C82.6471 60.5765 82.4753 60.6305 82.3281 60.7287C82.1808 60.8268 82.0973 60.9643 82.063 61.1459C82.0237 61.3717 82.063 61.5485 82.1808 61.6663C82.2986 61.7841 82.544 61.9265 82.922 62.0884L83.9038 62.5106C84.5371 62.7806 84.9789 63.0899 85.2243 63.4286C85.4698 63.7673 85.5532 64.1797 85.4747 64.6607C85.3814 65.2351 85.1163 65.6573 84.6794 65.9223C84.2425 66.1874 83.7026 66.3003 83.0595 66.2611L82.8484 67.5374C82.8288 67.665 82.7699 67.7583 82.6717 67.8172C82.5735 67.8761 82.4704 67.8957 82.3575 67.881C82.2888 67.8712 82.2299 67.8467 82.1759 67.8074C82.1219 67.7681 82.0777 67.7141 82.0482 67.6454C82.0188 67.5767 82.009 67.4981 82.0237 67.4098L82.2348 66.1334L82.2446 66.1531Z" fill="white"/>
</g>
<path d="M24.1128 109.484C24.2601 110.132 23.8575 110.78 23.2095 110.932C22.5616 111.08 21.9136 110.677 21.7614 110.029C21.6141 109.381 22.0167 108.733 22.6647 108.581C23.3126 108.434 23.9606 108.836 24.1128 109.484Z" fill="#9BABE8"/>
<path d="M101.247 79.4415C101.394 80.0895 100.992 80.7375 100.344 80.8897C99.696 81.0369 99.048 80.6344 98.8958 79.9864C98.7485 79.3385 99.1511 78.6905 99.7991 78.5383C100.447 78.391 101.095 78.7936 101.247 79.4415Z" fill="#9BABE8"/>
<path d="M52.4768 104.428C52.5504 104.752 52.3491 105.076 52.0251 105.15C51.7011 105.223 51.3771 105.022 51.3035 104.698C51.2299 104.374 51.4311 104.05 51.7551 103.977C52.0791 103.903 52.4031 104.104 52.4768 104.428Z" fill="#9987F2"/>
<path d="M36.179 39.5711C36.2526 39.895 36.0514 40.219 35.7274 40.2927C35.4034 40.3663 35.0794 40.165 35.0058 39.841C34.9321 39.5171 35.1334 39.1931 35.4574 39.1194C35.7814 39.0458 36.1054 39.2471 36.179 39.5711Z" fill="#9987F2"/>
<path d="M100.079 32.4039C100.152 32.7279 99.9512 33.0519 99.6272 33.1256C99.3032 33.1992 98.9793 32.9979 98.9056 32.6739C98.832 32.3499 99.0333 32.0259 99.3572 31.9523C99.6812 31.8787 100.005 32.0799 100.079 32.4039Z" fill="#9987F2"/>
<path d="M104.021 33.9453C104.094 34.2693 103.893 34.5933 103.569 34.6669C103.245 34.7406 102.921 34.5393 102.847 34.2153C102.774 33.8913 102.975 33.5673 103.299 33.4937C103.623 33.4201 103.947 33.6213 104.021 33.9453Z" fill="white"/>
<path d="M15.743 98.1888C15.8167 98.5128 15.6154 98.8368 15.2914 98.9105C14.9674 98.9841 14.6434 98.7828 14.5698 98.4588C14.4961 98.1349 14.6974 97.8109 15.0214 97.7372C15.3454 97.6636 15.6694 97.8649 15.743 98.1888Z" fill="white"/>
<path d="M100.113 40.0472C100.187 40.3712 99.9856 40.6952 99.6616 40.7688C99.3376 40.8424 99.0136 40.6412 98.94 40.3172C98.8663 39.9932 99.0676 39.6692 99.3916 39.5956C99.7156 39.5219 100.04 39.7232 100.113 40.0472Z" fill="white"/>
<path d="M50.9157 34.181L49.8013 36.7042L49.1042 33.9846L46.8118 32.7918L49.3202 31.8345L50.4788 29.2377L51.2298 32.021L53.4978 33.4545L50.9157 34.181Z" fill="#9987F2"/>
<path d="M4.57024 79.5987L3.32827 82.4066L2.55266 79.3778L0 78.0474L2.7932 76.9822L4.08425 74.0908L4.91877 77.1933L7.44688 78.7887L4.57024 79.5987Z" fill="#9987F2"/>
<path d="M39.6103 142.144L38.6482 144.328L38.0444 141.967L36.0562 140.936L38.2309 140.106L39.2372 137.858L39.8852 140.268L41.8488 141.51L39.6103 142.144Z" fill="white"/>
<path d="M66.5654 69.8593L65.5983 72.0487L64.9945 69.6875L63.0113 68.6566L65.1811 67.827L66.1874 65.5738L66.8354 67.989L68.8039 69.231L66.5654 69.8593Z" fill="white"/>
<path d="M15.0852 57.582C15.1588 57.906 14.9576 58.23 14.6336 58.3036C14.3096 58.3772 13.9856 58.176 13.912 57.852C13.8383 57.528 14.0396 57.204 14.3636 57.1304C14.6876 57.0567 15.0116 57.258 15.0852 57.582Z" fill="#9BABE8"/>
<path d="M23.45 128.374C23.4893 128.546 23.3813 128.718 23.2095 128.757C23.0377 128.796 22.8659 128.688 22.8266 128.516C22.7873 128.345 22.8953 128.173 23.0671 128.133C23.239 128.094 23.4108 128.202 23.45 128.374Z" fill="#9BABE8"/>
<path d="M57.9895 54.0476C58.1368 54.6955 57.7342 55.3435 57.0863 55.4957C56.4383 55.643 55.7903 55.2404 55.6381 54.5925C55.4908 53.9445 55.8934 53.2965 56.5414 53.1443C57.1893 52.997 57.8373 53.3996 57.9895 54.0476Z" fill="#9BABE8"/>
<g opacity="0.6">
<path d="M287.758 70.1681C288.797 58.426 280.121 48.0643 268.379 47.0246C256.637 45.985 246.275 54.661 245.236 66.4031C244.196 78.1452 252.872 88.5068 264.614 89.5465C276.356 90.5862 286.718 81.9102 287.758 70.1681Z" fill="#5574D8"/>
<path d="M283.317 81.3888C291.652 73.0534 291.652 59.5391 283.317 51.2037C274.982 42.8683 261.467 42.8683 253.132 51.2037C244.796 59.5391 244.796 73.0534 253.132 81.3888C261.467 89.7243 274.982 89.7242 283.317 81.3888Z" fill="#708CF5"/>
<path d="M268.269 84.8366C262.997 84.8366 257.759 82.5932 254.117 78.2438C247.593 70.4484 248.624 58.7995 256.414 52.2755C264.21 45.7515 275.859 46.7823 282.383 54.5729C285.544 58.3478 287.046 63.1292 286.609 68.0332C286.177 72.9373 283.855 77.3799 280.08 80.5412C276.634 83.4277 272.437 84.8366 268.26 84.8366H268.269ZM268.24 48.471C264.175 48.471 260.086 49.8406 256.733 52.6485C249.144 59.0007 248.143 70.3404 254.495 77.9297C260.847 85.514 272.187 86.5203 279.776 80.1681C283.453 77.0902 285.706 72.7654 286.128 67.9939C286.55 63.2175 285.088 58.5638 282.01 54.8919C278.465 50.6604 273.37 48.4759 268.235 48.4759L268.24 48.471Z" fill="white"/>
<path d="M265.844 74.3118C264.755 74.0124 263.773 73.6049 262.899 73.0846C262.025 72.5642 261.309 72.0193 260.749 71.445C260.425 71.1063 260.302 70.7283 260.381 70.3208C260.44 69.9919 260.612 69.7269 260.886 69.5305C261.161 69.3292 261.475 69.2654 261.829 69.3292C262.099 69.3783 262.364 69.5109 262.614 69.722C263.248 70.2718 263.92 70.7577 264.627 71.1701C265.334 71.5824 266.154 71.877 267.096 72.0537C267.445 72.1175 267.783 72.1617 268.107 72.1813C268.431 72.201 268.751 72.1912 269.06 72.1568C269.369 72.1224 269.659 72.0537 269.924 71.9604C270.189 71.8623 270.424 71.7395 270.631 71.5923C270.842 71.445 271.014 71.2535 271.161 71.0179C271.303 70.7823 271.406 70.5123 271.46 70.2079C271.568 69.6434 271.45 69.1378 271.112 68.696C270.773 68.2542 270.184 67.8369 269.345 67.4442L266.679 66.2071C266.154 65.9568 265.717 65.7457 265.378 65.569C265.034 65.3923 264.676 65.191 264.293 64.9554C263.91 64.7197 263.606 64.4988 263.375 64.2927C263.145 64.0865 262.924 63.841 262.713 63.5612C262.501 63.2814 262.349 62.9918 262.261 62.6874C262.173 62.3831 262.119 62.0394 262.104 61.6565C262.089 61.2736 262.123 60.8564 262.207 60.4048C262.285 59.9875 262.408 59.5997 262.58 59.2462C262.752 58.8928 262.958 58.5835 263.199 58.3185C263.439 58.0534 263.719 57.8177 264.033 57.6165C264.347 57.4103 264.686 57.2434 265.059 57.1158C265.432 56.9881 265.825 56.8899 266.247 56.8261C266.669 56.7623 267.106 56.7329 267.553 56.7279C267.999 56.723 268.476 56.7525 268.967 56.8065L269.615 53.331C269.678 52.9824 269.835 52.7272 270.081 52.575C270.326 52.4228 270.596 52.3737 270.891 52.4277C271.185 52.4817 271.426 52.629 271.617 52.8695C271.809 53.11 271.868 53.3997 271.804 53.7384L271.146 57.2483C271.725 57.4152 272.28 57.6263 272.82 57.8766C273.36 58.127 273.792 58.3626 274.126 58.5786C274.46 58.7946 274.779 59.0155 275.088 59.2512C275.584 59.6144 275.78 60.0611 275.682 60.5913C275.662 60.7042 275.623 60.8122 275.569 60.9202C275.515 61.0282 275.446 61.1215 275.358 61.1951C275.27 61.2687 275.181 61.3424 275.083 61.3964C274.985 61.4504 274.867 61.4896 274.739 61.5093C274.607 61.524 274.474 61.5191 274.337 61.4945C274.268 61.4798 274.204 61.4651 274.146 61.4405C274.087 61.416 274.018 61.3915 273.949 61.362C273.88 61.3326 273.812 61.2982 273.748 61.2638C273.738 61.2638 273.601 61.1804 273.336 61.0184C273.075 60.8564 272.884 60.7435 272.766 60.6747C272.648 60.606 272.442 60.498 272.143 60.3459C271.843 60.1986 271.583 60.0759 271.357 59.9875C271.136 59.8991 270.861 59.8059 270.542 59.7028C270.223 59.5997 269.904 59.5211 269.585 59.4622C268.927 59.3395 268.333 59.2953 267.803 59.3297C267.268 59.3641 266.807 59.5064 266.404 59.7617C266.006 60.0169 265.761 60.3851 265.673 60.8711C265.56 61.4798 265.653 61.9511 265.952 62.2849C266.252 62.6187 266.91 63.0114 267.926 63.4679L270.547 64.6608C272.241 65.4315 273.409 66.2857 274.052 67.2135C274.695 68.1413 274.897 69.2556 274.656 70.5565C274.366 72.1028 273.63 73.227 272.442 73.9142C271.254 74.6064 269.791 74.8764 268.053 74.7242L267.415 78.1506C267.352 78.4893 267.19 78.7348 266.924 78.8919C266.659 79.049 266.38 79.0981 266.07 79.0391C265.889 79.0048 265.727 78.9361 265.584 78.8232C265.442 78.7152 265.329 78.563 265.255 78.3764C265.182 78.1899 265.162 77.9739 265.206 77.7383L265.844 74.3118Z" fill="white"/>
</g>
<g opacity="0.4">
<path d="M310.007 107.894C313.601 101.583 311.399 93.5527 305.087 89.9585C298.775 86.3644 290.745 88.5672 287.151 94.8787C283.557 101.19 285.76 109.22 292.071 112.815C298.383 116.409 306.413 114.206 310.007 107.894Z" fill="#5574D8"/>
<path d="M300.866 113.063C308.082 112.238 313.263 105.72 312.439 98.5037C311.614 91.2876 305.095 86.1063 297.879 86.931C290.663 87.7557 285.482 94.2742 286.307 101.49C287.131 108.707 293.65 113.888 300.866 113.063Z" fill="#708CF5"/>
<path d="M299.397 111.482C296.898 111.482 294.385 110.672 292.284 108.998C287.341 105.071 286.516 97.8502 290.443 92.9069C294.37 87.9636 301.591 87.1389 306.535 91.066C311.478 94.9932 312.303 102.214 308.376 107.158C306.117 110 302.774 111.477 299.397 111.477V111.482ZM299.422 89.0779C296.192 89.0779 292.991 90.4966 290.826 93.2162C287.066 97.9484 287.856 104.86 292.588 108.62C297.321 112.381 304.228 111.59 307.993 106.858C311.753 102.126 310.963 95.219 306.23 91.4538C304.218 89.8535 301.812 89.0779 299.422 89.0779Z" fill="white"/>
<path d="M298.936 105.101C298.239 105.057 297.596 104.929 297.006 104.723C296.412 104.517 295.917 104.276 295.504 104.001C295.269 103.834 295.146 103.623 295.141 103.368C295.141 103.162 295.205 102.98 295.347 102.828C295.49 102.671 295.671 102.592 295.892 102.592C296.064 102.592 296.236 102.636 296.417 102.73C296.869 102.985 297.33 103.191 297.812 103.353C298.293 103.515 298.823 103.589 299.412 103.579C299.633 103.579 299.839 103.559 300.04 103.53C300.237 103.5 300.428 103.456 300.61 103.397C300.791 103.338 300.958 103.26 301.105 103.172C301.253 103.078 301.38 102.975 301.488 102.862C301.596 102.749 301.68 102.607 301.734 102.45C301.793 102.288 301.817 102.111 301.817 101.925C301.812 101.571 301.68 101.282 301.42 101.056C301.159 100.83 300.752 100.653 300.197 100.521L298.435 100.103C298.086 100.015 297.797 99.9415 297.571 99.8776C297.345 99.8138 297.1 99.7353 296.84 99.642C296.579 99.5487 296.368 99.4506 296.201 99.3573C296.034 99.2591 295.872 99.1413 295.71 98.9989C295.548 98.8566 295.421 98.6995 295.332 98.5277C295.239 98.3559 295.166 98.1546 295.112 97.9239C295.058 97.6931 295.023 97.4379 295.018 97.1532C295.018 96.893 295.043 96.6426 295.102 96.407C295.161 96.1714 295.249 95.9603 295.362 95.7688C295.475 95.5774 295.612 95.4007 295.779 95.2387C295.941 95.0767 296.128 94.9343 296.334 94.8067C296.54 94.684 296.766 94.576 297.016 94.4876C297.262 94.3992 297.522 94.3256 297.792 94.2667C298.062 94.2078 298.352 94.1685 298.656 94.1391L298.617 91.9595C298.617 91.7386 298.675 91.5668 298.803 91.444C298.931 91.3213 299.088 91.2575 299.274 91.2575C299.461 91.2575 299.623 91.3115 299.765 91.4342C299.908 91.557 299.981 91.7239 299.986 91.9349L300.025 94.1342C300.394 94.1636 300.757 94.2225 301.11 94.306C301.464 94.3894 301.758 94.4778 301.984 94.5661C302.21 94.6545 302.436 94.7478 302.647 94.8509C302.99 95.008 303.162 95.2534 303.172 95.5872C303.172 95.6559 303.162 95.7296 303.143 95.7983C303.123 95.8719 303.094 95.9357 303.049 95.9897C303.01 96.0486 302.961 96.0977 302.907 96.1468C302.853 96.1959 302.789 96.2303 302.711 96.2548C302.632 96.2794 302.554 96.2941 302.465 96.2941C302.421 96.2941 302.382 96.2941 302.342 96.2843C302.303 96.2794 302.259 96.2696 302.215 96.2597C302.171 96.2499 302.126 96.2401 302.082 96.2254C302.077 96.2254 301.984 96.191 301.802 96.1272C301.626 96.0634 301.498 96.0192 301.42 95.9897C301.341 95.9603 301.204 95.921 301.002 95.867C300.801 95.813 300.629 95.7737 300.487 95.7492C300.34 95.7247 300.163 95.7001 299.962 95.6805C299.755 95.6608 299.554 95.651 299.353 95.6559C298.941 95.6608 298.577 95.7099 298.258 95.7983C297.939 95.8867 297.679 96.029 297.468 96.2303C297.257 96.4315 297.159 96.6868 297.164 96.9912C297.168 97.3741 297.286 97.6441 297.507 97.811C297.728 97.973 298.175 98.13 298.842 98.2822L300.57 98.6749C301.69 98.9302 302.5 99.2984 303 99.7795C303.501 100.261 303.766 100.909 303.776 101.723C303.791 102.695 303.486 103.461 302.853 104.026C302.22 104.59 301.371 104.934 300.305 105.057L300.345 107.202C300.345 107.413 300.281 107.585 300.138 107.712C300.001 107.84 299.834 107.904 299.643 107.909C299.53 107.909 299.422 107.889 299.323 107.84C299.225 107.791 299.137 107.717 299.068 107.609C298.999 107.506 298.965 107.379 298.96 107.226L298.921 105.081L298.936 105.101Z" fill="white"/>
</g>
<g opacity="0.6">
<path d="M271.707 121.755C272.449 115.812 268.233 110.393 262.29 109.651C256.348 108.908 250.928 113.124 250.186 119.067C249.444 125.01 253.66 130.429 259.602 131.171C265.545 131.913 270.964 127.698 271.707 121.755Z" fill="#5574D8"/>
<path d="M272.689 119.961C272.984 113.979 268.375 108.891 262.393 108.595C256.412 108.299 251.323 112.909 251.027 118.89C250.732 124.872 255.341 129.961 261.323 130.256C267.304 130.552 272.393 125.943 272.689 119.961Z" fill="#708CF5"/>
<path d="M261.878 128.968C261.48 128.968 261.083 128.943 260.685 128.894C258.172 128.58 255.928 127.304 254.372 125.306C251.162 121.178 251.903 115.203 256.036 111.993C260.165 108.782 266.139 109.524 269.349 113.657C272.56 117.785 271.819 123.76 267.685 126.97C266.002 128.281 263.974 128.973 261.878 128.973V128.968ZM261.849 110.486C259.914 110.486 257.97 111.104 256.331 112.381C252.414 115.429 251.707 121.094 254.755 125.006C256.233 126.901 258.358 128.114 260.744 128.408C263.13 128.708 265.486 128.06 267.386 126.582C271.303 123.534 272.01 117.869 268.962 113.956C267.19 111.679 264.534 110.486 261.849 110.486Z" fill="white"/>
<path d="M260.494 123.445C259.944 123.274 259.453 123.048 259.021 122.768C258.589 122.488 258.231 122.199 257.961 121.894C257.804 121.717 257.75 121.521 257.794 121.32C257.833 121.153 257.921 121.025 258.064 120.927C258.206 120.829 258.368 120.804 258.545 120.844C258.682 120.873 258.815 120.947 258.938 121.06C259.252 121.349 259.581 121.609 259.934 121.83C260.288 122.051 260.7 122.218 261.171 122.321C261.348 122.361 261.52 122.39 261.682 122.405C261.844 122.419 262.006 122.424 262.168 122.41C262.325 122.395 262.472 122.37 262.609 122.326C262.747 122.282 262.87 122.223 262.978 122.154C263.086 122.086 263.179 121.987 263.257 121.87C263.336 121.752 263.39 121.614 263.424 121.462C263.488 121.177 263.439 120.917 263.277 120.687C263.115 120.456 262.821 120.235 262.403 120.019L261.073 119.342C260.808 119.204 260.592 119.091 260.425 118.993C260.258 118.895 260.076 118.787 259.885 118.659C259.694 118.532 259.541 118.414 259.428 118.306C259.316 118.198 259.208 118.07 259.104 117.923C259.001 117.776 258.933 117.628 258.893 117.471C258.854 117.314 258.834 117.142 258.83 116.946C258.83 116.75 258.854 116.539 258.903 116.313C258.952 116.102 259.021 115.91 259.114 115.733C259.208 115.557 259.32 115.405 259.448 115.272C259.576 115.139 259.723 115.027 259.885 114.928C260.047 114.83 260.224 114.752 260.415 114.693C260.607 114.634 260.808 114.595 261.024 114.57C261.24 114.545 261.461 114.536 261.691 114.545C261.922 114.555 262.158 114.575 262.408 114.614L262.801 112.862C262.84 112.685 262.924 112.562 263.051 112.489C263.179 112.415 263.316 112.395 263.464 112.43C263.611 112.464 263.734 112.543 263.822 112.665C263.915 112.793 263.94 112.94 263.901 113.112L263.503 114.884C263.793 114.977 264.072 115.095 264.342 115.233C264.612 115.37 264.828 115.498 264.995 115.611C265.162 115.724 265.319 115.846 265.471 115.969C265.717 116.161 265.81 116.391 265.746 116.661C265.732 116.72 265.712 116.774 265.682 116.828C265.653 116.882 265.614 116.926 265.57 116.966C265.525 117.005 265.476 117.034 265.427 117.064C265.378 117.093 265.319 117.108 265.25 117.113C265.182 117.118 265.113 117.113 265.049 117.098C265.015 117.088 264.98 117.079 264.951 117.069C264.922 117.054 264.887 117.039 264.853 117.025C264.819 117.01 264.784 116.99 264.755 116.971C264.75 116.971 264.681 116.926 264.548 116.838C264.416 116.75 264.323 116.691 264.269 116.651C264.21 116.612 264.107 116.553 263.959 116.475C263.812 116.391 263.68 116.327 263.567 116.278C263.454 116.229 263.316 116.175 263.159 116.121C262.997 116.062 262.84 116.018 262.678 115.984C262.349 115.91 262.045 115.876 261.775 115.886C261.505 115.895 261.264 115.959 261.058 116.082C260.852 116.205 260.72 116.386 260.666 116.632C260.597 116.941 260.636 117.182 260.783 117.353C260.931 117.525 261.255 117.741 261.765 117.992L263.076 118.644C263.92 119.067 264.499 119.518 264.809 120.004C265.118 120.485 265.201 121.055 265.054 121.713C264.877 122.493 264.485 123.048 263.866 123.377C263.253 123.706 262.501 123.819 261.623 123.711L261.235 125.438C261.196 125.61 261.107 125.733 260.975 125.807C260.837 125.88 260.695 125.9 260.538 125.866C260.445 125.846 260.366 125.807 260.292 125.748C260.224 125.689 260.17 125.61 260.135 125.512C260.101 125.414 260.096 125.306 260.126 125.188L260.513 123.46L260.494 123.445Z" fill="white"/>
</g>
<g opacity="0.4">
<path d="M252.249 33.3859C252.291 28.6171 248.46 24.7169 243.691 24.6745C238.922 24.632 235.022 28.4634 234.98 33.2321C234.937 38.0008 238.769 41.901 243.537 41.9435C248.306 41.9859 252.206 38.1546 252.249 33.3859Z" fill="#5574D8"/>
<path d="M252.945 33.6032C253.536 28.871 250.179 24.5557 245.447 23.9646C240.715 23.3735 236.399 26.7305 235.808 31.4626C235.217 36.1947 238.574 40.5101 243.306 41.1012C248.038 41.6922 252.354 38.3353 252.945 33.6032Z" fill="#708CF5"/>
<path d="M244.382 40.1847C244.063 40.1847 243.744 40.1651 243.425 40.1258C241.408 39.8755 239.611 38.8544 238.364 37.2492C235.787 33.9406 236.386 29.1494 239.694 26.5771C243.003 23.9999 247.794 24.5988 250.366 27.9075C251.613 29.5127 252.163 31.5057 251.913 33.5184C251.662 35.536 250.641 37.3326 249.036 38.5795C247.686 39.63 246.061 40.1847 244.382 40.1847ZM244.358 25.4628C242.831 25.4628 241.295 25.9488 239.999 26.96C236.901 29.3703 236.342 33.8473 238.752 36.9448C241.162 40.0424 245.639 40.602 248.737 38.1917C250.239 37.0234 251.191 35.3445 251.427 33.4595C251.662 31.5744 251.147 29.709 249.984 28.2069C248.584 26.4053 246.483 25.4628 244.358 25.4628Z" fill="white"/>
<path d="M243.278 35.7372C242.841 35.5997 242.448 35.423 242.105 35.1972C241.761 34.9763 241.476 34.7407 241.26 34.505C241.133 34.3627 241.089 34.2105 241.128 34.0436C241.157 33.911 241.231 33.808 241.344 33.7294C241.457 33.6509 241.584 33.6312 241.727 33.6607C241.835 33.6852 241.938 33.7441 242.041 33.8325C242.291 34.0632 242.551 34.2694 242.831 34.4461C243.111 34.6228 243.44 34.7554 243.818 34.8388C243.96 34.8683 244.093 34.8928 244.225 34.9076C244.358 34.9223 244.486 34.9223 244.608 34.9076C244.736 34.8977 244.854 34.8732 244.962 34.8388C245.07 34.8045 245.168 34.7554 245.256 34.7014C245.345 34.6425 245.418 34.5688 245.477 34.4756C245.536 34.3823 245.585 34.2743 245.61 34.1516C245.659 33.9258 245.619 33.7196 245.492 33.5331C245.359 33.3465 245.129 33.1698 244.795 33.0029L243.734 32.4629C243.523 32.3549 243.352 32.2616 243.219 32.188C243.082 32.1144 242.939 32.026 242.787 31.9229C242.635 31.8198 242.517 31.7266 242.424 31.6431C242.335 31.5547 242.247 31.4566 242.169 31.3388C242.085 31.2209 242.031 31.1031 241.997 30.9804C241.962 30.8577 241.948 30.7153 241.948 30.5631C241.948 30.4061 241.967 30.2392 242.007 30.0575C242.046 29.8906 242.1 29.7335 242.173 29.5961C242.247 29.4537 242.335 29.331 242.438 29.2279C242.542 29.1248 242.654 29.0315 242.787 28.953C242.915 28.8745 243.057 28.8106 243.209 28.7665C243.361 28.7174 243.523 28.6879 243.695 28.6683C243.867 28.6486 244.044 28.6437 244.225 28.6486C244.407 28.6536 244.598 28.6732 244.795 28.7026L245.109 27.3085C245.138 27.1661 245.207 27.068 245.31 27.0091C245.413 26.9502 245.521 26.9354 245.639 26.96C245.757 26.9845 245.855 27.0483 245.924 27.1514C245.997 27.2496 246.017 27.3674 245.988 27.5049L245.673 28.9137C245.904 28.9874 246.125 29.0806 246.341 29.1935C246.557 29.3064 246.729 29.4046 246.861 29.4979C246.994 29.5912 247.122 29.6844 247.239 29.7826C247.436 29.9348 247.509 30.1213 247.46 30.3324C247.451 30.3766 247.431 30.4208 247.411 30.465C247.387 30.5091 247.357 30.5435 247.323 30.573C247.289 30.6024 247.249 30.627 247.21 30.6515C247.171 30.6711 247.122 30.6859 247.068 30.6908C247.014 30.6908 246.96 30.6908 246.906 30.681C246.876 30.676 246.852 30.6662 246.827 30.6564C246.803 30.6466 246.778 30.6368 246.749 30.622C246.719 30.6073 246.695 30.5926 246.67 30.5779C246.67 30.5779 246.611 30.5435 246.508 30.4748C246.405 30.4061 246.331 30.357 246.282 30.3275C246.238 30.2981 246.155 30.249 246.037 30.1852C245.919 30.1213 245.816 30.0673 245.723 30.0281C245.629 29.9888 245.526 29.9446 245.399 29.9004C245.271 29.8563 245.143 29.817 245.016 29.7875C244.751 29.7286 244.515 29.7041 244.299 29.709C244.083 29.7139 243.892 29.7679 243.73 29.8612C243.563 29.9593 243.46 30.1017 243.415 30.2981C243.361 30.5435 243.391 30.735 243.509 30.8724C243.626 31.0099 243.887 31.1817 244.289 31.378L245.33 31.8984C246.002 32.2371 246.464 32.5954 246.709 32.9783C246.955 33.3612 247.023 33.8178 246.906 34.3381C246.768 34.9616 246.449 35.4034 245.963 35.6635C245.472 35.9237 244.878 36.0121 244.176 35.9286L243.867 37.3031C243.838 37.4406 243.769 37.5388 243.656 37.5977C243.543 37.6566 243.43 37.6713 243.307 37.6468C243.234 37.632 243.17 37.5977 243.116 37.5535C243.062 37.5093 243.018 37.4455 242.988 37.367C242.959 37.2884 242.959 37.205 242.978 37.1068L243.288 35.7323L243.278 35.7372Z" fill="white"/>
</g>
<path d="M249.507 101.178C249.586 101.532 249.37 101.88 249.016 101.959C248.663 102.038 248.314 101.822 248.236 101.468C248.157 101.115 248.373 100.766 248.727 100.688C249.08 100.604 249.429 100.825 249.507 101.178Z" fill="#9BABE8"/>
<path d="M228.217 35.6243C228.271 35.8599 228.124 36.1005 227.888 36.1545C227.653 36.2085 227.412 36.0612 227.358 35.8256C227.304 35.5899 227.451 35.3494 227.687 35.2954C227.923 35.2414 228.163 35.3887 228.217 35.6243Z" fill="#9BABE8"/>
<path d="M288.067 131.604C288.151 131.958 287.93 132.306 287.576 132.385C287.223 132.463 286.874 132.247 286.796 131.894C286.717 131.54 286.933 131.192 287.287 131.113C287.64 131.035 287.989 131.251 288.067 131.604Z" fill="#9BABE8"/>
<path d="M270.351 19.9156C270.429 20.2691 270.213 20.6176 269.86 20.6962C269.506 20.7747 269.158 20.5587 269.079 20.2053C268.996 19.8518 269.217 19.5033 269.57 19.4247C269.924 19.3462 270.272 19.5622 270.351 19.9156Z" fill="#9BABE8"/>
<path d="M230.225 18.4527C230.304 18.8061 230.088 19.1547 229.734 19.2332C229.381 19.3117 229.032 19.0957 228.954 18.7423C228.875 18.3889 229.091 18.0403 229.444 17.9618C229.798 17.8832 230.146 18.0992 230.225 18.4527Z" fill="#9BABE8"/>
<path d="M310.644 120.402C310.791 121.05 310.388 121.698 309.74 121.85C309.092 121.997 308.444 121.595 308.292 120.947C308.145 120.299 308.547 119.651 309.195 119.499C309.843 119.351 310.491 119.754 310.644 120.402Z" fill="#9BABE8"/>
<path d="M316.402 80.8554C316.549 81.5033 316.146 82.1513 315.498 82.3035C314.85 82.4508 314.202 82.0482 314.05 81.4003C313.903 80.7523 314.306 80.1043 314.954 79.9521C315.602 79.8048 316.25 80.2074 316.402 80.8554Z" fill="#9BABE8"/>
<path d="M273.817 100.476C273.89 100.8 273.689 101.124 273.365 101.198C273.041 101.272 272.717 101.07 272.643 100.746C272.57 100.422 272.771 100.098 273.095 100.025C273.419 99.9511 273.743 100.152 273.817 100.476Z" fill="#9987F2"/>
<path d="M282.088 115.866C282.162 116.19 281.96 116.514 281.637 116.588C281.313 116.661 280.989 116.46 280.915 116.136C280.841 115.812 281.043 115.488 281.367 115.414C281.691 115.341 282.015 115.542 282.088 115.866Z" fill="white"/>
<path d="M242.826 50.4149C242.9 50.7389 242.699 51.0629 242.375 51.1365C242.051 51.2102 241.727 51.0089 241.653 50.6849C241.579 50.3609 241.781 50.0369 242.105 49.9633C242.429 49.8897 242.753 50.0909 242.826 50.4149Z" fill="white"/>
<path d="M319.985 106.711C320.059 107.035 319.858 107.359 319.534 107.432C319.21 107.506 318.886 107.305 318.812 106.981C318.738 106.657 318.94 106.333 319.264 106.259C319.588 106.186 319.912 106.387 319.985 106.711Z" fill="white"/>
<path d="M299.917 75.372L298.278 79.0832L297.257 75.0775L293.879 73.325L297.566 71.9161L299.279 68.092L300.379 72.191L303.722 74.297L299.917 75.372Z" fill="#9987F2"/>
<path d="M210.776 18.2122L209.936 20.1119L209.411 18.06L207.683 17.1616L209.573 16.44L210.447 14.4764L211.011 16.5824L212.725 17.6624L210.776 18.2122Z" fill="#9987F2"/>
<path d="M267.008 138.801L266.041 140.985L265.437 138.629L263.454 137.598L265.623 136.768L266.63 134.515L267.278 136.93L269.246 138.172L267.008 138.801Z" fill="white"/>
<path d="M307.487 56.5953L306.52 58.7847L305.921 56.4235L303.933 55.3926L306.103 54.563L307.109 52.3098L307.757 54.725L309.726 55.9669L307.487 56.5953Z" fill="white"/>
<path d="M200.241 32.6445C200.315 32.9685 200.114 33.2925 199.79 33.3662C199.466 33.4398 199.142 33.2385 199.068 32.9145C198.994 32.5905 199.196 32.2665 199.52 32.1929C199.844 32.1193 200.168 32.3205 200.241 32.6445Z" fill="#9BABE8"/>
<path d="M279.987 38.1425C280.134 38.7905 279.732 39.4385 279.084 39.5907C278.436 39.7379 277.788 39.3354 277.636 38.6874C277.488 38.0394 277.891 37.3915 278.539 37.2393C279.187 37.092 279.835 37.4945 279.987 38.1425Z" fill="#9BABE8"/>
<path d="M190.624 41.4463L189.819 40.8376C184.67 36.9497 180.9 33.1698 178.2 28.1921C177.729 16.1652 158.849 4.96787 152.56 9.92591C152.369 10.0781 146.11 6.4111 137.485 8.8754C137.23 8.04578 136.891 7.21126 136.459 6.39637C133.676 1.18797 128.271 -1.35486 124.383 0.721624C122.395 1.78196 121.197 3.84863 120.863 6.3031C116.853 6.4111 113.392 8.24705 111.968 11.4624C109.779 16.4008 113.215 22.7088 119.636 25.5511C119.896 25.664 120.156 25.772 120.417 25.8702C117.849 30.5337 114.28 34.2056 109.479 37.9904L108.689 38.6138C97.9336 47.0965 98.0808 62.1572 105.709 69.069L107.909 71.0817C108.247 71.3909 108.601 71.6904 108.959 71.9751C110.275 73.0158 110.913 74.5032 110.653 76.0446C110.167 78.9016 110.25 81.8814 111.07 84.9004C114.109 96.132 126.396 103.947 140.097 103.265C141.883 103.176 143.621 102.955 145.3 102.612C149.703 105.061 154.927 106.573 160.587 106.73C174.297 107.123 186.417 99.048 189.216 87.7574C189.967 84.7187 189.991 81.739 189.446 78.8918C189.152 77.3602 189.76 75.8581 191.052 74.7879C191.405 74.4934 191.754 74.189 192.087 73.8699L194.242 71.8131C201.729 64.7393 201.557 49.6835 190.624 41.4267V41.4463Z" fill="#121936"/>
<path opacity="0.33" d="M190.624 41.4463L190.227 41.1469C195.764 49.821 194.252 60.9987 187.812 66.5164L185.558 68.4652C185.21 68.7647 184.852 69.0543 184.483 69.3292C183.143 70.3306 182.461 71.8033 182.677 73.3496C183.084 76.2214 182.917 79.1962 182.014 82.1906C179.452 90.7077 171.543 97.0795 161.848 99.1314C157.955 98.4982 154.347 97.2219 151.161 95.4497C149.483 95.7884 147.74 96.0093 145.958 96.1026C143.503 96.2253 141.093 96.0683 138.776 95.6755C138.32 95.4203 137.868 95.1601 137.426 94.8852C136.945 94.9588 136.459 95.0177 135.973 95.0717C126.646 92.6124 119.209 86.1325 116.936 77.7382C116.121 74.7192 116.033 71.7395 116.519 68.8825C116.779 67.3411 116.141 65.8536 114.825 64.8129C114.462 64.5282 114.114 64.2288 113.775 63.9195L111.576 61.9068C105.842 56.7132 104.335 46.9247 108.498 38.7808C97.9385 47.2929 98.1251 62.2063 105.709 69.0788L107.909 71.0915C108.247 71.4008 108.601 71.7002 108.959 71.9849C110.275 73.0256 110.913 74.513 110.653 76.0544C110.167 78.9115 110.25 81.8912 111.07 84.9102C112.081 88.6508 114.128 92.0086 116.902 94.8067C116.902 94.8067 116.902 94.8067 116.907 94.8116C117.128 95.0325 117.349 95.2485 117.579 95.4595C117.604 95.4792 117.623 95.5037 117.648 95.5234C117.869 95.7246 118.09 95.9259 118.316 96.1222C118.345 96.1517 118.379 96.1763 118.409 96.2057C118.635 96.3972 118.865 96.5886 119.096 96.7751C119.126 96.7997 119.155 96.8193 119.18 96.8439C120.422 97.8306 121.767 98.7191 123.195 99.5045C123.264 99.5389 123.328 99.5782 123.391 99.6125C123.612 99.7303 123.833 99.8432 124.059 99.9561C124.162 100.01 124.27 100.064 124.373 100.113C124.579 100.216 124.79 100.314 125.002 100.413C125.129 100.472 125.252 100.526 125.38 100.584C125.581 100.673 125.787 100.761 125.988 100.85C126.131 100.908 126.268 100.967 126.41 101.021C126.612 101.1 126.808 101.178 127.009 101.257C127.162 101.316 127.314 101.37 127.471 101.424C127.667 101.493 127.863 101.566 128.06 101.63C128.227 101.689 128.399 101.738 128.565 101.792C128.752 101.851 128.939 101.915 129.13 101.969C129.346 102.033 129.567 102.092 129.788 102.155C130.038 102.224 130.293 102.293 130.549 102.357C130.799 102.42 131.049 102.479 131.3 102.538C131.457 102.573 131.619 102.602 131.776 102.636C131.997 102.681 132.218 102.73 132.439 102.769C132.606 102.798 132.772 102.828 132.939 102.857C133.155 102.897 133.376 102.931 133.597 102.965C133.764 102.99 133.936 103.014 134.108 103.034C134.329 103.064 134.549 103.093 134.775 103.118C134.947 103.137 135.114 103.152 135.286 103.172C135.512 103.191 135.742 103.211 135.973 103.23C136.14 103.245 136.307 103.255 136.474 103.265C136.714 103.28 136.955 103.289 137.2 103.299C137.357 103.304 137.515 103.314 137.672 103.314C137.942 103.319 138.207 103.319 138.477 103.319C138.609 103.319 138.742 103.319 138.874 103.319C139.277 103.314 139.684 103.304 140.087 103.28C141.874 103.191 143.611 102.97 145.29 102.627C149.694 105.076 154.917 106.588 160.577 106.745C160.974 106.755 161.372 106.76 161.77 106.755C161.897 106.755 162.025 106.75 162.153 106.745C162.423 106.74 162.688 106.735 162.958 106.721C163.11 106.716 163.257 106.706 163.404 106.696C163.65 106.681 163.895 106.667 164.141 106.647C164.293 106.637 164.45 106.623 164.602 106.608C164.848 106.583 165.088 106.559 165.329 106.529C165.476 106.515 165.623 106.495 165.77 106.475C166.036 106.441 166.296 106.402 166.556 106.362C166.679 106.343 166.796 106.328 166.919 106.308C167.292 106.245 167.665 106.181 168.033 106.107C168.132 106.087 168.235 106.063 168.333 106.043C168.603 105.984 168.873 105.925 169.143 105.862C169.295 105.827 169.447 105.788 169.595 105.749C169.811 105.695 170.022 105.641 170.238 105.582C170.4 105.538 170.562 105.489 170.724 105.444C170.92 105.385 171.121 105.327 171.318 105.263C171.484 105.209 171.646 105.16 171.813 105.106C172.005 105.042 172.191 104.978 172.378 104.909C172.545 104.85 172.707 104.791 172.869 104.733C173.055 104.664 173.242 104.59 173.428 104.517C173.59 104.453 173.752 104.389 173.914 104.325C174.224 104.197 174.533 104.065 174.837 103.927C175.014 103.844 175.191 103.761 175.367 103.677C175.515 103.608 175.662 103.535 175.809 103.466C175.991 103.378 176.173 103.28 176.349 103.186C176.487 103.118 176.619 103.044 176.757 102.97C176.938 102.872 177.12 102.769 177.302 102.666C177.424 102.597 177.552 102.524 177.675 102.45C177.861 102.342 178.043 102.229 178.224 102.116C178.332 102.052 178.436 101.984 178.544 101.915C178.74 101.792 178.931 101.669 179.123 101.542C179.172 101.507 179.221 101.473 179.27 101.439C179.982 100.953 180.664 100.442 181.317 99.9021C181.376 99.8531 181.44 99.804 181.499 99.75C181.69 99.5929 181.872 99.426 182.058 99.264C182.127 99.2051 182.191 99.1462 182.26 99.0823C182.441 98.9154 182.623 98.7485 182.8 98.5767C182.859 98.5178 182.917 98.4638 182.976 98.4049C183.158 98.2233 183.34 98.0417 183.516 97.86C183.546 97.8257 183.58 97.7962 183.61 97.7618C184.429 96.8979 185.18 95.9848 185.853 95.0276C185.878 94.9883 185.907 94.9539 185.932 94.9147C186.084 94.6987 186.226 94.4827 186.368 94.2618C186.403 94.2078 186.437 94.1538 186.471 94.0998C186.609 93.8789 186.746 93.658 186.879 93.4371C186.908 93.388 186.933 93.3438 186.962 93.2947C187.1 93.0591 187.232 92.8234 187.36 92.5829C188.17 91.0562 188.798 89.4461 189.216 87.7623C189.967 84.7237 189.991 81.7439 189.446 78.8967C189.152 77.3651 189.76 75.863 191.052 74.7928C191.405 74.4983 191.754 74.194 192.087 73.8749L194.242 71.818C201.729 64.7442 201.557 49.6885 190.624 41.4316V41.4463Z" fill="#363950"/>
<path d="M141.24 75.3181L150.582 75.9857L163.831 75.3083L188.371 76.7564C188.371 76.7564 221.595 78.7986 220.859 128.021C220.849 128.826 220.329 129.537 219.538 129.719L192.117 135.335C192.892 152.354 193.639 172.776 193.742 179.093L188.911 179.069L150.032 178.828L107.874 179.093C108.051 172.677 108.429 152.649 109.421 135.335L84.2818 130.75C83.4865 130.613 82.9269 129.925 82.8778 129.12C79.2256 66.8452 141.24 75.3181 141.24 75.3181Z" fill="#5D33FF"/>
<path opacity="0.6" d="M141.24 82.2594L150.582 82.7257L163.831 82.2545L188.371 83.2657C188.371 83.2657 206.549 84.0512 215.714 98.3853C206.549 77.8806 188.371 76.7614 188.371 76.7614L163.831 75.3132L150.582 75.9907L141.24 75.323C141.24 75.323 102.641 70.0606 88.1451 98.4197C102.636 78.5924 141.24 82.2643 141.24 82.2643V82.2594Z" fill="#481EEF"/>
<path d="M175.662 53.5813L173.9 36.5128C170.89 31.9033 163.066 30.7055 160.15 27.3576C157.838 24.697 157.145 21.6632 157.013 19.3757L156.767 21.8694C155.648 33.2484 147.421 41.7605 138.374 40.9358L138.388 41.0585L135.433 41.1616C131.447 41.2991 128.3 44.6764 128.438 48.6576V48.8245C128.58 52.8106 131.958 55.9572 135.944 55.8197L137.858 55.751L137.048 82.1121C137.097 89.2497 144.137 93.2653 151.387 93.2162H151.687C158.937 93.1671 164.828 87.2861 164.779 80.1534L164.715 70.6595C171.75 68.2689 176.457 61.2736 175.662 53.5714V53.5813Z" fill="#FF9C9C"/>
<path d="M134.932 50.9844C134.77 50.9844 134.613 50.9059 134.52 50.7635C134.373 50.5377 134.436 50.2333 134.662 50.0861L136.547 48.8588L134.402 46.4731C134.221 46.2718 134.235 45.9625 134.441 45.7809C134.643 45.5993 134.952 45.614 135.134 45.8202L137.662 48.633C137.76 48.741 137.804 48.8834 137.784 49.0257C137.765 49.1681 137.686 49.2957 137.564 49.3743L135.197 50.9157C135.114 50.9697 135.021 50.9942 134.932 50.9942V50.9844Z" fill="#FF6969"/>
<path d="M171.087 45.128C171.264 45.9577 170.733 46.7725 169.904 46.9542C169.074 47.1309 168.259 46.6007 168.078 45.7711C167.901 44.9415 168.431 44.1266 169.261 43.945C170.09 43.7683 170.905 44.2984 171.087 45.128Z" fill="#121936"/>
<path d="M157.239 44.8973C157.199 45.7466 156.483 46.4044 155.633 46.3651C154.784 46.3258 154.126 45.6091 154.166 44.7599C154.205 43.9106 154.922 43.2528 155.771 43.2921C156.62 43.3313 157.278 44.0481 157.239 44.8973Z" fill="#121936"/>
<path d="M161.063 56.453C158.554 56.453 156.664 55.7854 155.447 54.4698C153.92 52.8204 154.062 50.7684 154.072 50.685C154.107 50.2775 154.465 49.9732 154.868 50.0075C155.27 50.0419 155.574 50.3953 155.545 50.7979C155.545 50.8322 155.462 52.3246 156.546 53.4831C157.474 54.4747 158.996 54.9803 161.068 54.9803C161.077 54.9803 161.082 54.9803 161.092 54.9803C161.5 54.9803 161.828 55.3092 161.828 55.7166C161.828 56.1241 161.5 56.453 161.092 56.453H161.063Z" fill="#FF6969"/>
<path d="M164.582 63.944C164.519 63.9637 164.45 63.9588 164.386 63.9342C164.322 63.9048 162.751 63.2764 161.642 64.5282C161.534 64.6509 161.352 64.6607 161.23 64.5527C161.107 64.4447 161.097 64.2631 161.205 64.1404C162.599 62.5744 164.592 63.3893 164.612 63.3991C164.759 63.4629 164.828 63.6348 164.769 63.782C164.735 63.8655 164.666 63.9244 164.582 63.9489V63.944Z" fill="#FF6969"/>
<path d="M150.116 39.4435C150.67 39.5662 151.323 39.3797 151.962 39.2324C152.605 39.0704 153.253 38.9231 153.817 38.8151C154.387 38.7071 155.044 38.6041 155.697 38.5206C156.345 38.4224 157.023 38.3586 157.489 38.0444C157.936 37.745 158.024 37.1166 157.307 36.4981C156.63 35.8943 155.069 35.3936 153.184 35.747C151.304 36.1103 150.057 37.1412 149.669 37.9463C149.252 38.7759 149.581 39.3257 150.111 39.4386L150.116 39.4435Z" fill="#121936"/>
<path d="M172.142 39.3796C171.764 39.5023 171.308 39.3894 170.861 39.306C170.414 39.2127 169.963 39.1293 169.57 39.0703C169.177 39.0114 168.721 38.9673 168.264 38.9329C167.812 38.8887 167.341 38.874 167.017 38.6482C166.703 38.4371 166.629 37.9462 167.111 37.4308C167.567 36.9251 168.637 36.4539 169.943 36.6404C171.249 36.8319 172.132 37.578 172.417 38.1916C172.721 38.8249 172.505 39.2716 172.142 39.3845V39.3796Z" fill="#121936"/>
<path d="M154.17 46.4878C154.17 46.4878 155.511 45.4569 156.88 46.5958L154.17 46.4878Z" fill="#FF9C9C"/>
<path d="M156.875 47.0867C156.767 47.0867 156.654 47.0474 156.561 46.9738C155.54 46.1245 154.568 46.802 154.46 46.8805C154.244 47.0425 153.935 46.9983 153.773 46.7823C153.611 46.5663 153.65 46.262 153.866 46.1C154.44 45.6631 155.869 45.1231 157.185 46.2178C157.391 46.3896 157.42 46.6989 157.248 46.91C157.15 47.0278 157.013 47.0867 156.87 47.0867H156.875Z" fill="#FF6969"/>
<path d="M168.019 46.8707C168.019 46.8707 169.526 45.9233 170.905 47.1407L168.019 46.8707Z" fill="#FF9C9C"/>
<path d="M170.905 47.6316C170.787 47.6316 170.674 47.5923 170.581 47.5089C169.501 46.5614 168.328 47.2585 168.279 47.288C168.048 47.4303 167.749 47.3567 167.601 47.126C167.459 46.8952 167.528 46.5958 167.758 46.4534C168.387 46.0607 169.918 45.614 171.229 46.7676C171.43 46.9443 171.45 47.2585 171.273 47.4598C171.175 47.5678 171.043 47.6267 170.905 47.6267V47.6316Z" fill="#FF6969"/>
<path d="M164.651 70.7921C164.651 70.7921 150.268 72.0487 147.647 67.0171C147.647 67.0171 147.308 74.8714 164.847 78.2487L164.651 70.7921Z" fill="#FF6969"/>
<path d="M162.874 52.2313C162.81 52.2313 162.746 52.2313 162.683 52.2313L161.362 52.1724C160.955 52.1527 160.641 51.8091 160.66 51.4066C160.68 50.9991 161.023 50.68 161.426 50.7046L162.746 50.7635C164.342 50.8273 165.711 49.5853 165.78 47.9801C165.79 47.7641 165.623 47.5825 165.407 47.5727C163.758 47.499 162.476 46.1 162.55 44.4506L162.692 41.1861C162.712 40.7787 163.056 40.4645 163.458 40.4841C163.866 40.5038 164.18 40.8474 164.16 41.2499L164.018 44.5144C163.984 45.3538 164.632 46.0607 165.471 46.1C166.497 46.1442 167.297 47.018 167.253 48.0439C167.15 50.3953 165.206 52.2362 162.874 52.2362V52.2313Z" fill="#FF6969"/>
<path d="M131.864 54.7447C131.771 56.2615 132.929 57.5673 134.446 57.6606C135.963 57.7539 137.274 56.6003 137.367 55.0785C137.46 53.5567 136.302 52.2558 134.785 52.1626C133.263 52.0693 131.957 53.2229 131.864 54.7447Z" fill="white"/>
<path d="M119.376 84.9249L100.108 79.8491L100.187 79.7165L85.347 76.133C76.5011 74.5376 67.4931 77.9641 61.9411 85.028L58.5441 89.3479C56.826 91.5373 56.2762 94.4238 57.0763 97.0844C57.1843 97.4379 57.312 97.7864 57.4494 98.1251C57.2874 98.0957 55.1962 132.905 60.5077 153.552C67.6208 181.199 110.245 171.853 110.245 171.853L111.747 135.33L95.754 131.619L86.7215 114.467C88.7833 114.388 90.737 113.814 92.2735 112.415C98.3803 106.853 86.5497 99.0578 86.5497 99.0578C91.4832 100.265 93.3977 106.043 93.3977 106.043C93.3977 106.043 95.2287 107.408 97.6881 102.843C100.148 98.2773 91.7581 91.9104 91.7581 91.9104L94.188 93.7611C96.3087 95.3712 97.7912 97.6784 98.3705 100.28L98.4637 100.697L99.3424 100.049C101.758 98.2724 102.852 95.1356 101.9 92.2884C101.311 90.5162 100.167 88.9945 99.1019 87.8605L109.612 90.8157L113.76 91.8024C117.074 92.5878 120.417 91.1299 121.6 88.3759C122.228 86.9131 121.153 85.2391 119.376 84.9151V84.9249Z" fill="#FF9C9C"/>
<path d="M95.7589 131.624C95.7589 131.624 100.84 146.12 100.835 145.624C100.83 145.128 99.1853 132.429 99.1853 132.429L95.7589 131.624Z" fill="#FF6969"/>
<path d="M83.8253 97.9141C85.0181 98.0073 86.0932 98.346 87.1388 98.8222C88.1746 99.2984 89.1368 99.9267 90.0007 100.668C90.4082 101.061 90.8451 101.434 91.2034 101.876C91.3851 102.092 91.5863 102.298 91.7581 102.524L92.2589 103.211C92.4356 103.437 92.5828 103.677 92.7252 103.923L93.1621 104.649C93.4272 105.145 93.6628 105.66 93.9132 106.166C94.031 106.407 93.9328 106.701 93.6923 106.824C93.4517 106.942 93.1572 106.843 93.0345 106.603L93.0099 106.554C92.7792 106.073 92.5681 105.577 92.3276 105.106L91.93 104.414C91.8023 104.178 91.6649 103.952 91.5078 103.736L91.0512 103.083C90.8942 102.867 90.7125 102.676 90.5456 102.47C90.2167 102.047 89.8191 101.699 89.4411 101.321C88.6459 100.619 87.7622 100.02 86.8099 99.5586C85.8674 99.102 84.812 98.7633 83.8105 98.67H83.7713C83.5651 98.6455 83.4129 98.4639 83.4326 98.2577C83.4522 98.0515 83.6338 97.9042 83.8351 97.919L83.8253 97.9141Z" fill="#FF6969"/>
<path d="M90.3836 91.3361C91.5225 91.6208 92.5288 92.1264 93.4762 92.7597C94.4139 93.3979 95.2582 94.1686 95.9847 95.0374C96.3234 95.4891 96.6916 95.926 96.9714 96.4218C97.1187 96.6623 97.2807 96.8979 97.4083 97.1483L97.7912 97.9092C97.9287 98.1595 98.0318 98.4197 98.1299 98.6848L98.4392 99.4751C98.6208 100.01 98.7632 100.555 98.9301 101.095C99.0086 101.355 98.8614 101.63 98.6012 101.709C98.341 101.787 98.0661 101.64 97.9876 101.38C97.9876 101.38 97.9876 101.375 97.9876 101.37L97.9729 101.321C97.8305 100.805 97.7127 100.285 97.5556 99.7746L97.2856 99.0235C97.1972 98.7682 97.1089 98.5179 96.9862 98.2823L96.6523 97.5557C96.5345 97.3152 96.3922 97.0943 96.2596 96.8587C96.0093 96.3874 95.6755 95.9701 95.3711 95.5332C94.7133 94.6987 93.9426 93.9477 93.0786 93.3242C92.2245 92.7057 91.2476 92.1853 90.256 91.9055L90.2265 91.8957C90.0743 91.8515 89.9811 91.6944 90.0253 91.5374C90.0694 91.3852 90.2216 91.2968 90.3738 91.3361H90.3836Z" fill="#FF6969"/>
<path d="M114.776 84.8708L114.87 86.1815C114.928 87.0259 115.596 87.7377 116.406 87.8408C117.486 87.9782 118.885 87.826 119.543 86.3681" fill="#FF9C9C"/>
<path d="M117.01 88.3711C116.794 88.3711 116.573 88.3563 116.347 88.3269C115.301 88.1943 114.457 87.2862 114.383 86.216L114.29 84.9054C114.271 84.6354 114.477 84.3997 114.747 84.3801C115.012 84.3654 115.252 84.5666 115.272 84.8366L115.365 86.1473C115.405 86.7511 115.895 87.2813 116.475 87.3549C117.785 87.5218 118.669 87.1242 119.101 86.167C119.214 85.9215 119.504 85.8086 119.749 85.9215C119.994 86.0344 120.107 86.324 119.994 86.5695C119.464 87.7427 118.419 88.3662 117.015 88.3662L117.01 88.3711Z" fill="#FF6969"/>
<path d="M86.6626 114.379C86.6626 114.379 82.0089 116.544 75.8874 113.608C75.8874 113.608 80.9486 120.746 88.5623 117.992L86.6626 114.379Z" fill="#FF6969"/>
<path d="M197.432 57.4831C203.073 56.2975 206.749 51.0713 205.643 45.8101C204.537 40.5488 199.068 37.2449 193.428 38.4305C187.787 39.616 184.111 44.8422 185.217 50.1035C186.323 55.3647 191.792 58.6686 197.432 57.4831Z" fill="#5574D8"/>
<path d="M195.911 56.3285C201.552 55.1429 205.228 49.9168 204.122 44.6555C203.016 39.3943 197.547 36.0903 191.906 37.2759C186.266 38.4615 182.59 43.6877 183.695 48.9489C184.801 54.2101 190.27 57.5141 195.911 56.3285Z" fill="#708CF5"/>
<path d="M194.242 54.6957C191.699 54.6957 189.22 53.6059 187.65 51.5441C186.413 49.9192 185.912 47.9213 186.241 45.9135C186.589 43.7732 187.817 41.8882 189.697 40.6021C193.447 38.0445 198.641 38.771 201.267 42.222C202.504 43.8469 203.005 45.8448 202.676 47.8526C202.327 49.9929 201.1 51.8779 199.22 53.1641C197.708 54.1949 195.96 54.6957 194.242 54.6957ZM194.674 39.5614C193.049 39.5614 191.4 40.0326 189.972 41.0095C188.204 42.2171 187.051 43.9843 186.722 45.9921C186.417 47.8624 186.884 49.7327 188.037 51.2447C190.512 54.4944 195.401 55.1718 198.94 52.7566C200.707 51.549 201.861 49.7818 202.19 47.774C202.494 45.9037 202.028 44.0334 200.874 42.5215C199.402 40.5873 197.07 39.5614 194.674 39.5614Z" fill="white"/>
<path d="M195.082 50.3807C194.576 50.4936 194.085 50.5377 193.624 50.523C193.157 50.5083 192.75 50.4445 192.401 50.3463C192.2 50.2825 192.073 50.1696 192.019 49.9978C191.974 49.8603 191.989 49.7278 192.063 49.5952C192.136 49.4627 192.249 49.3743 192.406 49.3252C192.529 49.2909 192.662 49.286 192.809 49.3105C193.182 49.389 193.555 49.4332 193.933 49.443C194.306 49.4529 194.704 49.394 195.126 49.2712C195.283 49.2221 195.43 49.173 195.568 49.1092C195.705 49.0503 195.833 48.9816 195.951 48.9031C196.068 48.8245 196.176 48.7411 196.26 48.6527C196.348 48.5594 196.417 48.4662 196.476 48.368C196.53 48.2698 196.564 48.1618 196.574 48.0391C196.584 47.9164 196.569 47.7985 196.53 47.6709C196.456 47.4353 196.304 47.2684 196.073 47.1702C195.843 47.072 195.514 47.0377 195.092 47.0622L193.746 47.1457C193.481 47.1604 193.256 47.1702 193.079 47.1702C192.902 47.1702 192.711 47.1702 192.505 47.1604C192.298 47.1506 192.127 47.1309 191.989 47.0966C191.852 47.0671 191.709 47.018 191.567 46.9591C191.425 46.9002 191.302 46.8168 191.199 46.7235C191.101 46.6253 191.007 46.5075 190.919 46.3651C190.831 46.2228 190.762 46.0608 190.703 45.8693C190.649 45.6975 190.619 45.5257 190.615 45.3539C190.615 45.187 190.629 45.025 190.673 44.8777C190.718 44.7255 190.781 44.5832 190.87 44.4408C190.953 44.2985 191.061 44.1659 191.184 44.0383C191.307 43.9156 191.449 43.7977 191.611 43.6848C191.768 43.5768 191.94 43.4738 192.127 43.3805C192.313 43.2872 192.509 43.1989 192.721 43.1203L192.264 41.6722C192.22 41.5249 192.23 41.3973 192.298 41.2893C192.367 41.1813 192.465 41.1076 192.598 41.0684C192.73 41.0291 192.858 41.034 192.986 41.088C193.113 41.142 193.197 41.2353 193.241 41.3776L193.702 42.8405C193.972 42.7865 194.242 42.7472 194.517 42.7325C194.792 42.7178 195.018 42.7178 195.2 42.7325C195.381 42.7472 195.558 42.762 195.735 42.7865C196.01 42.8209 196.186 42.9485 196.255 43.1694C196.27 43.2185 196.279 43.2676 196.275 43.3167C196.275 43.3707 196.265 43.4198 196.245 43.4639C196.225 43.5081 196.201 43.5572 196.176 43.5965C196.147 43.6407 196.108 43.675 196.059 43.7094C196.01 43.7437 195.951 43.7683 195.892 43.7879C195.862 43.7977 195.833 43.8027 195.803 43.8076C195.774 43.8076 195.74 43.8125 195.705 43.8174C195.671 43.8174 195.636 43.8174 195.602 43.8174C195.597 43.8174 195.524 43.8174 195.381 43.8076C195.239 43.7977 195.141 43.7977 195.077 43.7928C195.013 43.7928 194.91 43.7928 194.753 43.7928C194.596 43.7928 194.468 43.8076 194.36 43.8174C194.252 43.8321 194.12 43.8517 193.967 43.8763C193.815 43.9057 193.668 43.9401 193.526 43.9843C193.231 44.0726 192.981 44.1806 192.77 44.3034C192.559 44.4261 192.397 44.5783 192.289 44.755C192.181 44.9317 192.156 45.1232 192.22 45.3244C192.298 45.5797 192.436 45.7368 192.627 45.8006C192.819 45.8644 193.172 45.8791 193.678 45.8448L194.998 45.7564C195.852 45.7024 196.505 45.781 196.962 46.0019C197.418 46.2179 197.733 46.6008 197.904 47.1407C198.106 47.7838 198.037 48.3631 197.698 48.8687C197.355 49.3743 196.815 49.7769 196.073 50.0763L196.525 51.5048C196.569 51.6472 196.554 51.7748 196.481 51.8877C196.407 52.0006 196.299 52.0792 196.162 52.1184C196.078 52.143 196 52.1479 195.916 52.1381C195.833 52.1282 195.759 52.0939 195.69 52.035C195.622 51.981 195.568 51.9024 195.538 51.8042L195.087 50.3757L195.082 50.3807Z" fill="white"/>
<path d="M241.781 74.4738C241.167 70.7528 240.445 67.0564 239.586 63.3845C238.222 57.5477 236.955 51.2888 234.01 46.0362C233.499 43.8714 232.041 41.9471 230.043 40.8082C227.687 39.8902 221.178 34.3578 221.178 34.3578C220.279 33.5577 218.959 33.6902 218.439 34.6327C217.864 35.6734 217.83 36.9203 218.252 38.0592C215.233 36.3558 212.469 34.618 212.469 34.618C211.183 33.7639 209.539 34.1566 209.058 35.4231C208.478 36.9596 208.763 38.6925 209.706 40.1308C207.752 39.0754 206.309 38.2408 206.309 38.2408C204.993 37.4259 203.177 37.9708 202.543 39.3699C201.355 42.0011 202.386 44.9857 204.954 46.375L208.169 48.1127C213.166 50.3414 215.739 54.3913 215.906 58.8879C216.023 61.9805 213.824 65.4708 210.57 66.0599L209.617 66.163C207.781 66.3642 205.94 65.7506 204.61 64.4694C203.137 63.0507 202.057 61.2835 201.503 59.3101L200.977 57.4447C200.123 55.216 197.61 53.9937 195.126 54.5975C193.958 54.8822 193.162 55.9278 193.27 57.047L194.242 67.3215C194.552 70.5859 196.52 73.4577 199.529 75.0433L213.078 82.1711C213.004 82.1907 212.965 82.2005 212.965 82.2005L207.163 130.696L192.107 135.33L193.609 171.853C193.609 171.853 236.234 181.204 243.347 153.552C246.11 142.811 245.678 131.015 245.359 120.024C244.986 107.236 244.456 94.4336 242.831 81.7342C242.522 79.3091 242.168 76.8841 241.771 74.4689L241.781 74.4738Z" fill="#FF9C9C"/>
<path d="M208.802 41.0242L207.973 41.7703C207.438 42.2514 206.608 42.2956 206.048 41.8783C205.307 41.3236 204.541 40.4056 204.998 39.1244" fill="#FF9C9C"/>
<path d="M206.932 42.5312C206.539 42.5312 206.151 42.4134 205.827 42.1729C204.649 41.2942 204.232 40.1651 204.649 38.9968C204.718 38.8053 204.929 38.7072 205.121 38.7759C205.312 38.8446 205.41 39.0557 205.341 39.2471C205.032 40.1111 205.341 40.8966 206.264 41.5838C206.682 41.8931 207.32 41.8587 207.722 41.5004L208.552 40.7542C208.704 40.6167 208.935 40.6315 209.072 40.7836C209.21 40.9358 209.195 41.1665 209.043 41.304L208.213 42.0502C207.855 42.3741 207.388 42.5361 206.927 42.5361L206.932 42.5312Z" fill="#FF6969"/>
<path d="M215.321 37.308L214.492 38.0542C213.957 38.5353 213.127 38.5794 212.567 38.1622C211.826 37.6075 211.06 36.6895 211.517 35.4083" fill="#FF9C9C"/>
<path d="M213.451 38.8151C213.058 38.8151 212.671 38.6973 212.347 38.4568C211.168 37.578 210.751 36.449 211.168 35.2807C211.237 35.0892 211.448 34.991 211.64 35.0598C211.831 35.1285 211.929 35.3396 211.861 35.531C211.551 36.395 211.861 37.1804 212.783 37.8677C213.201 38.1769 213.839 38.1426 214.241 37.7842L215.071 37.0381C215.223 36.9006 215.454 36.9153 215.591 37.0675C215.729 37.2197 215.714 37.4504 215.562 37.5879L214.732 38.334C214.374 38.658 213.908 38.82 213.446 38.82L213.451 38.8151Z" fill="#FF6969"/>
<path d="M222.454 36.454L221.791 36.8124C221.364 37.0431 220.824 36.9449 220.54 36.5865C220.162 36.1104 219.828 35.3937 220.343 34.6279" fill="#FF9C9C"/>
<path d="M221.296 37.3032C220.893 37.3032 220.5 37.1314 220.25 36.8123C219.612 36.0122 219.538 35.1629 220.039 34.4217C220.152 34.2548 220.383 34.2106 220.549 34.3235C220.716 34.4364 220.761 34.6671 220.648 34.834C220.53 35.0058 220.171 35.536 220.824 36.3558C221.001 36.5767 221.345 36.6307 221.615 36.4883L222.277 36.13C222.459 36.0318 222.68 36.1005 222.778 36.2773C222.876 36.454 222.808 36.6798 222.631 36.778L221.968 37.1363C221.757 37.2492 221.526 37.3032 221.301 37.3032H221.296Z" fill="#FF6969"/>
<path d="M218.193 38.0248C220.726 39.4533 223.46 40.872 224.904 41.2157C227.643 42.3054 229.852 44.4752 230.902 47.0966" fill="#FF9C9C"/>
<path d="M230.902 47.4696C230.755 47.4696 230.618 47.3813 230.559 47.2389C229.538 44.701 227.437 42.6343 224.786 41.569C223.529 41.2598 221.251 40.1749 218.007 38.3488C217.83 38.2506 217.766 38.0248 217.864 37.8481C217.962 37.6713 218.188 37.6075 218.365 37.7106C221.526 39.4926 223.814 40.5823 224.982 40.8671L225.031 40.8818C227.878 42.0158 230.142 44.2346 231.236 46.9689C231.31 47.1554 231.221 47.3714 231.03 47.45C230.986 47.4696 230.937 47.4745 230.893 47.4745L230.902 47.4696Z" fill="#FF6969"/>
<path d="M209.74 40.1013C209.74 40.1013 215.847 43.7781 219.19 44.3427C222.056 45.2999 224.26 47.45 225.169 50.1843L226.759 54.9607" fill="#FF9C9C"/>
<path d="M226.759 55.3338C226.607 55.3338 226.46 55.2356 226.411 55.0834L224.82 50.307C223.946 47.6758 221.86 45.6386 219.101 44.7059C215.724 44.1217 209.799 40.5726 209.548 40.4204C209.372 40.3173 209.318 40.0915 209.421 39.9148C209.524 39.738 209.75 39.684 209.926 39.7871C209.985 39.8215 216.013 43.4345 219.248 43.9843L219.302 43.999C222.297 45.0004 224.565 47.2144 225.517 50.0714L227.108 54.8478C227.172 55.0393 227.068 55.2503 226.877 55.3142C226.838 55.3289 226.798 55.3338 226.759 55.3338Z" fill="#FF6969"/>
<path d="M194.277 62.3536L195.656 62.0198C196.545 61.8038 197.129 60.9938 197.021 60.1445C196.873 59.0204 196.324 57.6213 194.581 57.2188" fill="#FF9C9C"/>
<path d="M194.277 62.7217C194.11 62.7217 193.962 62.6088 193.918 62.4419C193.869 62.2456 193.992 62.0443 194.188 61.9952L195.568 61.6614C196.275 61.4896 196.741 60.8612 196.653 60.1936C196.461 58.7455 195.735 57.8668 194.493 57.5772C194.296 57.533 194.169 57.3317 194.218 57.1354C194.262 56.939 194.458 56.8114 194.66 56.8605C196.618 57.3121 197.222 58.8682 197.384 60.0955C197.521 61.1361 196.815 62.1179 195.744 62.3781L194.365 62.7119C194.336 62.7168 194.306 62.7217 194.277 62.7217Z" fill="#FF6969"/>
<path d="M212.985 82.1318C212.985 82.1318 217.712 86.3093 223.829 83.3787C223.829 83.3787 219.941 90.3445 212.327 87.5905L212.985 82.1318Z" fill="#FF6969"/>
<path d="M207.173 130.701C207.173 130.701 204.669 145.506 204.669 145.011C204.669 144.515 203.923 131.668 203.923 131.668L207.173 130.701Z" fill="#FF6969"/>
<path d="M114.172 99.3965H194.537C196.697 99.3965 198.449 101.149 198.449 103.309V110.451H108.91V104.659C108.91 101.753 111.266 99.3965 114.172 99.3965Z" fill="#F4F8FE"/>
<path d="M130.136 103.333H178.573C180.733 103.333 182.485 105.086 182.485 107.246V110.447H124.874V108.596C124.874 105.69 127.23 103.333 130.136 103.333Z" fill="#5574D8"/>
<path d="M150.121 90.7371H157.047C166.423 90.7371 174.032 98.3459 174.032 107.722C174.032 109.072 172.933 110.172 171.583 110.172H135.585C134.235 110.172 133.136 109.072 133.136 107.722C133.136 98.3459 140.745 90.7371 150.121 90.7371Z" fill="#708CF5"/>
<path d="M152.565 94.6544H154.603C163.051 94.6544 169.909 101.512 169.909 109.961V110.172H137.259V109.961C137.259 101.512 144.117 94.6544 152.565 94.6544Z" fill="#F4F8FE"/>
<path d="M198.999 130.136H107.511V190.806H198.999V130.136Z" fill="#BBC7F9"/>
<g opacity="0.82">
<path d="M113.446 152.428H107.663C107.482 152.428 107.334 152.281 107.334 152.099V149.885C107.334 149.704 107.482 149.556 107.663 149.556H113.446C113.628 149.556 113.775 149.704 113.775 149.885V152.099C113.775 152.281 113.628 152.428 113.446 152.428ZM107.707 152.06H113.407V149.929H107.707V152.06Z" fill="#5574D8"/>
<path d="M110.574 149.929H107.604C107.501 149.929 107.418 149.846 107.418 149.743C107.418 149.64 107.501 149.556 107.604 149.556H110.53V147.426H107.634C107.531 147.426 107.447 147.342 107.447 147.239C107.447 147.136 107.531 147.053 107.634 147.053H110.579C110.756 147.053 110.898 147.195 110.898 147.372V149.6C110.898 149.777 110.756 149.92 110.579 149.92L110.574 149.929Z" fill="#5574D8"/>
<path d="M110.574 154.932H107.604C107.501 154.932 107.418 154.848 107.418 154.745C107.418 154.642 107.501 154.558 107.604 154.558H110.53V152.428H107.634C107.531 152.428 107.447 152.345 107.447 152.241C107.447 152.138 107.531 152.055 107.634 152.055H110.579C110.756 152.055 110.898 152.197 110.898 152.374V154.603C110.898 154.779 110.756 154.922 110.579 154.922L110.574 154.932Z" fill="#5574D8"/>
<path d="M198.749 185.053H192.966C192.784 185.053 192.637 184.906 192.637 184.724V182.51C192.637 182.328 192.784 182.181 192.966 182.181H198.749C198.93 182.181 199.078 182.328 199.078 182.51V184.724C199.078 184.906 198.93 185.053 198.749 185.053ZM193.005 184.685H198.705V182.554H193.005V184.685Z" fill="#5574D8"/>
<path d="M198.783 187.551H195.838C195.661 187.551 195.519 187.409 195.519 187.232V185.004C195.519 184.827 195.661 184.685 195.838 184.685H198.808C198.911 184.685 198.994 184.768 198.994 184.871C198.994 184.974 198.911 185.058 198.808 185.058H195.882V187.188H198.778C198.881 187.188 198.965 187.272 198.965 187.375C198.965 187.478 198.881 187.561 198.778 187.561L198.783 187.551Z" fill="#5574D8"/>
<path d="M198.783 182.549H195.838C195.661 182.549 195.519 182.407 195.519 182.23V180.002C195.519 179.825 195.661 179.682 195.838 179.682H198.808C198.911 179.682 198.994 179.766 198.994 179.869C198.994 179.972 198.911 180.056 198.808 180.056H195.882V182.186H198.778C198.881 182.186 198.965 182.269 198.965 182.373C198.965 182.476 198.881 182.559 198.778 182.559L198.783 182.549Z" fill="#5574D8"/>
<path d="M162.467 185.814H156.684C156.502 185.814 156.355 185.667 156.355 185.485V183.271C156.355 183.089 156.502 182.942 156.684 182.942H162.467C162.648 182.942 162.796 183.089 162.796 183.271V185.485C162.796 185.667 162.648 185.814 162.467 185.814ZM156.723 185.446H162.423V183.315H156.723V185.446Z" fill="#5574D8"/>
<path d="M165.397 183.261H159.615C159.433 183.261 159.286 183.114 159.286 182.932V180.718C159.286 180.537 159.433 180.389 159.615 180.389H165.397C165.579 180.389 165.726 180.537 165.726 180.718V182.932C165.726 183.114 165.579 183.261 165.397 183.261ZM159.659 182.893H165.358V180.762H159.659V182.893Z" fill="#5574D8"/>
<path d="M165.343 188.312H159.561C159.379 188.312 159.232 188.165 159.232 187.984V185.77C159.232 185.588 159.379 185.441 159.561 185.441H165.343C165.525 185.441 165.672 185.588 165.672 185.77V187.984C165.672 188.165 165.525 188.312 165.343 188.312ZM159.605 187.944H165.304V185.814H159.605V187.944Z" fill="#5574D8"/>
<path d="M195.052 139.159H189.27C189.088 139.159 188.941 139.012 188.941 138.83V136.616C188.941 136.435 189.088 136.287 189.27 136.287H195.052C195.234 136.287 195.381 136.435 195.381 136.616V138.83C195.381 139.012 195.234 139.159 195.052 139.159ZM189.314 138.791H195.013V136.66H189.314V138.791Z" fill="#5574D8"/>
<path d="M192.122 141.712H186.339C186.157 141.712 186.01 141.565 186.01 141.383V139.169C186.01 138.987 186.157 138.84 186.339 138.84H192.122C192.303 138.84 192.451 138.987 192.451 139.169V141.383C192.451 141.565 192.303 141.712 192.122 141.712ZM186.378 141.344H192.078V139.213H186.378V141.344Z" fill="#5574D8"/>
<path d="M192.176 136.66H186.393C186.211 136.66 186.064 136.513 186.064 136.332V134.118C186.064 133.936 186.211 133.789 186.393 133.789H192.176C192.357 133.789 192.505 133.936 192.505 134.118V136.332C192.505 136.513 192.357 136.66 192.176 136.66ZM186.437 136.292H192.136V134.162H186.437V136.292Z" fill="#5574D8"/>
</g>
<path d="M200.428 190.561H106.082C105.296 190.561 104.659 191.198 104.659 191.984V195.691C104.659 196.477 105.296 197.114 106.082 197.114H200.428C201.214 197.114 201.851 196.477 201.851 195.691V191.984C201.851 191.198 201.214 190.561 200.428 190.561Z" fill="#7F97E2"/>
<path d="M201.414 194.797H105.096C104.854 194.797 104.659 194.993 104.659 195.234V196.677C104.659 196.919 104.854 197.114 105.096 197.114H201.414C201.656 197.114 201.851 196.919 201.851 196.677V195.234C201.851 194.993 201.656 194.797 201.414 194.797Z" fill="#5574D8"/>
<path d="M161.475 113.75H145.172V130.971H161.475V113.75Z" fill="#F4F8FE"/>
<path d="M145.172 130.971H128.875L130.691 113.75H145.172V130.971Z" fill="#5574D8"/>
<path d="M128.629 130.971H112.332L114.148 113.75H130.451L128.629 130.971Z" fill="#F4F8FE"/>
<path d="M112.616 130.971H96.3185L101.532 113.75H114.437L112.616 130.971Z" fill="#5574D8"/>
<path d="M112.361 131.069C112.361 133.764 108.733 135.949 104.261 135.949C99.7892 135.949 96.1614 133.764 96.1614 131.069" fill="#708CF5"/>
<path d="M128.59 131.069C128.59 133.764 124.962 135.949 120.49 135.949C116.018 135.949 112.39 133.764 112.39 131.069" fill="white"/>
<path d="M144.893 131.069C144.893 133.764 141.265 135.949 136.793 135.949C132.321 135.949 128.693 133.764 128.693 131.069" fill="#708CF5"/>
<path d="M161.333 130.971H177.635L175.819 113.75H161.333V130.971Z" fill="#5574D8"/>
<path d="M177.876 130.971H194.179L192.362 113.75H176.06L177.876 130.971Z" fill="#F4F8FE"/>
<path d="M193.889 130.971H210.192L204.978 113.75H192.073L193.889 130.971Z" fill="#5574D8"/>
<path d="M194.149 131.069C194.149 133.764 197.777 135.949 202.249 135.949C206.721 135.949 210.349 133.764 210.349 131.069" fill="#708CF5"/>
<path d="M177.915 131.069C177.915 133.764 181.543 135.949 186.015 135.949C190.487 135.949 194.115 133.764 194.115 131.069" fill="white"/>
<path d="M161.617 131.069C161.617 133.764 165.245 135.949 169.717 135.949C174.189 135.949 177.817 133.764 177.817 131.069" fill="#708CF5"/>
<path d="M161.122 131.069C161.122 133.764 157.494 135.949 153.022 135.949C148.55 135.949 144.922 133.764 144.922 131.069" fill="white"/>
<path d="M103.093 109.43H203.923C205.273 109.43 206.368 110.525 206.368 111.875V112.174C206.368 113.524 205.273 114.619 203.923 114.619H103.093C101.743 114.619 100.648 113.524 100.648 112.174V111.875C100.648 110.525 101.743 109.43 103.093 109.43Z" fill="#9BABE8"/>
<path d="M148.869 138.545H117.452C116.939 138.545 116.524 138.961 116.524 139.473V184.518C116.524 185.03 116.939 185.446 117.452 185.446H148.869C149.381 185.446 149.797 185.03 149.797 184.518V139.473C149.797 138.961 149.381 138.545 148.869 138.545Z" fill="#708CF5"/>
<path d="M146.621 141.466H120.014V156.669H146.621V141.466Z" fill="#F4F8FE"/>
<path opacity="0.35" d="M127.279 156.488C127.206 156.488 127.132 156.453 127.083 156.389C127 156.281 127.019 156.129 127.127 156.046L146.468 141.275C146.576 141.191 146.729 141.211 146.812 141.319C146.896 141.427 146.876 141.579 146.768 141.663L127.427 156.434C127.382 156.468 127.328 156.483 127.279 156.483V156.488Z" fill="#BBC7F9"/>
<path opacity="0.35" d="M119.847 156.488C119.778 156.488 119.705 156.458 119.656 156.399C119.572 156.296 119.587 156.139 119.69 156.056L137.76 141.28C137.863 141.196 138.02 141.211 138.104 141.314C138.187 141.417 138.172 141.574 138.069 141.658L119.999 156.434C119.955 156.473 119.896 156.488 119.842 156.488H119.847Z" fill="#BBC7F9"/>
<path d="M146.621 161.181H120.014V182.441H146.621V161.181Z" fill="#F4F8FE"/>
<path opacity="0.35" d="M127.279 182.083C127.22 182.083 127.157 182.063 127.112 182.019C127.014 181.926 127.009 181.774 127.103 181.671L146.444 161.014C146.537 160.916 146.689 160.911 146.792 161.004C146.891 161.097 146.895 161.249 146.802 161.352L127.461 182.009C127.412 182.063 127.348 182.088 127.279 182.088V182.083Z" fill="#BBC7F9"/>
<path opacity="0.35" d="M119.847 182.083C119.788 182.083 119.734 182.063 119.685 182.024C119.582 181.936 119.572 181.779 119.661 181.675L137.73 161.014C137.819 160.911 137.976 160.901 138.074 160.989C138.177 161.077 138.187 161.235 138.099 161.338L120.029 181.999C119.98 182.053 119.911 182.083 119.842 182.083H119.847Z" fill="#BBC7F9"/>
<path d="M152.629 185.382H113.711C113.169 185.382 112.729 185.821 112.729 186.364V189.446C112.729 189.989 113.169 190.428 113.711 190.428H152.629C153.171 190.428 153.611 189.989 153.611 189.446V186.364C153.611 185.821 153.171 185.382 152.629 185.382Z" fill="#5574D8"/>
<path d="M139.787 146.994H126.676C126.44 146.994 126.248 147.185 126.248 147.421V150.94C126.248 151.176 126.44 151.368 126.676 151.368H139.787C140.023 151.368 140.214 151.176 140.214 150.94V147.421C140.214 147.185 140.023 146.994 139.787 146.994Z" fill="#BBC7F9"/>
<path d="M191.066 143.184H157.523C156.851 143.184 156.306 143.729 156.306 144.402V175.004C156.306 175.677 156.851 176.222 157.523 176.222H191.066C191.739 176.222 192.284 175.677 192.284 175.004V144.402C192.284 143.729 191.739 143.184 191.066 143.184Z" fill="#708CF5"/>
<path d="M193.594 174.4H155.736C155.308 174.4 154.961 174.748 154.961 175.176V177.341C154.961 177.769 155.308 178.116 155.736 178.116H193.594C194.023 178.116 194.37 177.769 194.37 177.341V175.176C194.37 174.748 194.023 174.4 193.594 174.4Z" fill="#5574D8"/>
<path d="M189.819 146.591H158.77V171.578H189.819V146.591Z" fill="#F4F8FE"/>
<path opacity="0.35" d="M163.075 171.494C163.075 171.494 163.026 171.494 163.002 171.484C162.874 171.445 162.801 171.303 162.845 171.175L170.714 146.522C170.753 146.395 170.891 146.321 171.023 146.365C171.151 146.405 171.224 146.547 171.18 146.675L163.311 171.327C163.277 171.43 163.183 171.499 163.075 171.499V171.494Z" fill="#BBC7F9"/>
<path opacity="0.35" d="M168.839 171.494C168.839 171.494 168.789 171.494 168.765 171.484C168.637 171.445 168.564 171.303 168.608 171.175L176.477 146.522C176.516 146.395 176.654 146.321 176.786 146.365C176.914 146.405 176.987 146.547 176.943 146.675L169.074 171.327C169.04 171.43 168.947 171.499 168.839 171.499V171.494Z" fill="#BBC7F9"/>
<path d="M93.7217 156.763C93.4517 156.763 93.2308 156.542 93.2308 156.272V148.098C93.2308 144.029 89.5344 140.72 84.9936 140.72C80.4528 140.72 76.7564 144.029 76.7564 148.098V156.07C76.7564 156.34 76.5355 156.561 76.2655 156.561C75.9955 156.561 75.7746 156.34 75.7746 156.07V148.098C75.7746 143.489 79.9079 139.738 84.9936 139.738C90.0793 139.738 94.2126 143.489 94.2126 148.098V156.272C94.2126 156.542 93.9917 156.763 93.7217 156.763Z" fill="#5574D8"/>
<path d="M68.9511 153.194L64.8963 197.075L105.66 197.109L99.5781 152.968L68.9511 153.194Z" fill="#5574D8"/>
<path d="M56.7868 153.194L52.6436 197.104L93.5008 197.109L87.4186 152.968L56.7868 153.194Z" fill="#708CF5"/>
<path d="M81.7881 156.763C81.5181 156.763 81.2972 156.542 81.2972 156.272V148.098C81.2972 144.029 77.6007 140.72 73.06 140.72C68.5192 140.72 64.8227 144.029 64.8227 148.098V156.07C64.8227 156.34 64.6018 156.561 64.3318 156.561C64.0618 156.561 63.8409 156.34 63.8409 156.07V148.098C63.8409 143.489 67.9743 139.738 73.06 139.738C78.1456 139.738 82.279 143.489 82.279 148.098V156.272C82.279 156.542 82.0581 156.763 81.7881 156.763Z" fill="#5574D8"/>
<path d="M81.6752 169.192H65.3136C64.5576 169.192 63.9391 168.578 63.9391 167.818V163.1C63.9391 162.344 64.5527 161.726 65.3136 161.726H81.6752C82.4311 161.726 83.0497 162.339 83.0497 163.1V167.818C83.0497 168.574 82.4361 169.192 81.6752 169.192ZM65.3136 162.707C65.0976 162.707 64.9209 162.884 64.9209 163.1V167.818C64.9209 168.034 65.0976 168.21 65.3136 168.21H81.6752C81.8912 168.21 82.0679 168.034 82.0679 167.818V163.1C82.0679 162.884 81.8912 162.707 81.6752 162.707H65.3136Z" fill="#5574D8"/>
<path d="M54.3078 162.265C54.0378 162.265 53.8169 162.045 53.8169 161.775V154.804C53.8169 151.373 50.6997 148.584 46.8658 148.584C43.0319 148.584 39.9147 151.373 39.9147 154.804V161.598C39.9147 161.868 39.6938 162.089 39.4238 162.089C39.1539 162.089 38.933 161.868 38.933 161.598V154.804C38.933 150.833 42.4919 147.602 46.8658 147.602C51.2397 147.602 54.7987 150.833 54.7987 154.804V161.775C54.7987 162.045 54.5778 162.265 54.3078 162.265Z" fill="#481EEF"/>
<path d="M33.1846 159.664L29.7287 197.08L64.489 197.109L59.3002 159.472L33.1846 159.664Z" fill="#481EEF"/>
<path d="M22.8168 159.664L19.2775 197.109H54.1163L48.9325 159.472L22.8168 159.664Z" fill="#5D33FF"/>
<path d="M44.1315 162.265C43.8615 162.265 43.6406 162.045 43.6406 161.775V154.804C43.6406 151.373 40.5234 148.584 36.6896 148.584C32.8557 148.584 29.7385 151.373 29.7385 154.804V161.598C29.7385 161.868 29.5176 162.089 29.2476 162.089C28.9776 162.089 28.7567 161.868 28.7567 161.598V154.804C28.7567 150.833 32.3157 147.602 36.6896 147.602C41.0634 147.602 44.6224 150.833 44.6224 154.804V161.775C44.6224 162.045 44.4015 162.265 44.1315 162.265Z" fill="#481EEF"/>
<path d="M43.9057 173.379H30.2146C29.4586 173.379 28.8401 172.766 28.8401 172.005V168.24C28.8401 167.484 29.4537 166.865 30.2146 166.865H43.9057C44.6617 166.865 45.2802 167.479 45.2802 168.24V172.005C45.2802 172.761 44.6666 173.379 43.9057 173.379ZM30.2146 167.852C29.9986 167.852 29.8219 168.029 29.8219 168.245V172.01C29.8219 172.226 29.9986 172.402 30.2146 172.402H43.9057C44.1217 172.402 44.2984 172.226 44.2984 172.01V168.245C44.2984 168.029 44.1217 167.852 43.9057 167.852H30.2146Z" fill="#481EEF"/>
<path d="M241.928 156.763C241.658 156.763 241.437 156.542 241.437 156.272V148.098C241.437 144.029 237.741 140.72 233.2 140.72C228.659 140.72 224.963 144.029 224.963 148.098V156.07C224.963 156.34 224.742 156.561 224.472 156.561C224.202 156.561 223.981 156.34 223.981 156.07V148.098C223.981 143.489 228.114 139.738 233.2 139.738C238.286 139.738 242.419 143.489 242.419 148.098V156.272C242.419 156.542 242.198 156.763 241.928 156.763Z" fill="#5574D8"/>
<path d="M217.157 153.194L213.103 197.075L253.867 197.109L247.784 152.968L217.157 153.194Z" fill="#5574D8"/>
<path d="M204.993 153.194L200.845 197.104L241.702 197.109L235.625 152.968L204.993 153.194Z" fill="#708CF5"/>
<path d="M229.994 156.763C229.724 156.763 229.503 156.542 229.503 156.272V148.098C229.503 144.029 225.807 140.72 221.266 140.72C216.725 140.72 213.029 144.029 213.029 148.098V156.07C213.029 156.34 212.808 156.561 212.538 156.561C212.268 156.561 212.047 156.34 212.047 156.07V148.098C212.047 143.489 216.181 139.738 221.266 139.738C226.352 139.738 230.485 143.489 230.485 148.098V156.272C230.485 156.542 230.264 156.763 229.994 156.763Z" fill="#5574D8"/>
<path d="M229.882 169.192H213.52C212.764 169.192 212.145 168.578 212.145 167.818V163.1C212.145 162.344 212.759 161.726 213.52 161.726H229.882C230.637 161.726 231.256 162.339 231.256 163.1V167.818C231.256 168.574 230.642 169.192 229.882 169.192ZM213.52 162.707C213.304 162.707 213.127 162.884 213.127 163.1V167.818C213.127 168.034 213.304 168.21 213.52 168.21H229.882C230.097 168.21 230.274 168.034 230.274 167.818V163.1C230.274 162.884 230.097 162.707 229.882 162.707H213.52Z" fill="#5574D8"/>
<path d="M277.052 162.266C276.782 162.266 276.561 162.045 276.561 161.775V154.804C276.561 151.373 273.444 148.584 269.61 148.584C265.776 148.584 262.659 151.373 262.659 154.804V161.598C262.659 161.868 262.438 162.089 262.168 162.089C261.898 162.089 261.677 161.868 261.677 161.598V154.804C261.677 150.833 265.236 147.603 269.61 147.603C273.983 147.603 277.543 150.833 277.543 154.804V161.775C277.543 162.045 277.322 162.266 277.052 162.266Z" fill="#481EEF"/>
<path d="M255.928 159.664L252.468 197.08L287.228 197.109L282.044 159.472L255.928 159.664Z" fill="#481EEF"/>
<path d="M245.556 159.664L242.021 197.109H276.86L271.671 159.472L245.556 159.664Z" fill="#5D33FF"/>
<path d="M266.87 162.266C266.6 162.266 266.38 162.045 266.38 161.775V154.804C266.38 151.373 263.262 148.584 259.428 148.584C255.595 148.584 252.477 151.373 252.477 154.804V161.598C252.477 161.868 252.256 162.089 251.987 162.089C251.717 162.089 251.496 161.868 251.496 161.598V154.804C251.496 150.833 255.055 147.603 259.428 147.603C263.802 147.603 267.361 150.833 267.361 154.804V161.775C267.361 162.045 267.14 162.266 266.87 162.266Z" fill="#481EEF"/>
<path d="M266.65 173.379H252.958C252.202 173.379 251.584 172.766 251.584 172.005V168.24C251.584 167.484 252.198 166.865 252.958 166.865H266.65C267.405 166.865 268.024 167.479 268.024 168.24V172.005C268.024 172.761 267.41 173.379 266.65 173.379ZM252.958 167.852C252.742 167.852 252.566 168.029 252.566 168.245V172.01C252.566 172.226 252.742 172.403 252.958 172.403H266.65C266.865 172.403 267.042 172.226 267.042 172.01V168.245C267.042 168.029 266.865 167.852 266.65 167.852H252.958Z" fill="#481EEF"/>
</g>
<defs>
<clipPath id="clip0_855_6589">
<rect width="320" height="197.114" fill="white"/>
</clipPath>
</defs>
</svg>
