<svg width="24" height="24" viewBox="0 0 24 24" fill="none" xmlns="http://www.w3.org/2000/svg">
<g clip-path="url(#clip0_773_10933)">
<path fill-rule="evenodd" clip-rule="evenodd" d="M12 2C12.762 2 13.506 2.085 14.221 2.248C14.3516 2.27445 14.4756 2.32674 14.5857 2.4018C14.6959 2.47685 14.7899 2.57316 14.8622 2.68507C14.9346 2.79697 14.9839 2.92221 15.0072 3.05343C15.0304 3.18465 15.0273 3.3192 14.9978 3.44917C14.9683 3.57914 14.9132 3.70191 14.8356 3.81026C14.758 3.91862 14.6596 4.01038 14.546 4.08014C14.4325 4.1499 14.3061 4.19627 14.1744 4.21651C14.0427 4.23675 13.9083 4.23046 13.779 4.198C12.2364 3.84667 10.6242 3.96062 9.1464 4.52545C7.66855 5.09028 6.39136 6.08062 5.47631 7.37126C4.56126 8.6619 4.04944 10.1949 4.00556 11.7764C3.96168 13.3579 4.38771 14.9169 5.2298 16.2563C6.07188 17.5957 7.2922 18.6553 8.73645 19.3012C10.1807 19.9471 11.7841 20.1503 13.3438 19.885C14.9035 19.6198 16.3495 18.898 17.4991 17.811C18.6486 16.7239 19.45 15.3205 19.802 13.778C19.8291 13.648 19.8819 13.5247 19.9572 13.4153C20.0325 13.3059 20.1288 13.2126 20.2406 13.1408C20.3523 13.0691 20.4772 13.0203 20.6081 12.9973C20.7389 12.9744 20.8729 12.9777 21.0025 13.0071C21.132 13.0365 21.2543 13.0914 21.3624 13.1687C21.4704 13.2459 21.562 13.3439 21.6318 13.4569C21.7016 13.5699 21.7481 13.6956 21.7688 13.8268C21.7894 13.958 21.7837 14.092 21.752 14.221C20.742 18.675 16.76 22 12 22C6.477 22 2 17.523 2 12C2 6.477 6.477 2 12 2ZM15.949 13.184C15.9905 13.3086 16.0071 13.4402 15.9978 13.5712C15.9884 13.7023 15.9534 13.8302 15.8946 13.9476C15.8358 14.0651 15.7544 14.1699 15.6552 14.2559C15.5559 14.3419 15.4406 14.4075 15.316 14.449C14.907 14.585 14.463 14.775 14.003 15.006C13.76 15.127 13.523 15.255 13.293 15.384L12.959 15.58C12.765 15.696 12.626 15.785 12.555 15.832C12.4457 15.9049 12.3232 15.9555 12.1944 15.9811C12.0655 16.0066 11.9329 16.0065 11.8041 15.9808C11.6753 15.955 11.5529 15.9042 11.4437 15.8311C11.3346 15.7581 11.2409 15.6643 11.168 15.555C11.0208 15.3343 10.9673 15.0642 11.0192 14.8041C11.0712 14.544 11.2243 14.3152 11.445 14.168L11.803 13.942L11.93 13.865C12.298 13.645 12.695 13.424 13.108 13.217C13.648 12.947 14.176 12.721 14.684 12.551C14.8086 12.5095 14.9402 12.4929 15.0712 12.5022C15.2023 12.5116 15.3302 12.5466 15.4476 12.6054C15.5651 12.6642 15.6699 12.7456 15.7559 12.8448C15.8419 12.9441 15.9075 13.0594 15.949 13.184ZM9.5 9C9.89782 9 10.2794 9.15804 10.5607 9.43934C10.842 9.72064 11 10.1022 11 10.5C11 10.8978 10.842 11.2794 10.5607 11.5607C10.2794 11.842 9.89782 12 9.5 12C9.10218 12 8.72064 11.842 8.43934 11.5607C8.15804 11.2794 8 10.8978 8 10.5C8 10.1022 8.15804 9.72064 8.43934 9.43934C8.72064 9.15804 9.10218 9 9.5 9ZM14.5 7C14.8978 7 15.2794 7.15804 15.5607 7.43934C15.842 7.72064 16 8.10218 16 8.5C16 8.89782 15.842 9.27936 15.5607 9.56066C15.2794 9.84196 14.8978 10 14.5 10C14.1022 10 13.7206 9.84196 13.4393 9.56066C13.158 9.27936 13 8.89782 13 8.5C13 8.10218 13.158 7.72064 13.4393 7.43934C13.7206 7.15804 14.1022 7 14.5 7ZM19.5 8C19.7652 8 20.0196 8.10536 20.2071 8.29289C20.3946 8.48043 20.5 8.73478 20.5 9C20.5 9.26522 20.3946 9.51957 20.2071 9.70711C20.0196 9.89464 19.7652 10 19.5 10C19.2348 10 18.9804 9.89464 18.7929 9.70711C18.6054 9.51957 18.5 9.26522 18.5 9C18.5 8.73478 18.6054 8.48043 18.7929 8.29289C18.9804 8.10536 19.2348 8 19.5 8ZM19.5 2C20.0196 2.00017 20.5262 2.16224 20.9494 2.46366C21.3727 2.76508 21.6915 3.19088 21.8615 3.68186C22.0315 4.17284 22.0444 4.7046 21.8982 5.20321C21.7521 5.70183 21.4542 6.14251 21.046 6.464L20.478 6.934C20.151 7.196 19.812 7.422 19.5 7.422C18.875 7.422 18.64 6.932 18.64 6.578C18.64 6.224 18.851 5.844 19.025 5.63C19.279 5.317 19.59 5.066 19.809 4.893C19.8756 4.84062 19.9279 4.77217 19.9608 4.69407C19.9937 4.61597 20.0062 4.53078 19.9971 4.44652C19.9881 4.36225 19.9578 4.28167 19.909 4.21234C19.8603 4.143 19.7947 4.0872 19.7185 4.05017C19.6422 4.01314 19.5578 3.99609 19.4732 4.00063C19.3886 4.00517 19.3065 4.03114 19.2347 4.07612C19.1628 4.12109 19.1036 4.18359 19.0626 4.25774C19.0215 4.33188 19 4.41525 19 4.5C19 4.76522 18.8946 5.01957 18.7071 5.20711C18.5196 5.39464 18.2652 5.5 18 5.5C17.7348 5.5 17.4804 5.39464 17.2929 5.20711C17.1054 5.01957 17 4.76522 17 4.5C17 3.83696 17.2634 3.20107 17.7322 2.73223C18.2011 2.26339 18.837 2 19.5 2Z" fill="#202020"/>
</g>
<defs>
<clipPath id="clip0_773_10933">
<rect width="24" height="24" fill="white"/>
</clipPath>
</defs>
</svg>
