<svg width="24" height="24" viewBox="0 0 24 24" fill="none" xmlns="http://www.w3.org/2000/svg">
<g clip-path="url(#clip0_658_4779)">
<path d="M12 2C17.523 2 22 6.477 22 12C22 17.523 17.523 22 12 22C6.477 22 2 17.523 2 12C2 6.477 6.477 2 12 2ZM12 4C9.87827 4 7.84344 4.84285 6.34315 6.34315C4.84285 7.84344 4 9.87827 4 12C4 14.1217 4.84285 16.1566 6.34315 17.6569C7.84344 19.1571 9.87827 20 12 20C14.1217 20 16.1566 19.1571 17.6569 17.6569C19.1571 16.1566 20 14.1217 20 12C20 9.87827 19.1571 7.84344 17.6569 6.34315C16.1566 4.84285 14.1217 4 12 4ZM9.879 8.464L12 10.586L14.121 8.464C14.2139 8.37109 14.3242 8.29739 14.4456 8.24711C14.567 8.19682 14.6971 8.17094 14.8285 8.17094C14.9599 8.17094 15.09 8.19682 15.2114 8.24711C15.3328 8.29739 15.4431 8.37109 15.536 8.464C15.6289 8.55691 15.7026 8.66721 15.7529 8.7886C15.8032 8.91 15.8291 9.04011 15.8291 9.1715C15.8291 9.3029 15.8032 9.433 15.7529 9.5544C15.7026 9.67579 15.6289 9.78609 15.536 9.879L13.414 11.999L15.536 14.121C15.7236 14.3086 15.8291 14.5631 15.8291 14.8285C15.8291 15.0939 15.7236 15.3484 15.536 15.536C15.3484 15.7236 15.0939 15.8291 14.8285 15.8291C14.5631 15.8291 14.3086 15.7236 14.121 15.536L12 13.414L9.879 15.536C9.69136 15.7236 9.43686 15.8291 9.1715 15.8291C8.90614 15.8291 8.65164 15.7236 8.464 15.536C8.27636 15.3484 8.17094 15.0939 8.17094 14.8285C8.17094 14.5631 8.27636 14.3086 8.464 14.121L10.586 12L8.465 9.879C8.27736 9.69149 8.17189 9.43712 8.1718 9.17185C8.1717 8.90658 8.27699 8.65214 8.4645 8.4645C8.65201 8.27686 8.90638 8.17139 9.17165 8.1713C9.43692 8.1712 9.69136 8.27649 9.879 8.464Z" fill="#202020"/>
</g>
<defs>
<clipPath id="clip0_658_4779">
<rect width="24" height="24" fill="white"/>
</clipPath>
</defs>
</svg>
