<svg width="82" height="30" viewBox="0 0 82 30" fill="none" xmlns="http://www.w3.org/2000/svg">
<g clip-path="url(#clip0_717_3462)">
<path d="M59.3176 12.6199H62.0576C62.0576 10.6599 62.8576 9.67985 64.1176 9.67985C65.3776 9.67985 66.1576 10.5999 66.1576 11.6999C66.1576 12.7999 65.5376 13.4999 65.1176 13.9399C64.7176 14.3799 60.4976 18.8599 60.1576 19.2199C59.8176 19.5799 59.3176 20.0199 59.3176 20.9799C59.3176 21.9399 59.8776 22.7999 61.0176 22.7999C61.0176 22.7999 67.0776 22.7999 67.6776 22.7999C68.2776 22.7999 69.2176 22.3599 69.2176 21.0599V20.0799H63.1576C63.1576 20.0799 67.5976 15.3399 68.1176 14.7999C69.1176 13.7999 69.2176 12.6399 69.2176 11.6999C69.2176 8.91985 67.1576 7.09985 64.2176 7.09985C61.2776 7.09985 59.3176 8.79985 59.3176 12.6199Z" fill="#FFB81C"/>
<path d="M69.1977 16.8999L75.7977 7.81985C76.1177 7.37985 76.6177 7.09985 77.1977 7.09985C78.1577 7.09985 78.9177 7.87985 78.9177 8.81985C78.9177 8.81985 78.9177 13.2999 78.9177 16.9399H81.4777V17.8199C81.4777 18.9799 80.6177 19.3799 80.0777 19.3799C79.9777 19.3799 79.5377 19.3799 78.9177 19.3799C78.9177 20.5199 78.9177 21.3399 78.9177 21.4799C78.9177 22.0599 78.4777 22.9999 77.2177 22.9999H76.2577V19.3799C73.5577 19.3799 70.4377 19.3799 70.4377 19.3799C69.5777 19.3799 68.8777 18.6799 68.8777 17.8199C68.8977 17.4799 68.9977 17.1599 69.1977 16.8999ZM72.0577 16.9399H76.2577V11.1599L72.0577 16.9399Z" fill="#FFB81C"/>
<path d="M56.718 22.6796C56.538 22.7396 55.558 22.9996 54.518 22.9996C52.198 22.9996 50.978 21.9996 50.978 19.8996V7.2196H52.278C53.638 7.2196 54.078 7.9996 54.078 9.0996V10.0596H56.718V10.7996C56.718 11.8596 55.978 12.4596 54.898 12.4596H54.078V19.3396C54.078 20.0996 54.338 20.6396 55.398 20.6396C56.038 20.6396 56.618 20.4596 56.718 20.4196C56.718 20.6996 56.718 22.6796 56.718 22.6796ZM48.678 12.1196C49.338 12.1196 50.018 12.3196 50.098 12.3396V10.0596C49.998 10.0396 48.718 9.7596 47.518 9.7596C45.478 9.7596 44.038 10.5996 44.038 12.8196V22.6796H47.138V13.4396C47.138 12.6196 47.638 12.1196 48.678 12.1196ZM30.938 13.3596C30.938 12.0996 30.218 9.7996 26.098 9.7996C23.978 9.7996 23.138 10.3596 22.838 10.5596C22.518 10.3796 21.538 9.7996 19.558 9.7996C15.738 9.7996 14.718 11.6996 14.718 13.2796V22.7196H17.838C17.838 22.7196 17.838 13.8396 17.838 13.4796C17.838 12.9396 18.138 12.1396 19.558 12.1396C20.678 12.1396 21.278 12.6996 21.278 13.4796C21.278 13.7196 21.278 22.7196 21.278 22.7196H24.398C24.398 22.7196 24.398 14.0396 24.398 13.4796C24.398 12.6996 24.998 12.1396 26.118 12.1396C27.338 12.1396 27.858 12.7596 27.858 13.4796C27.858 14.0196 27.858 20.5596 27.858 20.5996C27.858 21.9996 28.678 22.7796 29.958 22.7796C30.858 22.7796 30.978 22.7796 30.978 22.7796V13.3596H30.938ZM37.538 9.7796C41.438 9.7796 42.838 11.6196 42.838 14.0796V18.0796C42.838 20.8796 41.038 22.9996 37.318 22.9996C33.758 22.9996 31.798 21.3196 31.798 19.0596C31.798 17.2596 33.018 16.0796 35.678 15.3396C36.058 15.2396 37.358 14.8396 37.938 14.6796C39.278 14.2796 39.718 13.9796 39.718 13.3996C39.718 12.7796 38.978 12.1196 37.458 12.1196C35.638 12.1196 35.078 13.2396 35.058 14.0396H32.238C32.238 11.5596 33.718 9.7796 37.538 9.7796ZM37.078 20.6396C38.278 20.6396 39.738 19.8796 39.738 17.9596V16.4396C39.738 16.4396 37.378 17.1196 36.718 17.3196C35.538 17.6796 34.978 18.2796 34.978 19.0596C34.958 19.8596 35.618 20.6396 37.078 20.6396Z" fill="#63666A"/>
<path d="M6.91779 23C2.61779 23 0.737793 20.36 0.737793 17.02V13.42C0.737793 8.8 3.81779 7 7.43779 7C11.8178 7 13.7378 9.38 13.7378 11.76C13.7378 15.24 10.1778 16.08 8.61779 16.54C8.15779 16.68 6.49779 17.16 6.11779 17.28C4.65779 17.7 4.23779 18.18 4.23779 18.72C4.23779 19.64 5.03779 20.44 6.91779 20.44C8.55779 20.44 9.75779 19.88 9.95779 18.18H13.3778C13.0178 20.86 11.3978 23 6.91779 23ZM7.29779 9.58C5.39779 9.58 4.15779 10.86 4.15779 13.02V15.3C4.15779 15.3 6.73779 14.54 7.79779 14.22C8.69779 13.94 10.2978 13.38 10.2978 11.96C10.3178 10.72 9.29779 9.58 7.29779 9.58Z" fill="#FFB81C"/>
</g>
<defs>
<clipPath id="clip0_717_3462">
<rect width="80.8" height="16" fill="white" transform="translate(0.737793 7)"/>
</clipPath>
</defs>
</svg>
