<svg width="24" height="24" viewBox="0 0 24 24" fill="none" xmlns="http://www.w3.org/2000/svg">
<g clip-path="url(#clip0_773_10928)">
<path fill-rule="evenodd" clip-rule="evenodd" d="M17.5528 16.106C17.7718 15.9964 18.0234 15.9711 18.2599 16.0346C18.4964 16.0982 18.7013 16.2464 18.8358 16.451L18.8938 16.553L20.8938 20.553C20.9652 20.6956 21.0014 20.8533 20.9994 21.0128C20.9974 21.1723 20.9574 21.329 20.8825 21.4698C20.8076 21.6106 20.7001 21.7315 20.569 21.8224C20.4379 21.9132 20.287 21.9714 20.1288 21.992L19.9998 22H3.99983C3.8403 22.0001 3.68308 21.9619 3.54128 21.8888C3.39949 21.8157 3.27724 21.7098 3.18474 21.5798C3.09225 21.4498 3.0322 21.2996 3.0096 21.1417C2.987 20.9837 3.00251 20.8227 3.05483 20.672L3.10483 20.552L5.10483 16.552C5.21693 16.3203 5.41406 16.1407 5.65519 16.0507C5.89632 15.9606 6.16289 15.967 6.39942 16.0686C6.63595 16.1701 6.82423 16.3589 6.92508 16.5957C7.02592 16.8325 7.03157 17.0991 6.94083 17.34L6.89383 17.447L5.61783 20H18.3818L17.1058 17.447C16.9874 17.2099 16.968 16.9354 17.0518 16.684C17.1356 16.4325 17.3158 16.2246 17.5528 16.106ZM11.9998 2C13.8563 2 15.6368 2.7375 16.9496 4.05025C18.2623 5.36301 18.9998 7.14348 18.9998 9C18.9998 11.382 17.7108 13.317 16.3768 14.69C15.6399 15.4384 14.8299 16.1111 13.9588 16.698L13.5858 16.944L13.2538 17.153C13.2018 17.184 13.1518 17.213 13.1048 17.243L12.8478 17.391C12.3198 17.691 11.6798 17.691 11.1518 17.391L10.8948 17.242L10.5848 17.053C10.5276 17.017 10.4706 16.9807 10.4138 16.944L10.0408 16.698C9.16978 16.1111 8.35973 15.4384 7.62283 14.69C6.28883 13.317 4.99983 11.382 4.99983 9C4.99983 7.14348 5.73733 5.36301 7.05009 4.05025C8.36284 2.7375 10.1433 2 11.9998 2ZM11.9998 4C10.6738 4 9.40198 4.52678 8.4643 5.46447C7.52662 6.40215 6.99983 7.67392 6.99983 9C6.99983 10.636 7.88983 12.095 9.05683 13.296C9.75835 14.0055 10.5341 14.6375 11.3708 15.181L11.7108 15.398C11.8158 15.463 11.9128 15.521 11.9998 15.572L12.2898 15.398L12.6288 15.181C13.4655 14.6375 14.2413 14.0055 14.9428 13.296C16.1098 12.096 16.9998 10.636 16.9998 9C16.9998 7.67392 16.4731 6.40215 15.5354 5.46447C14.5977 4.52678 13.3259 4 11.9998 4ZM11.9998 6C12.7955 6 13.5585 6.31607 14.1212 6.87868C14.6838 7.44129 14.9998 8.20435 14.9998 9C14.9998 9.79565 14.6838 10.5587 14.1212 11.1213C13.5585 11.6839 12.7955 12 11.9998 12C11.2042 12 10.4411 11.6839 9.87851 11.1213C9.3159 10.5587 8.99983 9.79565 8.99983 9C8.99983 8.20435 9.3159 7.44129 9.87851 6.87868C10.4411 6.31607 11.2042 6 11.9998 6ZM11.9998 8C11.7346 8 11.4803 8.10536 11.2927 8.29289C11.1052 8.48043 10.9998 8.73478 10.9998 9C10.9998 9.26522 11.1052 9.51957 11.2927 9.70711C11.4803 9.89464 11.7346 10 11.9998 10C12.2651 10 12.5194 9.89464 12.7069 9.70711C12.8945 9.51957 12.9998 9.26522 12.9998 9C12.9998 8.73478 12.8945 8.48043 12.7069 8.29289C12.5194 8.10536 12.2651 8 11.9998 8Z" fill="#202020"/>
</g>
<defs>
<clipPath id="clip0_773_10928">
<rect width="24" height="24" fill="white"/>
</clipPath>
</defs>
</svg>
