<svg width="24" height="24" viewBox="0 0 24 24" fill="none" xmlns="http://www.w3.org/2000/svg">
<g clip-path="url(#clip0_658_4846)">
<path fill-rule="evenodd" clip-rule="evenodd" d="M8.29279 12.7071C8.10532 12.5196 8 12.2653 8 12.0001C8 11.7349 8.10532 11.4806 8.29279 11.2931L13.9498 5.6361C14.042 5.54059 14.1524 5.46441 14.2744 5.412C14.3964 5.35959 14.5276 5.332 14.6604 5.33085C14.7932 5.32969 14.9248 5.355 15.0477 5.40528C15.1706 5.45556 15.2823 5.52981 15.3762 5.6237C15.4701 5.7176 15.5443 5.82925 15.5946 5.95214C15.6449 6.07504 15.6702 6.20672 15.669 6.3395C15.6679 6.47228 15.6403 6.6035 15.5879 6.7255C15.5355 6.84751 15.4593 6.95785 15.3638 7.0501L10.4138 12.0001L15.3638 16.9501C15.5459 17.1387 15.6467 17.3913 15.6445 17.6535C15.6422 17.9157 15.537 18.1665 15.3516 18.3519C15.1662 18.5373 14.9154 18.6425 14.6532 18.6448C14.391 18.6471 14.1384 18.5463 13.9498 18.3641L8.29279 12.7071Z" fill="#202020"/>
</g>
<defs>
<clipPath id="clip0_658_4846">
<rect width="24" height="24" fill="white"/>
</clipPath>
</defs>
</svg>
