<svg width="39" height="20" viewBox="0 0 39 20" fill="none" xmlns="http://www.w3.org/2000/svg">
<path d="M2.23994 8.62285C2.15766 8.62285 2.0548 8.62285 1.93137 8.62285C1.80794 8.62285 1.70508 8.64342 1.66394 8.64342C1.6228 8.64342 1.58166 8.66399 1.56108 8.66399L0.758798 8.78742L0.614798 10.0628C0.573655 10.3714 0.594226 10.6183 0.635369 10.7828C0.676512 10.9474 0.758798 11.0708 0.923369 11.1531C1.06737 11.2354 1.21137 11.2971 1.35537 11.3177C1.49937 11.3383 1.74623 11.3588 2.07537 11.3588H2.30166C4.31766 11.4823 6.00451 11.5028 7.40337 11.4617C7.5268 11.4617 7.75308 11.4617 8.04108 11.4617C8.32908 11.4823 8.59651 11.4823 8.8228 11.4617C9.02851 11.4617 9.2548 11.4206 9.46051 11.3383C9.78965 11.256 9.99537 10.968 10.0777 10.5154C10.0982 10.4331 10.0982 10.3097 10.0982 10.1657C10.0777 10.0217 10.0777 9.89828 10.0777 9.79542C10.0777 9.11656 10.0571 8.70513 9.9748 8.56113C9.89251 8.41713 9.60451 8.35542 9.13137 8.37599H8.28794C8.1028 8.37599 7.97937 8.33485 7.89708 8.21142C7.8148 8.08799 7.79423 7.84113 7.8148 7.4297C7.83537 6.29827 8.2468 5.74285 9.04908 5.74285C9.21365 5.74285 9.37823 5.74285 9.50165 5.7017C9.62508 5.66056 9.70737 5.61942 9.76908 5.57827C9.81023 5.53713 9.85137 5.49599 9.89251 5.43427C9.91308 5.39313 9.93366 5.35199 9.93366 5.33142V5.2697L10.0777 3.85027C10.1188 3.41828 9.91308 3.17142 9.48108 3.13028C9.27537 3.1097 9.00794 3.08913 8.65823 3.06856C8.28794 3.04799 8.04108 3.02742 7.89708 3.00685C7.46508 2.9657 6.70394 2.90399 5.61366 2.80113C4.52337 2.71885 3.72108 2.63656 3.22737 2.57485C3.0628 2.57485 2.85708 2.55428 2.61023 2.5337C2.36337 2.5337 2.11651 2.51313 1.9108 2.49256C1.70508 2.47199 1.49937 2.43085 1.3348 2.3897C0.738226 2.30742 0.450226 2.55428 0.450226 3.13028C0.450226 3.33599 0.429655 3.62399 0.388512 3.99428C0.347369 4.36456 0.306227 4.63199 0.306227 4.79656C0.285655 5.1257 0.244512 5.37256 0.203369 5.49599C1.27308 5.61942 1.86966 5.68113 1.99308 5.68113C2.03423 5.68113 2.07537 5.7017 2.11651 5.7017C2.13708 5.7017 2.15766 5.72227 2.17823 5.72227C2.1988 5.72227 2.21937 5.74285 2.21937 5.76342C2.21937 5.80456 2.23994 5.82513 2.23994 5.8457V5.94856V6.09256V8.62285ZM6.33366 6.25713C6.25137 7.2857 6.18966 7.8617 6.18966 7.94399C6.14851 8.10856 6.0868 8.25256 5.98394 8.33485C5.86051 8.41713 5.75766 8.47885 5.63423 8.47885C5.5108 8.49942 5.3668 8.49942 5.20223 8.49942C4.7908 8.47885 4.58508 8.23199 4.58508 7.77942C4.56451 7.7177 4.56451 7.51199 4.56451 7.16227C4.56451 6.83313 4.56451 6.62742 4.56451 6.54513C4.56451 6.23656 4.70851 6.09256 5.03766 6.11313C5.09937 6.11313 5.53137 6.17485 6.33366 6.25713ZM14.8502 10.3508C14.8502 10.4537 14.8708 10.5566 14.8708 10.6388C14.8708 10.8034 14.8502 11.0914 14.8502 11.4823C14.8502 11.8731 14.8502 12.1406 14.8708 12.3051C14.8708 12.4286 14.8914 12.5314 14.9119 12.5931C14.9119 12.696 14.9325 12.7783 14.9737 12.8194C15.0148 12.8811 15.0559 12.9223 15.1382 12.9428C15.1999 12.9634 15.2822 12.9634 15.3645 12.9428C15.4468 12.9428 15.5497 12.9223 15.6731 12.8811L15.9817 12.8194C16.1462 12.7988 16.2285 12.7783 16.2697 12.7577C16.3108 12.7577 16.4342 12.696 16.6399 12.5726C16.6605 12.5726 16.7017 12.552 16.7428 12.5108C16.7839 12.4903 16.8457 12.4697 16.8868 12.4491L16.9897 12.3874C17.0719 12.3257 17.1542 12.2434 17.1954 12.1611C17.2365 12.0788 17.2571 11.976 17.2777 11.8526C17.2777 11.8114 17.2982 11.7086 17.2982 11.5646C17.2982 11.4206 17.2982 11.3177 17.3188 11.2354C17.3188 11.1943 17.3394 11.0914 17.4011 10.9268C17.4217 10.8034 17.4422 10.7006 17.4422 10.6183V10.3303C17.4217 10.2068 17.4217 10.1246 17.4422 10.0423C17.4422 10.0423 17.4628 9.91885 17.5039 9.69256C17.5245 9.5897 17.5451 9.4457 17.5657 9.26056C17.5657 9.21942 17.5657 9.13713 17.5657 9.03428C17.5657 8.95199 17.5862 8.8697 17.5862 8.82856C17.5862 8.80799 17.6068 8.7257 17.6068 8.60228C17.6068 8.47885 17.6274 8.39656 17.6274 8.31428C17.6274 8.23199 17.6685 8.0057 17.7097 7.67656C17.7302 7.47085 17.7508 7.24456 17.7919 6.97713C17.8125 6.64799 17.8331 6.38056 17.8331 6.17485C17.8331 6.01027 17.8125 5.8457 17.8125 5.66056C17.8125 5.61942 17.7919 5.43427 17.7714 5.14627C17.7302 4.9817 17.7097 4.81713 17.7097 4.63199C17.6891 4.30285 17.6685 3.9737 17.6685 3.64456C17.6479 3.00685 17.6274 2.59542 17.6274 2.3897C17.6068 2.26628 17.5862 2.1017 17.5862 1.87542C17.5862 1.64913 17.5862 1.48456 17.5862 1.40227C17.5657 1.2377 17.5245 1.11427 17.4834 1.01142C17.4217 0.90856 17.3394 0.826274 17.2571 0.74399C17.1748 0.702846 17.0308 0.661704 16.8662 0.62056C16.8045 0.62056 16.7634 0.599989 16.7428 0.599989C16.7222 0.599989 16.7017 0.579418 16.6811 0.579418C16.6399 0.579418 16.6194 0.558847 16.5988 0.558847C16.5577 0.558847 16.5165 0.538274 16.4754 0.538274C16.3314 0.538274 16.2079 0.517703 16.1051 0.476561C15.9611 0.455988 15.8377 0.455988 15.7554 0.476561C15.6937 0.497132 15.6319 0.517703 15.5908 0.558847C15.5497 0.599989 15.5085 0.641131 15.4674 0.682275C15.4057 0.764561 15.3439 0.887989 15.2822 1.03199C15.1999 1.17599 15.1588 1.29942 15.1177 1.40227C15.0559 1.54627 15.0148 1.69027 14.9942 1.8137C14.9531 1.93713 14.9325 2.08113 14.9325 2.22513C14.9119 2.34856 14.9119 2.49256 14.9119 2.65713C14.9119 2.69827 14.8914 2.90399 14.8914 3.31542C14.6857 3.35656 14.4594 3.37713 14.2537 3.37713C14.1508 3.37713 13.9657 3.3977 13.6777 3.3977C13.3897 3.41828 13.1839 3.41828 13.0605 3.41828C12.7108 3.45942 12.5051 3.47999 12.4228 3.50056C12.3817 3.52113 12.3405 3.5417 12.3199 3.5417C12.2788 3.58285 12.2377 3.60342 12.2171 3.62399C12.1759 3.66513 12.1554 3.6857 12.1554 3.72685C12.1142 3.80913 12.0731 3.93256 12.0525 4.05599C12.0114 4.17942 12.0114 4.28228 12.0114 4.38513C11.9908 4.59085 12.0114 4.79656 12.0525 5.04342C12.0937 5.33142 12.1554 5.5577 12.2377 5.68113C12.2582 5.72227 12.2788 5.76342 12.3199 5.78399C12.3405 5.82513 12.3817 5.86627 12.4228 5.88685C12.4639 5.90742 12.5051 5.90742 12.5462 5.90742C12.5874 5.92799 12.6902 5.92799 12.8137 5.90742C12.8342 5.90742 12.8754 5.90742 12.9371 5.88685C12.9988 5.88685 13.0399 5.86627 13.0811 5.86627C13.1634 5.86627 13.5337 5.82513 14.1919 5.78399C14.2948 5.78399 14.4799 5.76342 14.7268 5.72227C14.7474 5.72227 14.7679 5.72227 14.8091 5.7017H14.8914C14.9119 5.7017 14.9325 5.7017 14.9737 5.68113V5.94856V6.21599V6.52456V6.83313C14.9737 7.1417 14.9531 7.30627 14.9531 7.34742C14.9531 7.38856 14.9531 7.40913 14.9531 7.4297C14.9119 7.47085 14.8914 7.49142 14.8914 7.51199C14.8502 7.55313 14.8297 7.5737 14.8091 7.5737C14.7474 7.61485 14.6651 7.63542 14.5417 7.63542C14.4799 7.65599 14.3771 7.65599 14.2537 7.65599C14.1302 7.67656 13.9245 7.69713 13.6777 7.7177C13.4308 7.73827 13.2457 7.75885 13.1222 7.75885C12.8754 7.77942 12.6902 7.79999 12.5668 7.84113C12.4228 7.88227 12.3199 7.94399 12.2377 7.98513C12.1348 8.06742 12.0731 8.1497 12.0319 8.25256C11.9908 8.35542 11.9908 8.47885 12.0114 8.62285C12.0114 8.70513 12.0319 8.82856 12.0731 8.99313C12.0731 9.09599 12.0937 9.21942 12.1348 9.34285C12.1554 9.50742 12.1759 9.63085 12.2171 9.69256C12.2171 9.79542 12.2582 9.8777 12.2994 9.93942C12.3405 10.0217 12.3817 10.0834 12.4639 10.1246C12.5257 10.1657 12.6079 10.2068 12.7108 10.2274C12.8342 10.2686 12.9988 10.2891 13.2251 10.2891H13.7805H14.3154C14.5005 10.3097 14.6857 10.3303 14.8502 10.3508ZM7.97937 15.8846L5.44908 16.0286C5.38737 15.8228 5.34623 15.5966 5.32566 15.3291C5.28451 15.0617 5.26394 14.8766 5.26394 14.7943C5.14051 14.1771 5.09937 13.7657 5.09937 13.5394C5.09937 13.4777 5.05823 13.3337 5.01708 13.128C4.97594 12.9223 4.95537 12.7783 4.95537 12.7166C4.95537 12.5726 4.87308 12.4697 4.70851 12.408C4.54394 12.3668 4.17365 12.3257 3.57708 12.3257C3.0628 12.3257 2.73366 12.3463 2.58966 12.3668C2.52794 12.3874 2.40451 12.4286 2.21937 12.4697C2.03423 12.5108 1.93137 12.5314 1.89023 12.5314L1.9108 12.8194C1.9108 13.0251 1.9108 13.2103 1.9108 13.416L1.93137 13.704C1.95194 14.136 1.99308 14.8971 2.03423 16.008C2.07537 17.1188 2.11651 17.9623 2.17823 18.5588C2.17823 18.6823 2.1988 18.7851 2.28108 18.9086C2.36337 19.032 2.44566 19.1348 2.54851 19.176C2.83651 19.3611 3.22737 19.4434 3.70051 19.4434C3.84451 19.4434 4.0708 19.4434 4.3588 19.4228C4.6468 19.4023 4.87308 19.3817 4.99651 19.3817C5.5108 19.3611 6.33366 19.3406 7.46508 19.32C8.59651 19.2994 9.33708 19.2788 9.6868 19.2788C9.76908 19.2788 9.8308 19.2788 9.91308 19.2583C10.2217 19.2171 11.1885 19.1554 12.8342 19.0731C14.4799 18.9908 15.4468 18.9291 15.7348 18.888C16.0228 18.8468 16.2079 18.744 16.2902 18.6C16.5371 18.1063 16.6605 17.6331 16.6605 17.16C16.6605 16.7486 16.6399 16.4606 16.6194 16.3166C16.4959 15.6583 16.2902 15.3086 16.0228 15.3086C15.8171 15.3086 15.5291 15.3291 15.1999 15.3703C14.8708 15.4114 14.4594 15.4526 13.9657 15.4937C13.4719 15.5348 13.0605 15.576 12.7108 15.5966C12.3611 15.6377 10.7771 15.72 7.97937 15.8846ZM38.0342 5.47542C38.0342 4.94056 38.0548 4.30285 38.0959 3.52113C38.1371 2.75999 38.1782 2.36913 38.2194 2.36913C38.1782 2.30742 38.1577 2.20456 38.1371 2.06056C38.0959 1.93713 38.0754 1.8137 38.0342 1.69027C37.9931 1.58742 37.9519 1.48456 37.8902 1.40227C37.4788 0.90856 36.7999 0.661704 35.8331 0.682275C35.5245 0.702846 35.3188 0.74399 35.2159 0.826274C35.0925 0.90856 35.0514 1.05256 35.0719 1.29942C35.0719 1.62856 35.0719 2.08113 35.0925 2.6777C35.1131 3.27427 35.1337 3.6857 35.1542 3.89142C35.1542 4.15885 35.0925 4.32342 35.0102 4.4057C34.9074 4.48799 34.7017 4.5497 34.3725 4.57028H33.9405L33.3439 4.05599L33.4262 2.16342L33.4468 1.93713C33.4468 1.79313 33.4057 1.62856 33.3234 1.44342C33.2205 1.25827 33.0765 1.13485 32.8708 1.0937C32.7474 1.07313 32.5622 1.05256 32.3359 1.03199L31.0605 1.13485L30.8342 2.01942L30.9371 6.1337C30.9782 7.1417 31.0605 8.51999 31.2045 10.248C31.2045 10.4331 31.3074 10.5771 31.5131 10.68C31.7188 10.824 32.1097 10.8651 32.6651 10.8034L33.8171 10.4331C33.9405 10.392 34.0228 10.3097 34.0639 10.1863C34.1462 9.83656 34.1668 9.56913 34.1462 9.36342C34.1051 9.03428 34.0639 8.54056 33.9817 7.88227C33.8994 7.24456 33.8377 6.79199 33.8171 6.52456C33.7965 6.35999 33.8377 6.23656 33.9611 6.15428C34.1874 6.03085 34.4137 6.01027 34.6194 6.09256C34.8251 6.17485 34.9485 6.33942 34.9691 6.5657C34.9691 6.7097 34.9897 6.97713 35.0102 7.36799C35.0308 7.75885 35.0514 8.04685 35.0719 8.25256C35.1131 8.66399 35.1748 9.07542 35.2571 9.48685C35.2982 9.75428 35.4834 9.8777 35.8125 9.85713C35.9154 9.85713 36.2034 9.8777 36.6559 9.91885C36.9645 9.95999 37.1702 9.93942 37.2937 9.8777C37.4171 9.83656 37.4994 9.67199 37.5817 9.42513C37.7462 8.91085 37.8697 8.37599 37.9314 7.82056C37.9725 7.32685 38.0137 6.54513 38.0342 5.47542ZM23.4902 6.07199C23.3874 6.15428 23.2434 6.29827 23.0582 6.48342C22.8525 6.68913 22.6879 6.8537 22.5439 7.01827C22.3999 7.18285 22.2765 7.32685 22.1737 7.47085C21.5154 8.35542 21.3714 9.17828 21.7828 9.93942C22.1737 10.7006 22.9759 11.1531 24.1691 11.3177C24.9919 11.4411 25.9794 11.4617 27.1108 11.4206C27.3371 11.4206 27.5634 11.3588 27.8102 11.2766C28.0571 11.1943 28.2217 11.0708 28.3451 10.9474C29.0857 10.104 29.5588 9.38399 29.7645 8.80799C30.2377 7.45027 29.9085 6.38056 28.7565 5.59885L28.4891 5.33142C28.5508 5.22856 28.6742 5.14627 28.8799 5.10513C29.0857 5.06399 29.2502 5.00227 29.3942 4.91999C29.5177 4.8377 29.5794 4.71427 29.5794 4.50856V3.2537C29.3737 3.2537 29.0651 3.27427 28.6742 3.27427C28.2834 3.27427 27.9542 3.27427 27.6662 3.27427C27.3782 3.27427 27.1108 3.27427 26.8639 3.23313C25.9588 3.13028 25.2182 3.06856 24.6834 3.02742C24.1279 3.00685 23.4697 3.02742 22.6879 3.08913C21.9062 3.17142 21.2068 3.31542 20.5691 3.56227V4.94056C20.5485 5.33142 20.7542 5.5577 21.1862 5.63999C21.3302 5.68113 22.0914 5.82513 23.4902 6.07199ZM27.3577 8.60228C27.3577 8.97256 27.2137 9.26056 26.9462 9.50742C26.6582 9.75428 26.3291 9.85713 25.9177 9.85713C25.5268 9.85713 25.2388 9.81599 25.0742 9.69256C24.9097 9.5897 24.8274 9.42513 24.8685 9.17828C24.9302 8.76685 25.0537 8.39656 25.2594 8.10856C25.4445 7.82056 25.7119 7.67656 26.0411 7.67656C26.5142 7.7177 26.8434 7.79999 27.0491 7.92342C27.2342 8.04685 27.3371 8.27313 27.3577 8.60228ZM23.4285 2.78056C23.7577 2.80113 23.9634 2.80113 24.0457 2.80113C25.2182 2.84228 25.8765 2.86285 26.0205 2.86285C26.3908 2.86285 26.6994 2.75999 26.9462 2.59542C27.3165 2.32799 27.4399 1.97828 27.3577 1.54627C27.2754 1.13485 27.0079 0.826274 26.5554 0.661704C26.2262 0.538274 25.7119 0.558847 25.0331 0.702846C24.3337 0.846847 23.8811 1.03199 23.6754 1.25827C23.6342 1.29942 23.6137 1.34056 23.6137 1.36113C23.5725 1.56685 23.5108 2.03999 23.4285 2.78056ZM32.0068 17.2628H31.9451C31.8011 17.2628 31.4925 17.2423 31.0194 17.2011C30.5462 17.1806 30.1554 17.16 29.8674 17.1394C29.5588 17.1394 29.2091 17.0983 28.8182 17.0571C28.4068 17.016 28.0982 16.9748 27.8719 16.9131C27.6251 16.872 27.4399 16.7897 27.2754 16.6457C27.1108 16.5223 27.0491 16.3371 27.0491 16.1108C27.0491 16.0286 27.0491 15.9463 27.0902 15.8434C27.1314 15.6377 27.1725 15.4937 27.2137 15.3703C27.2548 15.2674 27.3165 15.144 27.3988 15C27.4811 14.856 27.6045 14.7531 27.7485 14.6708C27.8925 14.6091 28.0571 14.568 28.2628 14.568H28.2834C30.2788 14.568 31.6159 14.6503 32.2948 14.7737C32.9119 14.9177 33.2411 15.2674 33.2411 15.8434C33.2411 16.2548 33.1177 16.584 32.8708 16.8514C32.6239 17.1394 32.3359 17.2628 32.0068 17.2628ZM28.9828 12.4697C28.6537 12.4697 28.3245 12.4903 28.0159 12.5314C25.6297 12.7783 24.0457 13.56 23.2845 14.8354C22.9965 15.3086 22.8731 16.0286 22.8731 16.9748C22.8731 17.448 23.1405 17.9417 23.6959 18.4766C23.9839 18.7851 24.3542 19.032 24.7862 19.2171C25.2182 19.4228 25.5885 19.5463 25.8971 19.608C26.1851 19.6697 26.6377 19.752 27.2137 19.8343C27.3371 19.8754 27.4194 19.8754 27.5017 19.8754C27.7897 19.9371 28.1394 19.9577 28.5302 19.9577C28.7977 19.9577 29.3325 19.9371 30.1348 19.896C30.9371 19.8548 31.4308 19.8137 31.6365 19.8137C32.1302 19.8137 32.6239 19.7108 33.1177 19.5051C33.6114 19.32 34.0022 19.1143 34.3314 18.9086C34.6605 18.7028 35.0719 18.3943 35.5657 18.024C36.2857 17.4891 36.6559 16.7486 36.6559 15.8228C36.6559 15.6171 36.6354 15.3908 36.5942 15.144C36.4502 14.1977 35.7508 13.5394 34.4959 13.1691C33.7554 12.9634 32.8502 12.7988 31.7805 12.6754C30.7108 12.552 29.7645 12.4697 28.9828 12.4697Z" fill="#BDBDBD" fill-opacity="0.5"/>
</svg>
