<svg width="24" height="24" viewBox="0 0 24 24" fill="none" xmlns="http://www.w3.org/2000/svg">
<g clip-path="url(#clip0_773_10922)">
<path fill-rule="evenodd" clip-rule="evenodd" d="M12 4C9.87827 4 7.84344 4.84285 6.34315 6.34315C4.84285 7.84344 4 9.87827 4 12C4 14.1217 4.84285 16.1566 6.34315 17.6569C7.84344 19.1571 9.87827 20 12 20C14.1217 20 16.1566 19.1571 17.6569 17.6569C19.1571 16.1566 20 14.1217 20 12C20 9.87827 19.1571 7.84344 17.6569 6.34315C16.1566 4.84285 14.1217 4 12 4ZM2 12C2 6.477 6.477 2 12 2C17.523 2 22 6.477 22 12C22 17.523 17.523 22 12 22C6.477 22 2 17.523 2 12ZM7 9.5C7 9.10218 7.15804 8.72064 7.43934 8.43934C7.72064 8.15804 8.10218 8 8.5 8C8.89782 8 9.27936 8.15804 9.56066 8.43934C9.84196 8.72064 10 9.10218 10 9.5C10 9.89782 9.84196 10.2794 9.56066 10.5607C9.27936 10.842 8.89782 11 8.5 11C8.10218 11 7.72064 10.842 7.43934 10.5607C7.15804 10.2794 7 9.89782 7 9.5ZM9 13C8.73478 13 8.48043 13.1054 8.29289 13.2929C8.10536 13.4804 8 13.7348 8 14C8 14.2652 8.10536 14.5196 8.29289 14.7071C8.48043 14.8946 8.73478 15 9 15V16C9 16.7956 9.31607 17.5587 9.87868 18.1213C10.4413 18.6839 11.2044 19 12 19C12.7956 19 13.5587 18.6839 14.1213 18.1213C14.6839 17.5587 15 16.7956 15 16V15C15.2652 15 15.5196 14.8946 15.7071 14.7071C15.8946 14.5196 16 14.2652 16 14C16 13.7348 15.8946 13.4804 15.7071 13.2929C15.5196 13.1054 15.2652 13 15 13H9ZM11 16V15H13V16C13 16.2652 12.8946 16.5196 12.7071 16.7071C12.5196 16.8946 12.2652 17 12 17C11.7348 17 11.4804 16.8946 11.2929 16.7071C11.1054 16.5196 11 16.2652 11 16ZM16.949 7.684C16.9075 7.55936 16.8419 7.44411 16.7559 7.34483C16.6699 7.24556 16.5651 7.16421 16.4476 7.10543C16.3302 7.04664 16.2023 7.01158 16.0712 7.00224C15.9402 6.9929 15.8086 7.00947 15.684 7.051C14.9875 7.28537 14.368 7.70506 13.892 8.265C13.5237 8.67987 13.2386 9.16159 13.052 9.684C13.002 9.83425 12.9883 9.99424 13.0122 10.1508C13.0361 10.3074 13.0968 10.456 13.1894 10.5845C13.2819 10.713 13.4037 10.8177 13.5446 10.8899C13.6856 10.9621 13.8416 10.9999 14 11C14.255 11 14.751 11.165 15.293 11.707C15.3852 11.8025 15.4956 11.8787 15.6176 11.9311C15.7396 11.9835 15.8708 12.0111 16.0036 12.0123C16.1364 12.0134 16.2681 11.9881 16.391 11.9378C16.5138 11.8875 16.6255 11.8133 16.7194 11.7194C16.8133 11.6255 16.8875 11.5139 16.9378 11.391C16.9881 11.2681 17.0134 11.1364 17.0123 11.0036C17.0111 10.8708 16.9835 10.7396 16.9311 10.6176C16.8787 10.4956 16.8025 10.3852 16.707 10.293C16.355 9.957 15.981 9.652 15.55 9.421C15.777 9.216 16.023 9.047 16.316 8.949C16.4406 8.90753 16.5559 8.84191 16.6552 8.75588C16.7544 8.66986 16.8358 8.56511 16.8946 8.44764C16.9534 8.33017 16.9884 8.20226 16.9978 8.07123C17.0071 7.94021 16.9905 7.80862 16.949 7.684Z" fill="#202020"/>
</g>
<defs>
<clipPath id="clip0_773_10922">
<rect width="24" height="24" fill="white"/>
</clipPath>
</defs>
</svg>
