<svg width="24" height="24" viewBox="0 0 24 24" fill="none" xmlns="http://www.w3.org/2000/svg">
<g clip-path="url(#clip0_658_4635)">
<path fill-rule="evenodd" clip-rule="evenodd" d="M20.255 5.52002L20.342 5.81802L20.431 6.15602L20.475 6.34102L20.564 6.74102L20.649 7.18402L20.73 7.66902C20.756 7.83802 20.78 8.01402 20.804 8.19702L20.869 8.76902C20.949 9.56002 21 10.469 21 11.5C21 12.531 20.95 13.44 20.87 14.231L20.804 14.803C20.781 14.986 20.756 15.163 20.73 15.331L20.65 15.816L20.564 16.259L20.475 16.659L20.386 17.019L20.298 17.336L20.255 17.48C19.924 18.567 18.791 18.985 17.861 18.675L16.681 18.282L16.281 19.215C16.0835 19.6761 15.7199 20.046 15.2624 20.2516C14.8049 20.4572 14.2869 20.4834 13.811 20.325L8.715 18.625C8.45269 18.5375 8.21137 18.3966 8.00628 18.2111C7.80119 18.0257 7.63679 17.7997 7.52346 17.5475C7.41013 17.2952 7.35033 17.0223 7.34784 16.7458C7.34535 16.4693 7.40023 16.1952 7.509 15.941L7.778 15.313L7 15.055L5.632 15.511C5.33133 15.6112 5.01118 15.6384 4.69791 15.5906C4.38464 15.5427 4.08723 15.4211 3.83019 15.2357C3.57315 15.0503 3.36383 14.8066 3.21949 14.5244C3.07516 14.2423 2.99992 13.9299 3 13.613V9.38802C2.99992 9.07111 3.07516 8.75873 3.21949 8.4766C3.36383 8.19448 3.57315 7.95069 3.83019 7.76533C4.08723 7.57997 4.38464 7.45835 4.69791 7.41048C5.01118 7.36262 5.33133 7.38988 5.632 7.49002L7 7.94602L17.861 4.32602C18.791 4.01602 19.924 4.43302 20.255 5.52002ZM9.682 15.948L9.347 16.728L14.443 18.428L14.778 17.647L9.682 15.948ZM18.388 6.25802L8 9.72102V13.279L18.388 16.742L18.465 16.459L18.545 16.132L18.585 15.952L18.663 15.558C18.689 15.42 18.714 15.273 18.739 15.119L18.809 14.634C18.921 13.787 19 12.747 19 11.5C19 10.254 18.92 9.21302 18.81 8.36602L18.739 7.88102C18.714 7.72702 18.689 7.58102 18.663 7.44102L18.584 7.04802L18.504 6.69902L18.388 6.25802ZM5 9.38802V13.613L6 13.279V9.72102L5 9.38802Z" fill="#202020"/>
</g>
<defs>
<clipPath id="clip0_658_4635">
<rect width="24" height="24" fill="white"/>
</clipPath>
</defs>
</svg>
