<svg width="54" height="30" viewBox="0 0 54 30" fill="none" xmlns="http://www.w3.org/2000/svg">
<path fill-rule="evenodd" clip-rule="evenodd" d="M14.8872 21.5688V14.1114H8.46864L8.91845 16.9287H11.5779V19.6563C10.9582 19.9939 10.3566 20.1481 9.5127 20.1481C6.86996 20.1481 5.54097 18.1247 5.54097 15.2429C5.54097 12.377 6.82509 10.4241 9.46984 10.4241C11.0485 10.4241 12.4005 11.001 13.553 11.7335L14.0648 8.42699C12.8428 7.73738 11.267 7.29529 9.37982 7.29529C4.65004 7.29529 1.74243 10.5102 1.74243 15.2634C1.74243 19.9939 4.42969 23.1901 9.29139 23.1901C11.4009 23.1901 13.2884 22.6139 14.8872 21.5688Z" fill="#006FBA"/>
<path fill-rule="evenodd" clip-rule="evenodd" d="M27.3695 18.2821C27.3695 15.8414 26.0405 14.687 22.7113 13.4647C20.8 12.7342 20.3759 12.3564 20.3759 11.5746C20.3759 10.8649 20.932 10.3837 22.0895 10.3837C23.2623 10.3837 24.707 10.8236 26.0824 11.6215L26.6599 8.42701C25.3249 7.78351 24.0402 7.4054 22.0416 7.4054C19.1126 7.4054 16.8044 8.97796 16.8044 11.9332C16.8044 14.463 18.1345 15.4645 21.1987 16.6388C23.3536 17.4628 23.796 17.8642 23.796 18.7274C23.796 19.6372 23.0415 20.1041 21.9518 20.1041C20.4214 20.1041 18.6702 19.5258 17.0915 18.6851L16.5374 21.9243C18.0927 22.6338 19.8236 23.075 21.8851 23.075C24.9289 23.0749 27.3695 21.613 27.3695 18.2821Z" fill="#006FBA"/>
<path d="M35.1128 17.5635C36.8803 16.4014 39.2808 14.8896 39.2808 12.0115C39.2808 8.85143 36.6033 7.41235 34.1158 7.41235C30.4048 7.41235 28.9084 10.3625 28.6978 10.8229L31.5612 12.1627C31.7397 11.8431 32.5363 10.5686 33.8681 10.5686C34.7287 10.5686 35.5683 11.2752 35.5683 12.3739C35.5683 13.2588 34.5714 13.9265 33.3303 14.7724C31.3629 16.1132 28.915 17.7812 28.915 21.2098C28.915 21.6594 28.9657 22.1587 29.0745 22.7779H39.2842V19.7072H32.9865C32.9865 19.0343 33.9629 18.3191 35.1128 17.5635Z" fill="#2ABADA"/>
<path d="M47.251 15.1576C46.4401 15.1576 45.7805 14.4982 45.7805 13.6869C45.7805 12.8763 46.4401 12.2168 47.251 12.2168C48.0619 12.2168 48.7217 12.8763 48.7217 13.6869C48.7217 14.4982 48.0619 15.1576 47.251 15.1576Z" fill="white"/>
<path d="M48.1467 12.0796C47.9499 12.0155 47.6022 11.9208 47.251 11.9208C46.2755 11.9208 45.4848 12.7115 45.4848 13.6867C45.4848 14.35 45.8363 14.9167 46.3911 15.2291C46.6353 15.3668 47.2565 15.5537 47.4313 15.6472C48.1736 16.0441 48.6785 16.8266 48.6785 17.7275C48.6785 19.0297 47.6227 20.0863 46.32 20.0863C45.0846 20.0863 44.0713 19.1354 43.9704 17.926L40.8103 18.6131C41.3254 21.2223 43.6253 23.1905 46.3859 23.1905C49.5249 23.1905 52.0698 20.646 52.0698 17.5066C52.0699 14.9814 50.4249 12.8204 48.1467 12.0796ZM47.251 14.8617C46.6033 14.8617 46.0765 14.3348 46.0765 13.6868C46.0765 13.0395 46.6034 12.5125 47.251 12.5125C47.8991 12.5125 48.4259 13.0395 48.4259 13.6868C48.4259 14.3347 47.899 14.8617 47.251 14.8617Z" fill="#2ABADA"/>
<path d="M41.796 7.62329L41.1733 14.7184H44.3524L44.7578 10.6868H48.409C50.5687 10.6868 51.3539 8.93563 51.3539 7.62329H41.796Z" fill="#2ABADA"/>
</svg>
