<svg width="24" height="24" viewBox="0 0 24 24" fill="none" xmlns="http://www.w3.org/2000/svg">
<g clip-path="url(#clip0_1798_1093)">
<path fill-rule="evenodd" clip-rule="evenodd" d="M19 2C19.7956 2 20.5587 2.31607 21.1213 2.87868C21.6839 3.44129 22 4.20435 22 5V18C22 18.7956 21.6839 19.5587 21.1213 20.1213C20.5587 20.6839 19.7956 21 19 21H6C5.20435 21 4.44129 20.6839 3.87868 20.1213C3.31607 19.5587 3 18.7956 3 18V5C3 4.20435 3.31607 3.44129 3.87868 2.87868C4.44129 2.31607 5.20435 2 6 2H19ZM13 14H12C11.7348 14 11.4804 14.1054 11.2929 14.2929C11.1054 14.4804 11 14.7348 11 15V19H14V15C14 14.7348 13.8946 14.4804 13.7071 14.2929C13.5196 14.1054 13.2652 14 13 14ZM15.14 8.797C14.8119 9.17502 14.4063 9.47808 13.9508 9.68564C13.4953 9.8932 13.0006 10.0004 12.5 10C11.9994 10.0004 11.5047 9.8932 11.0492 9.68564C10.5937 9.47808 10.1881 9.17502 9.86 8.797C9.48784 9.17844 9.04301 9.48142 8.55179 9.68804C8.06057 9.89467 7.53291 10.0007 7 10C6.29782 10.0011 5.60784 9.81655 5 9.465V18C5 18.2652 5.10536 18.5196 5.29289 18.7071C5.48043 18.8946 5.73478 19 6 19H9V15C9 14.2044 9.31607 13.4413 9.87868 12.8787C10.4413 12.3161 11.2044 12 12 12H13C13.7956 12 14.5587 12.3161 15.1213 12.8787C15.6839 13.4413 16 14.2044 16 15V19H19C19.2652 19 19.5196 18.8946 19.7071 18.7071C19.8946 18.5196 20 18.2652 20 18V9.465C19.3922 9.8166 18.7022 10.0012 18 10C16.88 10 15.867 9.54 15.14 8.797ZM19 4H6C5.75507 4.00003 5.51866 4.08996 5.33563 4.25272C5.15259 4.41547 5.03566 4.63975 5.007 4.883L5 5V6C4.99768 6.51898 5.19719 7.01855 5.55638 7.39315C5.91557 7.76776 6.40632 7.98807 6.92494 8.00754C7.44356 8.02701 7.94945 7.84412 8.33572 7.49751C8.72199 7.15089 8.9584 6.6677 8.995 6.15L9 6C9.00028 5.74512 9.09788 5.49997 9.27285 5.31463C9.44782 5.1293 9.68695 5.01777 9.94139 5.00283C10.1958 4.98789 10.4464 5.07067 10.6418 5.23426C10.8373 5.39786 10.9629 5.6299 10.993 5.883L11 6V6.5C11.0002 6.88522 11.1486 7.25559 11.4144 7.53439C11.6802 7.81318 12.0431 7.97901 12.4279 7.99752C12.8127 8.01604 13.1898 7.88581 13.4812 7.63382C13.7726 7.38184 13.9558 7.02742 13.993 6.644L14 6.5V6C14 5.73478 14.1054 5.48043 14.2929 5.29289C14.4804 5.10536 14.7348 5 15 5C15.2652 5 15.5196 5.10536 15.7071 5.29289C15.8946 5.48043 16 5.73478 16 6C15.9977 6.51898 16.1972 7.01855 16.5564 7.39315C16.9156 7.76776 17.4063 7.98807 17.9249 8.00754C18.4436 8.02701 18.9494 7.84412 19.3357 7.49751C19.722 7.15089 19.9584 6.6677 19.995 6.15L20 6V5C20 4.75507 19.91 4.51866 19.7473 4.33563C19.5845 4.15259 19.3603 4.03566 19.117 4.007L19 4Z" fill="black"/>
</g>
<defs>
<clipPath id="clip0_1798_1093">
<rect width="24" height="24" fill="white"/>
</clipPath>
</defs>
</svg>
