<svg width="24" height="24" viewBox="0 0 24 24" fill="none" xmlns="http://www.w3.org/2000/svg">
<g clip-path="url(#clip0_658_4723)">
<path fill-rule="evenodd" clip-rule="evenodd" d="M10.2932 8.46491C10.1057 8.65243 10.0004 8.90674 10.0004 9.17191C10.0004 9.43707 10.1057 9.69138 10.2932 9.87891L12.4142 11.9999L10.2932 14.1209C10.1056 14.3084 10.0001 14.5628 10 14.8281C9.99991 15.0933 10.1052 15.3478 10.2927 15.5354C10.4802 15.723 10.7346 15.8285 10.9998 15.8286C11.2651 15.8287 11.5196 15.7234 11.7072 15.5359L14.5362 12.7069C14.7237 12.5194 14.829 12.2651 14.829 11.9999C14.829 11.7347 14.7237 11.4804 14.5362 11.2929L11.7072 8.46491C11.5197 8.27743 11.2654 8.17212 11.0002 8.17212C10.735 8.17212 10.4807 8.27743 10.2932 8.46491Z" fill="#202020"/>
</g>
<defs>
<clipPath id="clip0_658_4723">
<rect width="24" height="24" fill="white"/>
</clipPath>
</defs>
</svg>
