<svg width="24" height="24" viewBox="0 0 24 24" fill="none" xmlns="http://www.w3.org/2000/svg">
<g clip-path="url(#clip0_773_10927)">
<path fill-rule="evenodd" clip-rule="evenodd" d="M17.5528 16.106C17.7718 15.9964 18.0234 15.9711 18.2599 16.0346C18.4964 16.0982 18.7013 16.2464 18.8358 16.451L18.8938 16.553L20.8938 20.553C20.9652 20.6956 21.0014 20.8533 20.9994 21.0128C20.9974 21.1723 20.9574 21.329 20.8825 21.4698C20.8076 21.6106 20.7001 21.7315 20.569 21.8224C20.4379 21.9132 20.287 21.9714 20.1288 21.992L19.9998 22H3.99983C3.8403 22.0001 3.68308 21.9619 3.54128 21.8888C3.39949 21.8157 3.27724 21.7098 3.18474 21.5798C3.09225 21.4498 3.0322 21.2996 3.0096 21.1417C2.987 20.9837 3.00251 20.8227 3.05483 20.672L3.10483 20.552L5.10483 16.552C5.21693 16.3203 5.41406 16.1407 5.65519 16.0507C5.89632 15.9606 6.16289 15.967 6.39942 16.0686C6.63595 16.1701 6.82423 16.3589 6.92508 16.5957C7.02592 16.8325 7.03157 17.0991 6.94083 17.34L6.89383 17.447L5.61783 20H18.3818L17.1058 17.447C16.9874 17.2099 16.968 16.9354 17.0518 16.684C17.1356 16.4325 17.3158 16.2246 17.5528 16.106ZM11.9998 2C13.8563 2 15.6368 2.7375 16.9496 4.05025C18.2623 5.36301 18.9998 7.14348 18.9998 9C18.9998 11.382 17.7108 13.317 16.3768 14.69C15.6399 15.4384 14.8299 16.1111 13.9588 16.698L13.5858 16.944L13.2538 17.153C13.2018 17.184 13.1518 17.213 13.1048 17.243L12.8478 17.391C12.3198 17.691 11.6798 17.691 11.1518 17.391L10.8948 17.242L10.5848 17.053C10.5276 17.017 10.4706 16.9807 10.4138 16.944L10.0408 16.698C9.16978 16.1111 8.35973 15.4384 7.62283 14.69C6.28883 13.317 4.99983 11.382 4.99983 9C4.99983 7.14348 5.73733 5.36301 7.05009 4.05025C8.36284 2.7375 10.1433 2 11.9998 2ZM11.9998 7C11.4694 7 10.9607 7.21071 10.5856 7.58579C10.2105 7.96086 9.99983 8.46957 9.99983 9C9.99983 9.53043 10.2105 10.0391 10.5856 10.4142C10.9607 10.7893 11.4694 11 11.9998 11C12.5303 11 13.039 10.7893 13.414 10.4142C13.7891 10.0391 13.9998 9.53043 13.9998 9C13.9998 8.46957 13.7891 7.96086 13.414 7.58579C13.039 7.21071 12.5303 7 11.9998 7Z" fill="#202020"/>
</g>
<defs>
<clipPath id="clip0_773_10927">
<rect width="24" height="24" fill="white"/>
</clipPath>
</defs>
</svg>
