<svg width="24" height="24" viewBox="0 0 24 24" fill="none" xmlns="http://www.w3.org/2000/svg">
<g clip-path="url(#clip0_658_4842)">
<path fill-rule="evenodd" clip-rule="evenodd" d="M13.7071 8.46491C13.8946 8.65243 13.9999 8.90674 13.9999 9.17191C13.9999 9.43707 13.8946 9.69138 13.7071 9.87891L11.5862 11.9999L13.7071 14.1209C13.8001 14.2138 13.8738 14.324 13.9241 14.4453C13.9744 14.5667 14.0003 14.6967 14.0004 14.8281C14.0004 14.9594 13.9746 15.0895 13.9244 15.2108C13.8741 15.3322 13.8005 15.4425 13.7077 15.5354C13.6148 15.6283 13.5046 15.702 13.3832 15.7523C13.2619 15.8026 13.1319 15.8286 13.0005 15.8286C12.8692 15.8287 12.7391 15.8028 12.6177 15.7526C12.4963 15.7024 12.3861 15.6288 12.2931 15.5359L9.46515 12.7069C9.27768 12.5194 9.17236 12.2651 9.17236 11.9999C9.17236 11.7347 9.27768 11.4804 9.46515 11.2929L12.2931 8.46491C12.4807 8.27743 12.735 8.17212 13.0001 8.17212C13.2653 8.17212 13.5196 8.27743 13.7071 8.46491Z" fill="#202020"/>
</g>
<defs>
<clipPath id="clip0_658_4842">
<rect width="24" height="24" fill="white"/>
</clipPath>
</defs>
</svg>
