<svg width="24" height="24" viewBox="0 0 24 24" fill="none" xmlns="http://www.w3.org/2000/svg">
<g clip-path="url(#clip0_773_10926)">
<path fill-rule="evenodd" clip-rule="evenodd" d="M12 2C17.523 2 22 6.477 22 12C22 17.523 17.523 22 12 22C6.477 22 2 17.523 2 12C2 6.477 6.477 2 12 2ZM12 4C9.87827 4 7.84344 4.84285 6.34315 6.34315C4.84285 7.84344 4 9.87827 4 12C4 14.1217 4.84285 16.1566 6.34315 17.6569C7.84344 19.1571 9.87827 20 12 20C14.1217 20 16.1566 19.1571 17.6569 17.6569C19.1571 16.1566 20 14.1217 20 12C20 9.87827 19.1571 7.84344 17.6569 6.34315C16.1566 4.84285 14.1217 4 12 4ZM12 13C13.267 13 14.427 13.473 15.308 14.25C15.5069 14.4256 15.6279 14.673 15.6444 14.9378C15.6609 15.2026 15.5716 15.4631 15.396 15.662C15.2204 15.8609 14.973 15.9819 14.7082 15.9984C14.4434 16.0149 14.1829 15.9256 13.984 15.75C13.4368 15.2655 12.7308 14.9987 12 15C11.239 15 10.545 15.282 10.016 15.75C9.91751 15.8369 9.80287 15.9035 9.67863 15.9461C9.5544 15.9886 9.42299 16.0063 9.29192 15.9981C9.16085 15.9899 9.03268 15.9559 8.91474 15.8982C8.79679 15.8404 8.69137 15.76 8.6045 15.6615C8.51763 15.563 8.45101 15.4484 8.40845 15.3241C8.36588 15.1999 8.3482 15.0685 8.35642 14.9374C8.36464 14.8064 8.39859 14.6782 8.45634 14.5602C8.51409 14.4423 8.59451 14.3369 8.693 14.25C9.6056 13.4433 10.782 12.9987 12 13ZM8.5 8C8.89782 8 9.27936 8.15804 9.56066 8.43934C9.84196 8.72064 10 9.10218 10 9.5C10 9.89782 9.84196 10.2794 9.56066 10.5607C9.27936 10.842 8.89782 11 8.5 11C8.10218 11 7.72064 10.842 7.43934 10.5607C7.15804 10.2794 7 9.89782 7 9.5C7 9.10218 7.15804 8.72064 7.43934 8.43934C7.72064 8.15804 8.10218 8 8.5 8ZM15.5 8C15.8978 8 16.2794 8.15804 16.5607 8.43934C16.842 8.72064 17 9.10218 17 9.5C17 9.89782 16.842 10.2794 16.5607 10.5607C16.2794 10.842 15.8978 11 15.5 11C15.1022 11 14.7206 10.842 14.4393 10.5607C14.158 10.2794 14 9.89782 14 9.5C14 9.10218 14.158 8.72064 14.4393 8.43934C14.7206 8.15804 15.1022 8 15.5 8Z" fill="#202020"/>
</g>
<defs>
<clipPath id="clip0_773_10926">
<rect width="24" height="24" fill="white"/>
</clipPath>
</defs>
</svg>
