<svg width="42" height="21" viewBox="0 0 42 21" fill="none" xmlns="http://www.w3.org/2000/svg">
<path d="M7.56 11.856C6.488 11.856 5.464 11.784 4.488 11.64C3.528 11.48 2.696 11.264 1.992 10.992C1.624 10.848 1.32 10.688 1.08 10.512C0.856 10.32 0.744 10.04 0.744 9.672C0.744 9.272 0.848 8.96 1.056 8.736C1.28 8.512 1.576 8.4 1.944 8.4C2.12 8.4 2.296 8.424 2.472 8.472C2.648 8.52 2.848 8.584 3.072 8.664V4.224H2.448C2.064 4.224 1.752 4.136 1.512 3.96C1.272 3.784 1.152 3.464 1.152 3C1.152 2.536 1.272 2.216 1.512 2.04C1.752 1.864 2.064 1.776 2.448 1.776H12.672C13.056 1.776 13.368 1.864 13.608 2.04C13.848 2.216 13.968 2.536 13.968 3C13.968 3.08 13.96 3.144 13.944 3.192C13.944 3.24 13.936 3.296 13.92 3.36C14 3.344 14.072 3.336 14.136 3.336C14.216 3.32 14.296 3.312 14.376 3.312H15.84V2.568C15.84 2.184 15.968 1.872 16.224 1.632C16.496 1.392 16.896 1.272 17.424 1.272C17.952 1.272 18.344 1.392 18.6 1.632C18.872 1.872 19.008 2.184 19.008 2.568V13.56C19.008 13.944 18.872 14.256 18.6 14.496C18.344 14.736 17.952 14.856 17.424 14.856C16.896 14.856 16.496 14.736 16.224 14.496C15.968 14.256 15.84 13.944 15.84 13.56V9H14.376H14.232C14.328 9.192 14.376 9.416 14.376 9.672C14.376 10.04 14.256 10.32 14.016 10.512C13.792 10.688 13.496 10.848 13.128 10.992C12.424 11.264 11.584 11.48 10.608 11.64C9.648 11.784 8.632 11.856 7.56 11.856ZM9 18.048C10.536 18.048 11.992 17.96 13.368 17.784C14.744 17.592 16.2 17.36 17.736 17.088C17.944 17.056 18.152 17.048 18.36 17.064C18.568 17.08 18.752 17.136 18.912 17.232C19.088 17.312 19.224 17.432 19.32 17.592C19.432 17.736 19.488 17.928 19.488 18.168C19.488 18.456 19.408 18.72 19.248 18.96C19.088 19.216 18.824 19.384 18.456 19.464C16.76 19.816 15.088 20.072 13.44 20.232C11.808 20.408 10.072 20.496 8.232 20.496C7.528 20.496 6.864 20.456 6.24 20.376C5.632 20.296 5.096 20.144 4.632 19.92C4.168 19.712 3.792 19.408 3.504 19.008C3.232 18.608 3.08 18.096 3.048 17.472C3.016 16.768 3.072 16.112 3.216 15.504C3.376 14.896 3.616 14.304 3.936 13.728C4.112 13.408 4.336 13.176 4.608 13.032C4.88 12.888 5.16 12.816 5.448 12.816C5.832 12.816 6.192 12.936 6.528 13.176C6.864 13.4 7.024 13.704 7.008 14.088C7.008 14.28 6.968 14.456 6.888 14.616C6.808 14.76 6.712 14.928 6.6 15.12C6.504 15.312 6.416 15.536 6.336 15.792C6.256 16.048 6.216 16.368 6.216 16.752C6.216 17.264 6.424 17.608 6.84 17.784C7.272 17.96 7.992 18.048 9 18.048ZM8.088 9.408C8.392 8.432 8.6 7.544 8.712 6.744C8.824 5.944 8.88 5.104 8.88 4.224H6.24V9.36C6.432 9.376 6.632 9.392 6.84 9.408C7.064 9.408 7.304 9.408 7.56 9.408H8.088ZM12.048 4.224C12.032 5.744 11.768 7.312 11.256 8.928C11.688 8.8 12.04 8.68 12.312 8.568C12.6 8.456 12.888 8.4 13.176 8.4C13.112 8.272 13.08 8.08 13.08 7.824C13.08 7.392 13.2 7.088 13.44 6.912C13.68 6.736 13.992 6.648 14.376 6.648H15.84V5.664H14.376C13.992 5.664 13.68 5.576 13.44 5.4C13.2 5.224 13.08 4.92 13.08 4.488C13.08 4.36 13.088 4.264 13.104 4.2C13.024 4.216 12.952 4.224 12.888 4.224C12.824 4.224 12.752 4.224 12.672 4.224H12.048ZM40.0226 19.656C39.7026 19.656 39.4466 19.536 39.2546 19.296C39.0626 19.072 38.8386 18.784 38.5826 18.432C37.7026 19.008 36.5986 19.496 35.2706 19.896C33.9426 20.296 32.3346 20.496 30.4466 20.496C29.0226 20.496 27.8226 20.4 26.8466 20.208C25.8706 20.032 25.0786 19.776 24.4706 19.44C23.8786 19.12 23.4466 18.728 23.1746 18.264C22.9186 17.8 22.7906 17.288 22.7906 16.728C22.7906 16.152 22.9186 15.632 23.1746 15.168C23.4466 14.704 23.8786 14.312 24.4706 13.992C25.0786 13.656 25.8706 13.4 26.8466 13.224C27.8226 13.032 29.0226 12.936 30.4466 12.936C32.3186 12.936 33.9186 13.12 35.2466 13.488C36.5746 13.856 37.6786 14.312 38.5586 14.856C38.8146 14.472 39.0386 14.152 39.2306 13.896C39.4226 13.624 39.6866 13.488 40.0226 13.488C40.3586 13.488 40.6626 13.584 40.9346 13.776C41.2066 13.968 41.3426 14.248 41.3426 14.616C41.3426 15.208 41.0786 15.872 40.5506 16.608C40.8226 16.96 41.0226 17.304 41.1506 17.64C41.2786 17.96 41.3426 18.256 41.3426 18.528C41.3426 18.896 41.2066 19.176 40.9346 19.368C40.6626 19.56 40.3586 19.656 40.0226 19.656ZM26.5586 11.856C24.9586 11.856 23.7426 11.472 22.9106 10.704C22.0786 9.936 21.6626 8.816 21.6626 7.344C21.6626 6.24 21.9266 5.36 22.4546 4.704H21.9746C21.5906 4.704 21.2786 4.616 21.0386 4.44C20.7986 4.264 20.6786 3.944 20.6786 3.48C20.6786 3.016 20.7986 2.696 21.0386 2.52C21.2786 2.344 21.5906 2.256 21.9746 2.256H24.9746V1.608C24.9746 1.224 25.1026 0.911999 25.3586 0.671999C25.6306 0.431999 26.0306 0.311999 26.5586 0.311999C27.0866 0.311999 27.4786 0.431999 27.7346 0.671999C28.0066 0.911999 28.1426 1.224 28.1426 1.608V2.256H31.1426C31.5266 2.256 31.8386 2.344 32.0786 2.52C32.3186 2.696 32.4386 3.016 32.4386 3.48C32.4386 3.944 32.3186 4.264 32.0786 4.44C31.8386 4.616 31.5266 4.704 31.1426 4.704H30.6386C31.1826 5.376 31.4546 6.256 31.4546 7.344C31.4546 8.816 31.0386 9.936 30.2066 10.704C29.3746 11.472 28.1586 11.856 26.5586 11.856ZM35.8226 5.4H37.7666V2.568C37.7666 2.184 37.8946 1.872 38.1506 1.632C38.4066 1.392 38.7906 1.272 39.3026 1.272C39.8146 1.272 40.1986 1.392 40.4546 1.632C40.7106 1.872 40.8386 2.184 40.8386 2.568V11.28C40.8386 11.664 40.7106 11.976 40.4546 12.216C40.1986 12.456 39.8146 12.576 39.3026 12.576C38.7906 12.576 38.4066 12.456 38.1506 12.216C37.8946 11.976 37.7666 11.664 37.7666 11.28V7.848H35.8226V10.8C35.8226 11.184 35.6946 11.496 35.4386 11.736C35.1826 11.976 34.7986 12.096 34.2866 12.096C33.7746 12.096 33.3906 11.976 33.1346 11.736C32.8786 11.496 32.7506 11.184 32.7506 10.8V2.568C32.7506 2.184 32.8786 1.872 33.1346 1.632C33.3906 1.392 33.7746 1.272 34.2866 1.272C34.7986 1.272 35.1826 1.392 35.4386 1.632C35.6946 1.872 35.8226 2.184 35.8226 2.568V5.4ZM30.4466 18.048C32.0466 18.048 33.3426 17.92 34.3346 17.664C35.3426 17.392 36.1506 17.064 36.7586 16.68C36.1506 16.328 35.3426 16.024 34.3346 15.768C33.3426 15.512 32.0466 15.384 30.4466 15.384C28.9906 15.384 27.8786 15.488 27.1106 15.696C26.3426 15.904 25.9586 16.248 25.9586 16.728C25.9586 17.192 26.3426 17.528 27.1106 17.736C27.8786 17.944 28.9906 18.048 30.4466 18.048ZM28.4786 7.056C28.4786 6.336 28.3106 5.768 27.9746 5.352C27.6386 4.92 27.1666 4.704 26.5586 4.704C25.9506 4.704 25.4786 4.92 25.1426 5.352C24.8066 5.768 24.6386 6.336 24.6386 7.056C24.6386 7.792 24.8066 8.368 25.1426 8.784C25.4786 9.2 25.9506 9.408 26.5586 9.408C27.1666 9.408 27.6386 9.2 27.9746 8.784C28.3106 8.368 28.4786 7.792 28.4786 7.056Z" fill="black"/>
</svg>
