<svg width="24" height="24" viewBox="0 0 24 24" fill="none" xmlns="http://www.w3.org/2000/svg">
<g clip-path="url(#clip0_773_10920)">
<path fill-rule="evenodd" clip-rule="evenodd" d="M12 22C17.523 22 22 17.523 22 12C22 6.477 17.523 2 12 2C6.477 2 2 6.477 2 12C2 17.523 6.477 22 12 22ZM8.5 11C8.89782 11 9.27936 10.842 9.56066 10.5607C9.84196 10.2794 10 9.89782 10 9.5C10 9.10218 9.84196 8.72064 9.56066 8.43934C9.27936 8.15804 8.89782 8 8.5 8C8.10218 8 7.72064 8.15804 7.43934 8.43934C7.15804 8.72064 7 9.10218 7 9.5C7 9.89782 7.15804 10.2794 7.43934 10.5607C7.72064 10.842 8.10218 11 8.5 11ZM9 13C8.73478 13 8.48043 13.1054 8.29289 13.2929C8.10536 13.4804 8 13.7348 8 14C8 14.2652 8.10536 14.5196 8.29289 14.7071C8.48043 14.8946 8.73478 15 9 15V16C9 16.7956 9.31607 17.5587 9.87868 18.1213C10.4413 18.6839 11.2044 19 12 19C12.7956 19 13.5587 18.6839 14.1213 18.1213C14.6839 17.5587 15 16.7956 15 16V15C15.2652 15 15.5196 14.8946 15.7071 14.7071C15.8946 14.5196 16 14.2652 16 14C16 13.7348 15.8946 13.4804 15.7071 13.2929C15.5196 13.1054 15.2652 13 15 13H9ZM16.949 7.684C16.9075 7.55936 16.8419 7.44411 16.7559 7.34483C16.6699 7.24556 16.5651 7.16421 16.4476 7.10543C16.3302 7.04664 16.2023 7.01158 16.0712 7.00224C15.9402 6.9929 15.8086 7.00947 15.684 7.051C14.9875 7.28537 14.368 7.70506 13.892 8.265C13.5237 8.67987 13.2386 9.16159 13.052 9.684C13.002 9.83425 12.9883 9.99424 13.0122 10.1508C13.0361 10.3074 13.0968 10.456 13.1894 10.5845C13.2819 10.713 13.4037 10.8177 13.5446 10.8899C13.6856 10.9621 13.8416 10.9999 14 11C14.5 11.026 14.952 11.367 15.293 11.707C15.3852 11.8025 15.4956 11.8787 15.6176 11.9311C15.7396 11.9835 15.8708 12.0111 16.0036 12.0123C16.1364 12.0134 16.2681 11.9881 16.391 11.9378C16.5138 11.8875 16.6255 11.8133 16.7194 11.7194C16.8133 11.6255 16.8875 11.5139 16.9378 11.391C16.9881 11.2681 17.0134 11.1364 17.0123 11.0036C17.0111 10.8708 16.9835 10.7396 16.9311 10.6176C16.8787 10.4956 16.8025 10.3852 16.707 10.293C16.355 9.957 15.981 9.652 15.55 9.421C15.809 9.186 16.1 9.035 16.425 8.905C16.6467 8.80095 16.8225 8.61916 16.9191 8.39411C17.0157 8.16905 17.0263 7.91638 16.949 7.684Z" fill="#202020"/>
</g>
<defs>
<clipPath id="clip0_773_10920">
<rect width="24" height="24" fill="white"/>
</clipPath>
</defs>
</svg>
