<svg width="73" height="30" viewBox="0 0 73 30" fill="none" xmlns="http://www.w3.org/2000/svg">
<g clip-path="url(#clip0_717_3461)">
<path d="M67.9337 15.349C67.9337 15.349 67.935 15.349 67.9374 15.349C69.3952 15.4893 70.5354 16.7384 70.5354 18.2348C70.5354 19.7313 69.439 20.9176 68.0189 21.0924C67.5261 21.1539 67.1452 21.5612 67.1452 22.0732V24.1591C67.1452 24.2034 67.1099 24.2391 67.0673 24.2391H6.08722C6.04341 24.2391 6.00812 24.2034 6.00812 24.1591V15.0364C6.00691 14.5331 5.60169 14.1233 5.10398 14.1233H3.71309C3.70336 14.1233 3.69484 14.1196 3.68754 14.1134C3.67415 14.0999 3.67415 14.0765 3.68754 14.063L11.192 6.20171C11.2066 6.18817 11.2285 6.18817 11.2419 6.20171L13.5175 8.41685C13.829 8.73189 14.4107 8.76143 14.7514 8.41685C15.0921 8.07104 15.0897 7.50987 14.7489 7.16653L11.8284 4.29054C11.4877 3.94596 10.9353 3.94596 10.5945 4.29054L0.958086 14.3989C0.82788 14.5565 0.75 14.762 0.75 14.9847C0.75 15.4893 1.17104 15.8831 1.65292 15.8831H4.18768C4.23148 15.8831 4.26677 15.9188 4.26677 15.9631V25.0882C4.26677 25.5928 4.67078 26.0013 5.16969 26.0013H67.9861C68.485 26.0013 68.889 25.5928 68.889 25.0882V22.75C68.889 22.7254 68.9036 22.7069 68.9255 22.7008C70.8457 22.1458 72.2512 20.3577 72.2512 18.2373C72.2512 16.4172 71.2157 14.842 69.7079 14.0814C69.6775 14.0654 69.6471 14.0519 69.6167 14.0359C69.585 14.0211 69.5631 13.9879 69.5631 13.9498C69.5412 11.5316 68.1357 9.44935 66.1072 8.47469C66.0756 8.45869 66.0585 8.42669 66.0537 8.38854C65.747 5.91497 63.6601 4.00134 61.1302 4.00134C60.0253 4.00134 59.0031 4.36561 58.1793 4.98462C57.7899 5.27628 57.6852 5.81529 57.9627 6.21648C58.2401 6.61767 58.7974 6.73211 59.1808 6.43553C59.721 6.01712 60.3976 5.76976 61.1302 5.76976C62.3884 5.76976 63.4775 6.50076 64.0057 7.56648C64.2211 8.00459 64.4145 8.62483 64.4145 9.6684C64.4145 9.70655 64.4401 9.73855 64.4766 9.74593C64.5338 9.75824 64.5885 9.77301 64.6445 9.789C66.2508 10.2296 67.4835 11.6091 67.7561 13.2963C67.7926 13.5264 67.8668 14.1405 67.8668 15.2727C67.8668 15.3133 67.8972 15.3465 67.9362 15.3502" fill="#003994"/>
<path d="M20.8407 21.0443C21.7217 21.0443 22.4348 20.3219 22.4348 19.4322V13.5633C22.4348 12.6723 21.7217 11.9512 20.8407 11.9512C19.9597 11.9512 19.2466 12.6723 19.2466 13.5633V19.4322C19.2466 20.3232 19.9597 21.0443 20.8407 21.0443Z" fill="#003994"/>
<path d="M33.5401 21.0443C34.4199 21.0443 35.1343 20.3219 35.1343 19.4322V13.5633C35.1343 12.6723 34.4199 11.9512 33.5401 11.9512C32.6603 11.9512 31.9448 12.6723 31.9448 13.5633V19.4322C31.9448 20.3232 32.6579 21.0443 33.5401 21.0443Z" fill="#003994"/>
<path d="M44.1744 14.7521C44.1744 14.7029 44.1342 14.6623 44.0856 14.6623H43.6682C42.932 14.6623 42.3345 14.058 42.3345 13.3135C42.3345 12.569 42.9307 11.9647 43.6682 11.9647H47.4307C48.167 11.9647 48.7632 12.5677 48.7632 13.3135C48.7632 14.0593 48.167 14.661 47.4307 14.661H47.2141C47.1655 14.661 47.1253 14.7016 47.1253 14.7521V19.554C47.1253 20.3773 46.4646 21.0443 45.6505 21.0443C44.8364 21.0443 44.178 20.3773 44.178 19.554L44.1756 14.7521H44.1744Z" fill="#003994"/>
<path d="M29.3102 11.9512C28.4608 11.9512 27.7733 12.6477 27.7733 13.5067L27.7599 14.6487V14.6401C27.7599 14.6586 27.7453 14.6733 27.727 14.6733C27.7161 14.6733 27.7063 14.6672 27.7002 14.6586L26.3276 12.6477C26.0489 12.2453 25.5878 11.9795 25.0633 11.9795C24.2151 11.9795 23.5251 12.6748 23.5251 13.5338V19.474C23.5251 20.3318 24.2139 21.0283 25.0633 21.0283C25.9127 21.0283 26.6002 20.333 26.6002 19.474L26.616 18.3062V18.3099C26.616 18.2914 26.6306 18.2779 26.6477 18.2779C26.6598 18.2779 26.6683 18.2828 26.6744 18.2902L28.0179 20.2887C28.2917 20.7157 28.7674 21 29.309 21C30.1583 21 30.8459 20.3035 30.8459 19.4445V13.5055C30.8459 12.6465 30.1571 11.95 29.309 11.95" fill="#003994"/>
<path d="M16.5719 11.9512C16.0803 11.9512 15.6398 12.1776 15.3477 12.5333V12.5308L13.6393 14.49C13.6393 14.49 13.6198 14.5355 13.5748 14.5355C13.5297 14.5355 13.4944 14.49 13.4944 14.49L11.758 12.5468C11.4671 12.1825 11.0218 11.9512 10.5241 11.9512C9.64547 11.9512 8.93359 12.6711 8.93359 13.5584V19.4802C8.93359 20.3379 9.62235 21.0345 10.4717 21.0345C11.3211 21.0345 12.0074 20.3379 12.0074 19.4802L12.0464 17.3487C12.0488 17.3253 12.0683 17.3069 12.0926 17.3069C12.1048 17.3069 12.1157 17.313 12.1242 17.3204L13.5054 18.8821C13.5054 18.8821 13.5407 18.9375 13.5894 18.9375C13.638 18.9375 13.6733 18.8821 13.6733 18.8821L14.9717 17.2933C14.9803 17.286 14.9924 17.281 15.0046 17.281C15.0301 17.281 15.0508 17.3007 15.0508 17.3266L15.0886 19.4814C15.0886 20.3392 15.7773 21.0357 16.6267 21.0357C17.4761 21.0357 18.1636 20.3392 18.1636 19.4814V13.5596C18.1636 12.6723 17.4529 11.9524 16.5731 11.9524" fill="#003994"/>
<path d="M62.1817 15.6738H61.3883C61.3628 15.6738 61.3433 15.6529 61.3433 15.6271V14.3066C61.3433 14.2808 61.3628 14.2598 61.3883 14.2598H62.1817C62.5675 14.2598 62.8802 14.5773 62.8802 14.9675C62.8802 15.3576 62.5675 15.6738 62.1817 15.6738ZM62.1854 11.9672H59.1675C58.6576 11.9672 58.2463 12.3819 58.2463 12.8975L58.2524 19.4814C58.2524 20.3441 58.9436 21.0443 59.7966 21.0443C60.6497 21.0443 61.3421 20.3441 61.3421 19.4814V17.9542C61.3421 17.9296 61.3628 17.9074 61.3883 17.9074H62.0868C64.248 17.9074 65.2799 16.4331 65.2799 14.9662C65.2799 13.3098 63.8951 11.9659 62.1854 11.9659" fill="#003994"/>
<path d="M42.1507 18.188C42.1507 19.8813 40.7976 21.2535 39.1219 21.2535C37.9525 21.2535 37.063 20.7871 36.3779 20.0438C36.1698 19.8161 36.0493 19.5048 36.0493 19.17C36.0493 18.4501 36.6249 17.8668 37.338 17.8668C37.6191 17.8668 37.9708 18.0083 38.1484 18.1043C38.2409 18.1535 38.6972 18.471 38.8846 18.471C39.0258 18.471 39.139 18.3566 39.139 18.2151C39.139 18.0305 38.8895 17.8693 38.7763 17.8114C37.4816 17.1567 36.2927 16.267 36.2927 14.6388C36.2927 13.0107 37.4487 11.7272 39.2753 11.7272C40.2585 11.7272 41.1213 12.1751 41.737 12.8532C41.9232 13.0587 42.0339 13.3282 42.0339 13.6285C42.0339 14.266 41.524 14.7828 40.8937 14.7828C40.4617 14.7828 39.8873 14.421 39.835 14.394C39.6853 14.309 39.6209 14.2303 39.47 14.2303C39.3191 14.2303 39.1986 14.3533 39.1986 14.5047C39.1986 14.7102 39.4395 14.8788 40.0066 15.1594C41.5679 15.9335 42.1532 17.0509 42.1532 18.188" fill="#003994"/>
<path d="M52.8822 18.3271C51.8758 18.3271 51.0593 17.5013 51.0593 16.4836C51.0593 15.4658 51.8758 14.6388 52.8822 14.6388C53.8885 14.6388 54.7051 15.4646 54.7051 16.4836C54.7051 17.5025 53.8898 18.3271 52.8822 18.3271ZM52.8846 11.7419C50.328 11.7419 48.2556 13.8648 48.2556 16.4836C48.2556 19.1024 50.3267 21.2252 52.8846 21.2252C55.4425 21.2252 57.5124 19.1024 57.5124 16.4836C57.5124 13.8648 55.4401 11.7419 52.8846 11.7419Z" fill="#003994"/>
</g>
<defs>
<clipPath id="clip0_717_3461">
<rect width="71.5" height="22" fill="white" transform="translate(0.75 4)"/>
</clipPath>
</defs>
</svg>
