<svg width="24" height="24" viewBox="0 0 24 24" fill="none" xmlns="http://www.w3.org/2000/svg">
<g clip-path="url(#clip0_658_4691)">
<path d="M13.2992 3.14795L21.9332 18.1019C22.0648 18.33 22.1341 18.5886 22.1341 18.8519C22.1341 19.1152 22.0648 19.3739 21.9332 19.6019C21.8015 19.83 21.6122 20.0193 21.3842 20.151C21.1561 20.2826 20.8975 20.3519 20.6342 20.3519H3.36617C3.10287 20.3519 2.84421 20.2826 2.61619 20.151C2.38816 20.0193 2.19881 19.83 2.06716 19.6019C1.93552 19.3739 1.86621 19.1152 1.86621 18.8519C1.86621 18.5886 1.93552 18.33 2.06717 18.1019L10.7012 3.14795C11.2782 2.14795 12.7212 2.14795 13.2992 3.14795ZM12.0002 4.89795L4.23217 18.3519H19.7682L12.0002 4.89795ZM12.0002 14.9999C12.2654 14.9999 12.5197 15.1053 12.7073 15.2928C12.8948 15.4804 13.0002 15.7347 13.0002 15.9999C13.0002 16.2652 12.8948 16.5195 12.7073 16.7071C12.5197 16.8946 12.2654 16.9999 12.0002 16.9999C11.735 16.9999 11.4806 16.8946 11.2931 16.7071C11.1055 16.5195 11.0002 16.2652 11.0002 15.9999C11.0002 15.7347 11.1055 15.4804 11.2931 15.2928C11.4806 15.1053 11.735 14.9999 12.0002 14.9999ZM12.0002 7.99995C12.2654 7.99995 12.5197 8.10531 12.7073 8.29284C12.8948 8.48038 13.0002 8.73473 13.0002 8.99995V12.9999C13.0002 13.2652 12.8948 13.5195 12.7073 13.7071C12.5197 13.8946 12.2654 13.9999 12.0002 13.9999C11.735 13.9999 11.4806 13.8946 11.2931 13.7071C11.1055 13.5195 11.0002 13.2652 11.0002 12.9999V8.99995C11.0002 8.73473 11.1055 8.48038 11.2931 8.29284C11.4806 8.10531 11.735 7.99995 12.0002 7.99995Z" fill="#202020"/>
</g>
<defs>
<clipPath id="clip0_658_4691">
<rect width="24" height="24" fill="white"/>
</clipPath>
</defs>
</svg>
