<svg width="24" height="24" viewBox="0 0 24 24" fill="none" xmlns="http://www.w3.org/2000/svg">
<g clip-path="url(#clip0_773_17513)">
<path d="M12 2C17.523 2 22 6.477 22 12C22 17.523 17.523 22 12 22C6.477 22 2 17.523 2 12C2 6.477 6.477 2 12 2ZM12 4C9.87827 4 7.84344 4.84285 6.34315 6.34315C4.84285 7.84344 4 9.87827 4 12C4 14.1217 4.84285 16.1566 6.34315 17.6569C7.84344 19.1571 9.87827 20 12 20C14.1217 20 16.1566 19.1571 17.6569 17.6569C19.1571 16.1566 20 14.1217 20 12C20 9.87827 19.1571 7.84344 17.6569 6.34315C16.1566 4.84285 14.1217 4 12 4ZM12.5 13C12.7549 13.0003 13 13.0979 13.1854 13.2728C13.3707 13.4478 13.4822 13.687 13.4972 13.9414C13.5121 14.1958 13.4293 14.4464 13.2657 14.6418C13.1021 14.8373 12.8701 14.9629 12.617 14.993L12.5 15H9.106L8.273 16.489C8.14945 16.7137 7.94433 16.8823 7.70002 16.96C7.45571 17.0378 7.19086 17.0187 6.9602 16.9068C6.72954 16.7949 6.55068 16.5986 6.46057 16.3586C6.37046 16.1185 6.37598 15.8531 6.476 15.617L6.528 15.511L6.814 15.001H6.3C6.04357 15.003 5.79615 14.9065 5.60889 14.7313C5.42163 14.5561 5.30883 14.3156 5.29381 14.0596C5.27879 13.8036 5.36269 13.5516 5.52818 13.3557C5.69367 13.1598 5.92809 13.035 6.183 13.007L6.3 13H12.5ZM14.393 10.012L16.066 13H17.7C17.9652 13 18.2196 13.1054 18.4071 13.2929C18.5946 13.4804 18.7 13.7348 18.7 14C18.7 14.2652 18.5946 14.5196 18.4071 14.7071C18.2196 14.8946 17.9652 15 17.7 15H17.186L17.473 15.512C17.5992 15.7432 17.6292 16.0148 17.5563 16.2679C17.4835 16.521 17.3137 16.7352 17.0839 16.8638C16.854 16.9925 16.5827 17.0253 16.3289 16.9551C16.075 16.885 15.8591 16.7174 15.728 16.489L12.648 10.989C12.5218 10.7578 12.4918 10.4862 12.5647 10.2331C12.6375 9.97998 12.8073 9.76584 13.0371 9.63717C13.2669 9.50849 13.5383 9.47569 13.7921 9.54587C14.046 9.61605 14.2619 9.78355 14.393 10.012ZM11.873 5.512L12 5.739L12.127 5.512C12.2566 5.28047 12.4728 5.10988 12.7281 5.03777C12.9834 4.96567 13.257 4.99794 13.4885 5.1275C13.72 5.25706 13.8906 5.47329 13.9627 5.72862C14.0348 5.98395 14.0026 6.25747 13.873 6.489L10.793 11.989C10.6619 12.2174 10.446 12.385 10.1921 12.4551C9.93825 12.5253 9.66695 12.4925 9.43713 12.3638C9.20731 12.2352 9.03754 12.021 8.96468 11.7679C8.89182 11.5148 8.92176 11.2432 9.048 11.012L10.854 7.786L10.128 6.489C10.0622 6.37433 10.0198 6.24775 10.0032 6.11658C9.98666 5.98541 9.99627 5.85226 10.0315 5.72483C10.0667 5.5974 10.1269 5.47822 10.2085 5.37418C10.29 5.27015 10.3915 5.18333 10.5068 5.11874C10.6222 5.05415 10.7492 5.01308 10.8805 4.9979C11.0119 4.98272 11.1449 4.99374 11.272 5.03031C11.399 5.06688 11.5176 5.12828 11.6207 5.21096C11.7239 5.29365 11.8096 5.39596 11.873 5.512Z" fill="#202020"/>
</g>
<defs>
<clipPath id="clip0_773_17513">
<rect width="24" height="24" fill="white"/>
</clipPath>
</defs>
</svg>
