<svg width="24" height="24" viewBox="0 0 24 24" fill="none" xmlns="http://www.w3.org/2000/svg">
<g clip-path="url(#clip0_658_4854)">
<path fill-rule="evenodd" clip-rule="evenodd" d="M8.46515 10.293C8.65268 10.1055 8.90699 10.0002 9.17215 10.0002C9.43731 10.0002 9.69162 10.1055 9.87915 10.293L12.0001 12.414L14.1212 10.293C14.3087 10.1053 14.563 9.99985 14.8283 9.99976C15.0936 9.99966 15.348 10.1049 15.5356 10.2925C15.7233 10.48 15.8288 10.7343 15.8289 10.9996C15.8289 11.2649 15.7237 11.5193 15.5361 11.707L12.7071 14.536C12.5196 14.7234 12.2653 14.8287 12.0001 14.8287C11.735 14.8287 11.4807 14.7234 11.2931 14.536L8.46515 11.707C8.27768 11.5194 8.17236 11.2651 8.17236 11C8.17236 10.7348 8.27768 10.4805 8.46515 10.293Z" fill="#202020"/>
</g>
<defs>
<clipPath id="clip0_658_4854">
<rect width="24" height="24" fill="white"/>
</clipPath>
</defs>
</svg>
