<svg width="24" height="24" viewBox="0 0 24 24" fill="none" xmlns="http://www.w3.org/2000/svg">
<path d="M12.0034 4.68685C12.0034 4.23928 12.1812 3.81003 12.4977 3.49355C12.8142 3.17707 13.2434 2.99927 13.691 2.99927C14.1386 2.99927 14.5678 3.17707 14.8843 3.49355C15.2008 3.81003 15.3786 4.23928 15.3786 4.68685C15.3786 5.13442 15.2008 5.56367 14.8843 5.88015C14.5678 6.19663 14.1386 6.37443 13.691 6.37443C13.2434 6.37443 12.8142 6.19663 12.4977 5.88015C12.1812 5.56367 12.0034 5.13442 12.0034 4.68685ZM10.8256 10.0063C10.7904 10.0203 10.7588 10.0344 10.7236 10.0484L10.4424 10.1715C9.86579 10.4281 9.4228 10.9168 9.2224 11.5145L9.13099 11.7888C8.93411 12.3794 8.29775 12.6958 7.7071 12.499C7.11644 12.3021 6.80002 11.6657 6.99691 11.0751L7.08832 10.8008C7.48912 9.60193 8.3751 8.62454 9.52828 8.11124L9.80954 7.98818C10.5408 7.66473 11.3319 7.49597 12.1335 7.49597C13.7015 7.49597 15.1149 8.43821 15.7161 9.8832L16.2575 11.1805L17.0099 11.5567C17.5654 11.8345 17.7904 12.5095 17.5127 13.065C17.2349 13.6205 16.5599 13.8455 16.0044 13.5678L15.0621 13.1002C14.7 12.9173 14.4152 12.615 14.2605 12.2388L13.923 11.4301L13.2445 13.733L14.9848 15.6315C15.1746 15.839 15.3082 16.0886 15.3786 16.3628L16.1872 19.6009C16.3384 20.2021 15.9727 20.8138 15.368 20.965C14.7633 21.1162 14.1551 20.7505 14.0039 20.1458L13.2304 17.0484L10.7447 14.3377C10.2244 13.7717 10.031 12.9806 10.2279 12.2388L10.8221 10.0063H10.8256ZM8.79348 16.9921L9.67243 14.7983C9.74626 14.9038 9.83064 15.0022 9.91853 15.1006L11.3495 16.6617L10.8397 17.9344C10.7553 18.1453 10.6287 18.3387 10.467 18.5004L8.29775 20.6697C7.85828 21.1091 7.14457 21.1091 6.70509 20.6697C6.26562 20.2302 6.26562 19.5165 6.70509 19.077L8.79348 16.9921Z" fill="#202020"/>
</svg>
