<svg width="24" height="24" viewBox="0 0 24 24" fill="none" xmlns="http://www.w3.org/2000/svg">
<g clip-path="url(#clip0_773_16770)">
<path d="M17.293 3.46506C17.4651 3.29273 17.6941 3.18912 17.9371 3.17365C18.1802 3.15819 18.4205 3.23193 18.613 3.38106L18.707 3.46506L21.535 6.29306C21.7143 6.47301 21.8185 6.71449 21.8262 6.96844C21.834 7.22239 21.7448 7.46977 21.5768 7.66033C21.4087 7.8509 21.1744 7.97036 20.9215 7.99445C20.6686 8.01855 20.416 7.94547 20.215 7.79006L20.121 7.70706L19 6.58606V19.0001C18.9997 19.2549 18.9021 19.5001 18.7272 19.6854C18.5522 19.8708 18.313 19.9823 18.0586 19.9972C17.8042 20.0122 17.5536 19.9294 17.3582 19.7658C17.1627 19.6022 17.0371 19.3702 17.007 19.1171L17 19.0001V6.58606L15.879 7.70706C15.6995 7.88831 15.4574 7.99409 15.2025 8.00274C14.9475 8.01139 14.6988 7.92226 14.5074 7.75359C14.316 7.58492 14.1963 7.34947 14.1728 7.09543C14.1493 6.84139 14.2238 6.58798 14.381 6.38706L14.464 6.29306L17.293 3.46506ZM13 18.0001C13.2549 18.0003 13.5 18.0979 13.6854 18.2729C13.8707 18.4479 13.9822 18.687 13.9972 18.9415C14.0121 19.1959 13.9293 19.4464 13.7657 19.6419C13.6021 19.8373 13.3701 19.963 13.117 19.9931L13 20.0001H4C3.74512 19.9998 3.49997 19.9022 3.31463 19.7272C3.1293 19.5522 3.01777 19.3131 3.00283 19.0587C2.98789 18.8042 3.07067 18.5537 3.23426 18.3582C3.39786 18.1628 3.6299 18.0372 3.883 18.0071L4 18.0001H13ZM13 11.0001C13.2652 11.0001 13.5196 11.1054 13.7071 11.2929C13.8946 11.4805 14 11.7348 14 12.0001C14 12.2653 13.8946 12.5196 13.7071 12.7072C13.5196 12.8947 13.2652 13.0001 13 13.0001H4C3.73478 13.0001 3.48043 12.8947 3.29289 12.7072C3.10536 12.5196 3 12.2653 3 12.0001C3 11.7348 3.10536 11.4805 3.29289 11.2929C3.48043 11.1054 3.73478 11.0001 4 11.0001H13ZM11 4.00006C11.2652 4.00006 11.5196 4.10541 11.7071 4.29295C11.8946 4.48049 12 4.73484 12 5.00006C12 5.26527 11.8946 5.51963 11.7071 5.70716C11.5196 5.8947 11.2652 6.00006 11 6.00006H4C3.73478 6.00006 3.48043 5.8947 3.29289 5.70716C3.10536 5.51963 3 5.26527 3 5.00006C3 4.73484 3.10536 4.48049 3.29289 4.29295C3.48043 4.10541 3.73478 4.00006 4 4.00006H11Z" fill="#62AD54"/>
</g>
<defs>
<clipPath id="clip0_773_16770">
<rect width="24" height="24" fill="white"/>
</clipPath>
</defs>
</svg>
