<svg width="24" height="24" viewBox="0 0 24 24" fill="none" xmlns="http://www.w3.org/2000/svg">
<g clip-path="url(#clip0_658_4850)">
<path fill-rule="evenodd" clip-rule="evenodd" d="M12.7072 14.536C12.5196 14.7235 12.2653 14.8288 12.0002 14.8288C11.735 14.8288 11.4807 14.7235 11.2932 14.536L8.46417 11.707C8.3243 11.5671 8.22908 11.3888 8.19054 11.1948C8.15201 11.0007 8.17189 10.7996 8.24769 10.6169C8.32348 10.4341 8.45178 10.278 8.61634 10.1682C8.7809 10.0584 8.97434 9.99984 9.17217 10H14.8282C15.026 9.99984 15.2194 10.0584 15.384 10.1682C15.5486 10.278 15.6769 10.4341 15.7527 10.6169C15.8285 10.7996 15.8483 11.0007 15.8098 11.1948C15.7713 11.3888 15.676 11.5671 15.5362 11.707L12.7072 14.536Z" fill="#202020"/>
</g>
<defs>
<clipPath id="clip0_658_4850">
<rect width="24" height="24" fill="white"/>
</clipPath>
</defs>
</svg>
