<svg width="24" height="24" viewBox="0 0 24 24" fill="none" xmlns="http://www.w3.org/2000/svg">
<g clip-path="url(#clip0_773_10929)">
<path d="M13 19.938V21C12.9997 21.2549 12.9021 21.5 12.7272 21.6854C12.5522 21.8707 12.313 21.9822 12.0586 21.9972C11.8042 22.0121 11.5536 21.9293 11.3582 21.7657C11.1627 21.6021 11.0371 21.3701 11.007 21.117L11 21V19.938C11.554 20.0071 12.1137 20.0185 12.67 19.972L13 19.938ZM13 4.062C14.7624 4.28459 16.4007 5.08713 17.6568 6.34324C18.9129 7.59934 19.7154 9.23761 19.938 11H19C18.7348 11 18.4804 11.1054 18.2929 11.2929C18.1054 11.4804 18 11.7348 18 12C18 12.2652 18.1054 12.5196 18.2929 12.7071C18.4804 12.8946 18.7348 13 19 13H19.938C19.7154 14.7624 18.9129 16.4007 17.6568 17.6568C16.4007 18.9129 14.7624 19.7154 13 19.938V19C13 18.7348 12.8946 18.4804 12.7071 18.2929C12.5196 18.1054 12.2652 18 12 18C11.7348 18 11.4804 18.1054 11.2929 18.2929C11.1054 18.4804 11 18.7348 11 19V19.938C9.23761 19.7154 7.59934 18.9129 6.34324 17.6568C5.08713 16.4007 4.28459 14.7624 4.062 13H5C5.26522 13 5.51957 12.8946 5.70711 12.7071C5.89464 12.5196 6 12.2652 6 12C6 11.7348 5.89464 11.4804 5.70711 11.2929C5.51957 11.1054 5.26522 11 5 11H4.062C3.97916 11.6641 3.97916 12.3359 4.062 13H3C2.73478 13 2.48043 12.8946 2.29289 12.7071C2.10536 12.5196 2 12.2652 2 12C2 11.7348 2.10536 11.4804 2.29289 11.2929C2.48043 11.1054 2.73478 11 3 11H4.062C4.28459 9.23761 5.08713 7.59934 6.34324 6.34324C7.59934 5.08713 9.23761 4.28459 11 4.062V5C11 5.26522 11.1054 5.51957 11.2929 5.70711C11.4804 5.89464 11.7348 6 12 6C12.2652 6 12.5196 5.89464 12.7071 5.70711C12.8946 5.51957 13 5.26522 13 5V4.062ZM12 10.5C11.6022 10.5 11.2206 10.658 10.9393 10.9393C10.658 11.2206 10.5 11.6022 10.5 12C10.5 12.3978 10.658 12.7794 10.9393 13.0607C11.2206 13.342 11.6022 13.5 12 13.5C12.3978 13.5 12.7794 13.342 13.0607 13.0607C13.342 12.7794 13.5 12.3978 13.5 12C13.5 11.6022 13.342 11.2206 13.0607 10.9393C12.7794 10.658 12.3978 10.5 12 10.5ZM21 11C21.2652 11 21.5196 11.1054 21.7071 11.2929C21.8946 11.4804 22 11.7348 22 12C22 12.2652 21.8946 12.5196 21.7071 12.7071C21.5196 12.8946 21.2652 13 21 13H19.938C20.0209 12.3359 20.0209 11.6641 19.938 11H21ZM12 2C12.2652 2 12.5196 2.10536 12.7071 2.29289C12.8946 2.48043 13 2.73478 13 3V4.062C12.3359 3.97916 11.6641 3.97916 11 4.062V3C11 2.73478 11.1054 2.48043 11.2929 2.29289C11.4804 2.10536 11.7348 2 12 2Z" fill="#202020"/>
</g>
<defs>
<clipPath id="clip0_773_10929">
<rect width="24" height="24" fill="white"/>
</clipPath>
</defs>
</svg>
