<svg width="42" height="30" viewBox="0 0 42 30" fill="none" xmlns="http://www.w3.org/2000/svg">
<g clip-path="url(#clip0_717_3463)">
<path d="M31.1326 9.27979C30.2106 9.27979 29.4604 10.0296 29.4604 10.9519V14.8143C29.4604 16.4103 28.4284 17.5987 27.0595 17.5987C25.6903 17.5987 24.6578 16.4103 24.6578 14.8143V10.9519C24.6578 10.0143 23.9427 9.27979 23.0304 9.27979C22.1083 9.27979 21.3584 10.0296 21.3584 10.9519V14.8873C21.3584 18.3143 23.8092 20.8258 27.0595 20.8258C28.6359 20.8258 30.0918 20.207 31.1592 19.0836C32.2199 17.9665 32.8045 16.45 32.8045 14.8144V10.952C32.8044 10.0296 32.0546 9.27979 31.1326 9.27979Z" fill="#652D8D"/>
<path d="M39.7298 26.8648C39.5893 26.8648 39.4472 26.8422 39.3098 26.7959L34.7994 25.6533C32.9604 26.6943 30.883 27.2414 28.7537 27.2414H13.4245C6.64561 27.2414 1.13086 21.7264 1.13086 14.9477C1.13086 8.1688 6.64549 2.65381 13.4245 2.65381H18.7182C19.4455 2.65381 20.0353 3.24385 20.0353 3.97088C20.0353 4.69851 19.4455 5.28818 18.7182 5.28818H13.4245C8.09822 5.28818 3.76511 9.62129 3.76511 14.9477C3.76511 20.2738 8.09822 24.6063 13.4245 24.6063H28.7537C30.597 24.6063 32.389 24.0859 33.9356 23.1002C34.2717 22.8861 34.6863 22.836 35.064 22.9626L38.0165 23.8336L36.7689 21.258C36.642 20.8804 36.6922 20.4657 36.9064 20.1299C37.8919 18.5829 38.413 16.7909 38.413 14.9478C38.413 9.62141 34.08 5.28831 28.7536 5.28831H23.4595C22.7322 5.28831 22.1427 4.69863 22.1427 3.971C22.1427 3.24385 22.7322 2.65393 23.4595 2.65393H28.7536C35.5326 2.65393 41.0467 8.16892 41.0467 14.9478C41.0467 17.0778 40.5 19.1543 39.4595 20.9935L40.978 25.1274C41.138 25.6016 41.015 26.125 40.6614 26.4791C40.4106 26.7299 40.0737 26.8648 39.7298 26.8648Z" fill="#AACE37"/>
<path d="M17.9963 16.3445C17.5498 16.3445 17.1298 16.5185 16.8142 16.8345C16.3113 17.3373 15.6413 17.6141 14.9285 17.6141C14.2156 17.6141 13.5461 17.3373 13.0436 16.834C12.5197 16.3109 12.2198 15.6236 12.2198 14.9487C12.2198 14.2738 12.5197 13.5864 13.0436 13.0625C13.5471 12.5593 14.2167 12.2815 14.9285 12.2815C15.6407 12.2815 16.3102 12.5591 16.8142 13.0625C17.1295 13.3784 17.5493 13.5524 17.9963 13.5524C18.4431 13.5524 18.8629 13.3783 19.1789 13.0625C19.8305 12.4108 19.8305 11.3502 19.1789 10.6978C18.0439 9.56251 16.5345 8.93738 14.9287 8.93738C13.3233 8.93738 11.8142 9.56263 10.6792 10.6978C8.33609 13.0416 8.33609 16.8557 10.6792 19.2001C11.8125 20.3331 13.3216 20.9573 14.9287 20.9573C16.5359 20.9573 18.0453 20.3329 19.1789 19.1991C19.8305 18.5477 19.8305 17.4864 19.1789 16.834C18.8625 16.5181 18.4425 16.3445 17.9963 16.3445Z" fill="#652D8D"/>
</g>
<defs>
<clipPath id="clip0_717_3463">
<rect width="41" height="26" fill="white" transform="translate(1 2)"/>
</clipPath>
</defs>
</svg>
