<svg width="112" height="57" viewBox="0 0 112 57" fill="none" xmlns="http://www.w3.org/2000/svg">
<path d="M6.2 23.9C5.96 23.9 5.66 23.9 5.3 23.9C4.94 23.9 4.64 23.96 4.52 23.96C4.4 23.96 4.28 24.02 4.22 24.02L1.88 24.38L1.46 28.1C1.34 29 1.4 29.72 1.52 30.2C1.64 30.68 1.88 31.04 2.36 31.28C2.78 31.52 3.2 31.7 3.62 31.76C4.04 31.82 4.76 31.88 5.72 31.88H6.38C12.26 32.24 17.18 32.3 21.26 32.18C21.62 32.18 22.28 32.18 23.12 32.18C23.96 32.24 24.74 32.24 25.4 32.18C26 32.18 26.66 32.06 27.26 31.82C28.22 31.58 28.82 30.74 29.06 29.42C29.12 29.18 29.12 28.82 29.12 28.4C29.06 27.98 29.06 27.62 29.06 27.32C29.06 25.34 29 24.14 28.76 23.72C28.52 23.3 27.68 23.12 26.3 23.18H23.84C23.3 23.18 22.94 23.06 22.7 22.7C22.46 22.34 22.4 21.62 22.46 20.42C22.52 17.12 23.72 15.5 26.06 15.5C26.54 15.5 27.02 15.5 27.38 15.38C27.74 15.26 27.98 15.14 28.16 15.02C28.28 14.9 28.4 14.78 28.52 14.6C28.58 14.48 28.64 14.36 28.64 14.3V14.12L29.06 9.98C29.18 8.72 28.58 8 27.32 7.88C26.72 7.82 25.94 7.76 24.92 7.7C23.84 7.64 23.12 7.58 22.7 7.52C21.44 7.4 19.22 7.22 16.04 6.92C12.86 6.68 10.52 6.44 9.08 6.26C8.6 6.26 8 6.2 7.28 6.14C6.56 6.14 5.84 6.08 5.24 6.02C4.64 5.96 4.04 5.84 3.56 5.72C1.82 5.48 0.98 6.2 0.98 7.88C0.98 8.48 0.92 9.32 0.8 10.4C0.68 11.48 0.56 12.26 0.56 12.74C0.5 13.7 0.38 14.42 0.26 14.78C3.38 15.14 5.12 15.32 5.48 15.32C5.6 15.32 5.72 15.38 5.84 15.38C5.9 15.38 5.96 15.44 6.02 15.44C6.08 15.44 6.14 15.5 6.14 15.56C6.14 15.68 6.2 15.74 6.2 15.8V16.1V16.52V23.9ZM18.14 17C17.9 20 17.72 21.68 17.72 21.92C17.6 22.4 17.42 22.82 17.12 23.06C16.76 23.3 16.46 23.48 16.1 23.48C15.74 23.54 15.32 23.54 14.84 23.54C13.64 23.48 13.04 22.76 13.04 21.44C12.98 21.26 12.98 20.66 12.98 19.64C12.98 18.68 12.98 18.08 12.98 17.84C12.98 16.94 13.4 16.52 14.36 16.58C14.54 16.58 15.8 16.76 18.14 17ZM42.98 28.94C42.98 29.24 43.04 29.54 43.04 29.78C43.04 30.26 42.98 31.1 42.98 32.24C42.98 33.38 42.98 34.16 43.04 34.64C43.04 35 43.1 35.3 43.16 35.48C43.16 35.78 43.22 36.02 43.34 36.14C43.46 36.32 43.58 36.44 43.82 36.5C44 36.56 44.24 36.56 44.48 36.5C44.72 36.5 45.02 36.44 45.38 36.32L46.28 36.14C46.76 36.08 47 36.02 47.12 35.96C47.24 35.96 47.6 35.78 48.2 35.42C48.26 35.42 48.38 35.36 48.5 35.24C48.62 35.18 48.8 35.12 48.92 35.06L49.22 34.88C49.46 34.7 49.7 34.46 49.82 34.22C49.94 33.98 50 33.68 50.06 33.32C50.06 33.2 50.12 32.9 50.12 32.48C50.12 32.06 50.12 31.76 50.18 31.52C50.18 31.4 50.24 31.1 50.42 30.62C50.48 30.26 50.54 29.96 50.54 29.72V28.88C50.48 28.52 50.48 28.28 50.54 28.04C50.54 28.04 50.6 27.68 50.72 27.02C50.78 26.72 50.84 26.3 50.9 25.76C50.9 25.64 50.9 25.4 50.9 25.1C50.9 24.86 50.96 24.62 50.96 24.5C50.96 24.44 51.02 24.2 51.02 23.84C51.02 23.48 51.08 23.24 51.08 23C51.08 22.76 51.2 22.1 51.32 21.14C51.38 20.54 51.44 19.88 51.56 19.1C51.62 18.14 51.68 17.36 51.68 16.76C51.68 16.28 51.62 15.8 51.62 15.26C51.62 15.14 51.56 14.6 51.5 13.76C51.38 13.28 51.32 12.8 51.32 12.26C51.26 11.3 51.2 10.34 51.2 9.38C51.14 7.52 51.08 6.32 51.08 5.72C51.02 5.36 50.96 4.88 50.96 4.22C50.96 3.56 50.96 3.08 50.96 2.84C50.9 2.36 50.78 2 50.66 1.7C50.48 1.4 50.24 1.16 50 0.92C49.76 0.799998 49.34 0.679999 48.86 0.559997C48.68 0.559997 48.56 0.499998 48.5 0.499998C48.44 0.499998 48.38 0.439999 48.32 0.439999C48.2 0.439999 48.14 0.379999 48.08 0.379999C47.96 0.379999 47.84 0.319997 47.72 0.319997C47.3 0.319997 46.94 0.259997 46.64 0.139999C46.22 0.0799961 45.86 0.0799961 45.62 0.139999C45.44 0.199998 45.26 0.259997 45.14 0.379999C45.02 0.499998 44.9 0.619996 44.78 0.739998C44.6 0.979999 44.42 1.34 44.24 1.76C44 2.18 43.88 2.54 43.76 2.84C43.58 3.26 43.46 3.68 43.4 4.04C43.28 4.4 43.22 4.82 43.22 5.24C43.16 5.6 43.16 6.02 43.16 6.5C43.16 6.62 43.1 7.22 43.1 8.42C42.5 8.54 41.84 8.6 41.24 8.6C40.94 8.6 40.4 8.66 39.56 8.66C38.72 8.72 38.12 8.72 37.76 8.72C36.74 8.84 36.14 8.9 35.9 8.96C35.78 9.02 35.66 9.08 35.6 9.08C35.48 9.2 35.36 9.26 35.3 9.32C35.18 9.44 35.12 9.5 35.12 9.62C35 9.86 34.88 10.22 34.82 10.58C34.7 10.94 34.7 11.24 34.7 11.54C34.64 12.14 34.7 12.74 34.82 13.46C34.94 14.3 35.12 14.96 35.36 15.32C35.42 15.44 35.48 15.56 35.6 15.62C35.66 15.74 35.78 15.86 35.9 15.92C36.02 15.98 36.14 15.98 36.26 15.98C36.38 16.04 36.68 16.04 37.04 15.98C37.1 15.98 37.22 15.98 37.4 15.92C37.58 15.92 37.7 15.86 37.82 15.86C38.06 15.86 39.14 15.74 41.06 15.62C41.36 15.62 41.9 15.56 42.62 15.44C42.68 15.44 42.74 15.44 42.86 15.38H43.1C43.16 15.38 43.22 15.38 43.34 15.32V16.1V16.88V17.78V18.68C43.34 19.58 43.28 20.06 43.28 20.18C43.28 20.3 43.28 20.36 43.28 20.42C43.16 20.54 43.1 20.6 43.1 20.66C42.98 20.78 42.92 20.84 42.86 20.84C42.68 20.96 42.44 21.02 42.08 21.02C41.9 21.08 41.6 21.08 41.24 21.08C40.88 21.14 40.28 21.2 39.56 21.26C38.84 21.32 38.3 21.38 37.94 21.38C37.22 21.44 36.68 21.5 36.32 21.62C35.9 21.74 35.6 21.92 35.36 22.04C35.06 22.28 34.88 22.52 34.76 22.82C34.64 23.12 34.64 23.48 34.7 23.9C34.7 24.14 34.76 24.5 34.88 24.98C34.88 25.28 34.94 25.64 35.06 26C35.12 26.48 35.18 26.84 35.3 27.02C35.3 27.32 35.42 27.56 35.54 27.74C35.66 27.98 35.78 28.16 36.02 28.28C36.2 28.4 36.44 28.52 36.74 28.58C37.1 28.7 37.58 28.76 38.24 28.76H39.86H41.42C41.96 28.82 42.5 28.88 42.98 28.94ZM22.94 45.08L15.56 45.5C15.38 44.9 15.26 44.24 15.2 43.46C15.08 42.68 15.02 42.14 15.02 41.9C14.66 40.1 14.54 38.9 14.54 38.24C14.54 38.06 14.42 37.64 14.3 37.04C14.18 36.44 14.12 36.02 14.12 35.84C14.12 35.42 13.88 35.12 13.4 34.94C12.92 34.82 11.84 34.7 10.1 34.7C8.6 34.7 7.64 34.76 7.22 34.82C7.04 34.88 6.68 35 6.14 35.12C5.6 35.24 5.3 35.3 5.18 35.3L5.24 36.14C5.24 36.74 5.24 37.28 5.24 37.88L5.3 38.72C5.36 39.98 5.48 42.2 5.6 45.44C5.72 48.68 5.84 51.14 6.02 52.88C6.02 53.24 6.08 53.54 6.32 53.9C6.56 54.26 6.8 54.56 7.1 54.68C7.94 55.22 9.08 55.46 10.46 55.46C10.88 55.46 11.54 55.46 12.38 55.4C13.22 55.34 13.88 55.28 14.24 55.28C15.74 55.22 18.14 55.16 21.44 55.1C24.74 55.04 26.9 54.98 27.92 54.98C28.16 54.98 28.34 54.98 28.58 54.92C29.48 54.8 32.3 54.62 37.1 54.38C41.9 54.14 44.72 53.96 45.56 53.84C46.4 53.72 46.94 53.42 47.18 53C47.9 51.56 48.26 50.18 48.26 48.8C48.26 47.6 48.2 46.76 48.14 46.34C47.78 44.42 47.18 43.4 46.4 43.4C45.8 43.4 44.96 43.46 44 43.58C43.04 43.7 41.84 43.82 40.4 43.94C38.96 44.06 37.76 44.18 36.74 44.24C35.72 44.36 31.1 44.6 22.94 45.08ZM110.6 14.72C110.6 13.16 110.66 11.3 110.78 9.02C110.9 6.8 111.02 5.66 111.14 5.66C111.02 5.48 110.96 5.18 110.9 4.76C110.78 4.4 110.72 4.04 110.6 3.68C110.48 3.38 110.36 3.08 110.18 2.84C108.98 1.4 107 0.679999 104.18 0.739998C103.28 0.799998 102.68 0.92 102.38 1.16C102.02 1.4 101.9 1.82 101.96 2.54C101.96 3.5 101.96 4.82 102.02 6.56C102.08 8.3 102.14 9.5 102.2 10.1C102.2 10.88 102.02 11.36 101.78 11.6C101.48 11.84 100.88 12.02 99.92 12.08H98.66L96.92 10.58L97.16 5.06L97.22 4.4C97.22 3.98 97.1 3.5 96.86 2.96C96.56 2.42 96.14 2.06 95.54 1.94C95.18 1.88 94.64 1.82 93.98 1.76L90.26 2.06L89.6 4.64L89.9 16.64C90.02 19.58 90.26 23.6 90.68 28.64C90.68 29.18 90.98 29.6 91.58 29.9C92.18 30.32 93.32 30.44 94.94 30.26L98.3 29.18C98.66 29.06 98.9 28.82 99.02 28.46C99.26 27.44 99.32 26.66 99.26 26.06C99.14 25.1 99.02 23.66 98.78 21.74C98.54 19.88 98.36 18.56 98.3 17.78C98.24 17.3 98.36 16.94 98.72 16.7C99.38 16.34 100.04 16.28 100.64 16.52C101.24 16.76 101.6 17.24 101.66 17.9C101.66 18.32 101.72 19.1 101.78 20.24C101.84 21.38 101.9 22.22 101.96 22.82C102.08 24.02 102.26 25.22 102.5 26.42C102.62 27.2 103.16 27.56 104.12 27.5C104.42 27.5 105.26 27.56 106.58 27.68C107.48 27.8 108.08 27.74 108.44 27.56C108.8 27.44 109.04 26.96 109.28 26.24C109.76 24.74 110.12 23.18 110.3 21.56C110.42 20.12 110.54 17.84 110.6 14.72ZM68.18 16.46C67.88 16.7 67.46 17.12 66.92 17.66C66.32 18.26 65.84 18.74 65.42 19.22C65 19.7 64.64 20.12 64.34 20.54C62.42 23.12 62 25.52 63.2 27.74C64.34 29.96 66.68 31.28 70.16 31.76C72.56 32.12 75.44 32.18 78.74 32.06C79.4 32.06 80.06 31.88 80.78 31.64C81.5 31.4 81.98 31.04 82.34 30.68C84.5 28.22 85.88 26.12 86.48 24.44C87.86 20.48 86.9 17.36 83.54 15.08L82.76 14.3C82.94 14 83.3 13.76 83.9 13.64C84.5 13.52 84.98 13.34 85.4 13.1C85.76 12.86 85.94 12.5 85.94 11.9V8.24C85.34 8.24 84.44 8.3 83.3 8.3C82.16 8.3 81.2 8.3 80.36 8.3C79.52 8.3 78.74 8.3 78.02 8.18C75.38 7.88 73.22 7.7 71.66 7.58C70.04 7.52 68.12 7.58 65.84 7.76C63.56 8 61.52 8.42 59.66 9.14V13.16C59.6 14.3 60.2 14.96 61.46 15.2C61.88 15.32 64.1 15.74 68.18 16.46ZM79.46 23.84C79.46 24.92 79.04 25.76 78.26 26.48C77.42 27.2 76.46 27.5 75.26 27.5C74.12 27.5 73.28 27.38 72.8 27.02C72.32 26.72 72.08 26.24 72.2 25.52C72.38 24.32 72.74 23.24 73.34 22.4C73.88 21.56 74.66 21.14 75.62 21.14C77 21.26 77.96 21.5 78.56 21.86C79.1 22.22 79.4 22.88 79.46 23.84ZM68 6.86C68.96 6.92 69.56 6.92 69.8 6.92C73.22 7.04 75.14 7.1 75.56 7.1C76.64 7.1 77.54 6.8 78.26 6.32C79.34 5.54 79.7 4.52 79.46 3.26C79.22 2.06 78.44 1.16 77.12 0.679999C76.16 0.319997 74.66 0.379999 72.68 0.799998C70.64 1.22 69.32 1.76 68.72 2.42C68.6 2.54 68.54 2.66 68.54 2.72C68.42 3.32 68.24 4.7 68 6.86ZM93.02 49.1H92.84C92.42 49.1 91.52 49.04 90.14 48.92C88.76 48.86 87.62 48.8 86.78 48.74C85.88 48.74 84.86 48.62 83.72 48.5C82.52 48.38 81.62 48.26 80.96 48.08C80.24 47.96 79.7 47.72 79.22 47.3C78.74 46.94 78.56 46.4 78.56 45.74C78.56 45.5 78.56 45.26 78.68 44.96C78.8 44.36 78.92 43.94 79.04 43.58C79.16 43.28 79.34 42.92 79.58 42.5C79.82 42.08 80.18 41.78 80.6 41.54C81.02 41.36 81.5 41.24 82.1 41.24H82.16C87.98 41.24 91.88 41.48 93.86 41.84C95.66 42.26 96.62 43.28 96.62 44.96C96.62 46.16 96.26 47.12 95.54 47.9C94.82 48.74 93.98 49.1 93.02 49.1ZM84.2 35.12C83.24 35.12 82.28 35.18 81.38 35.3C74.42 36.02 69.8 38.3 67.58 42.02C66.74 43.4 66.38 45.5 66.38 48.26C66.38 49.64 67.16 51.08 68.78 52.64C69.62 53.54 70.7 54.26 71.96 54.8C73.22 55.4 74.3 55.76 75.2 55.94C76.04 56.12 77.36 56.36 79.04 56.6C79.4 56.72 79.64 56.72 79.88 56.72C80.72 56.9 81.74 56.96 82.88 56.96C83.66 56.96 85.22 56.9 87.56 56.78C89.9 56.66 91.34 56.54 91.94 56.54C93.38 56.54 94.82 56.24 96.26 55.64C97.7 55.1 98.84 54.5 99.8 53.9C100.76 53.3 101.96 52.4 103.4 51.32C105.5 49.76 106.58 47.6 106.58 44.9C106.58 44.3 106.52 43.64 106.4 42.92C105.98 40.16 103.94 38.24 100.28 37.16C98.12 36.56 95.48 36.08 92.36 35.72C89.24 35.36 86.48 35.12 84.2 35.12Z" fill="#62AD54"/>
</svg>
