<svg width="90" height="30" viewBox="0 0 90 30" fill="none" xmlns="http://www.w3.org/2000/svg">
<g clip-path="url(#clip0_717_3465)">
<path d="M8.3504 10.8309H3V7.36292H12.6622C12.6622 7.36292 10.0011 8.7752 8.42617 10.8309H8.3504Z" fill="#F58220"/>
<path d="M14.1941 7.08826V10.9779C14.1941 10.9779 11.3592 11.9548 10.9892 14.744C10.9892 14.744 10.3949 18.1178 10.5405 22.4939H6.30298C6.30298 22.4939 6.15589 16.6526 7.43666 13.3258C7.43666 13.3258 8.67136 9.46168 14.1941 7.09022V7.08826Z" fill="#ED1C24"/>
<path d="M19.7317 13.4376H14.6072V16.1778H19.7317V13.4376Z" fill="#00903B"/>
<path d="M22.4863 7.30994V22.4331H30.8975V19.4379H27.2261V15.917H30.9064V13.4377H27.2261V10.0482H30.9064V7.30994H22.4863Z" fill="#00903B"/>
<path d="M42.0857 7.30994V22.4331H50.5013V19.4379H46.8254V15.917H50.5087V13.4377H46.8254V10.0482H50.5087V7.30994H42.0857Z" fill="#00903B"/>
<path d="M64.7681 7.30994V22.4331H73.1777V19.4379H69.5048V15.917H73.1896V13.4377H69.5048V10.0482H73.1896V7.30994H64.7681Z" fill="#00903B"/>
<path d="M32.7429 7.30994V22.4331H40.8926V19.4379H37.3504V7.30994H32.7429Z" fill="#00903B"/>
<path d="M51.6721 7.30994L53.7745 22.4331H60.6226L63.5081 7.30994H59.8946L57.8234 18.1629L56.1548 7.30994H51.6721Z" fill="#00903B"/>
<path d="M86.7743 22.4331V10.7798C86.7743 10.7798 87.4117 6.72341 82.825 7.01568C82.825 7.01568 80.6543 7.50605 79.375 8.681V7.3099H74.9458V22.4331H79.4181V12.6844C79.4181 12.6844 79.375 10.8308 80.6528 10.6837C81.938 10.5405 82.2352 11.1701 82.1861 12.0509V22.4331H86.7728H86.7743Z" fill="#00903B"/>
</g>
<defs>
<clipPath id="clip0_717_3465">
<rect width="84" height="16" fill="white" transform="translate(3 7)"/>
</clipPath>
</defs>
</svg>
