<svg width="24" height="24" viewBox="0 0 24 24" fill="none" xmlns="http://www.w3.org/2000/svg">
<g clip-path="url(#clip0_773_10931)">
<path fill-rule="evenodd" clip-rule="evenodd" d="M12 4C10.3425 4 8.726 4.51481 7.37378 5.47328C6.02156 6.43175 5.00042 7.78655 4.45149 9.35047C3.90255 10.9144 3.85292 12.6102 4.30946 14.2035C4.76599 15.7969 5.70615 17.2091 7 18.245V13C7 12.7348 7.10536 12.4804 7.29289 12.2929C7.48043 12.1054 7.73478 12 8 12C8.26522 12 8.51957 12.1054 8.70711 12.2929C8.89464 12.4804 9 12.7348 9 13V19.419C9.926 19.794 10.94 20 12 20C13.06 20 14.074 19.794 15 19.419V13C15 12.7348 15.1054 12.4804 15.2929 12.2929C15.4804 12.1054 15.7348 12 16 12C16.2652 12 16.5196 12.1054 16.7071 12.2929C16.8946 12.4804 17 12.7348 17 13V18.245C18.2939 17.2091 19.234 15.7969 19.6905 14.2035C20.1471 12.6102 20.0974 10.9144 19.5485 9.35047C18.9996 7.78655 17.9784 6.43175 16.6262 5.47328C15.274 4.51481 13.6575 4 12 4ZM17 20.662C19.989 18.933 22 15.702 22 12C22 6.477 17.523 2 12 2C6.477 2 2 6.477 2 12C1.99929 13.7557 2.46103 15.4807 3.33877 17.0013C4.21651 18.5219 5.47928 19.7845 7 20.662V21C6.99963 21.2204 7.07211 21.4348 7.20617 21.6098C7.34023 21.7848 7.52836 21.9106 7.74131 21.9677C7.95425 22.0247 8.18007 22.0097 8.38365 21.9252C8.58722 21.8406 8.75715 21.6911 8.867 21.5C9.852 21.824 10.906 22 12 22C13.0643 22.0013 14.122 21.8325 15.133 21.5C15.2429 21.6911 15.4128 21.8406 15.6164 21.9252C15.8199 22.0097 16.0458 22.0247 16.2587 21.9677C16.4716 21.9106 16.6598 21.7848 16.7938 21.6098C16.9279 21.4348 17.0004 21.2204 17 21V20.662ZM6 9C6 8.73478 6.10536 8.48043 6.29289 8.29289C6.48043 8.10536 6.73478 8 7 8H10C10.2652 8 10.5196 8.10536 10.7071 8.29289C10.8946 8.48043 11 8.73478 11 9C11 9.26522 10.8946 9.51957 10.7071 9.70711C10.5196 9.89464 10.2652 10 10 10H7C6.73478 10 6.48043 9.89464 6.29289 9.70711C6.10536 9.51957 6 9.26522 6 9ZM13 9C13 8.73478 13.1054 8.48043 13.2929 8.29289C13.4804 8.10536 13.7348 8 14 8H17C17.2652 8 17.5196 8.10536 17.7071 8.29289C17.8946 8.48043 18 8.73478 18 9C18 9.26522 17.8946 9.51957 17.7071 9.70711C17.5196 9.89464 17.2652 10 17 10H14C13.7348 10 13.4804 9.89464 13.2929 9.70711C13.1054 9.51957 13 9.26522 13 9Z" fill="#202020"/>
</g>
<defs>
<clipPath id="clip0_773_10931">
<rect width="24" height="24" fill="white"/>
</clipPath>
</defs>
</svg>
