<svg width="24" height="24" viewBox="0 0 24 24" fill="none" xmlns="http://www.w3.org/2000/svg">
<g clip-path="url(#clip0_658_4667)">
<path fill-rule="evenodd" clip-rule="evenodd" d="M14.0352 2.80896C14.4052 2.54296 14.9252 2.41896 15.4362 2.60596C16.5226 3.00394 17.5316 3.58762 18.4182 4.33096C18.8352 4.68096 18.9882 5.19196 18.9422 5.64396C18.8672 6.39696 18.9992 7.12396 19.3622 7.74996C19.6822 8.30696 20.1642 8.74696 20.7522 9.05696L20.9772 9.16696C21.3912 9.35396 21.7592 9.74296 21.8522 10.28C22.0497 11.4181 22.0497 12.5818 21.8522 13.72C21.7692 14.204 21.4622 14.567 21.0992 14.771L20.9772 14.834C20.2872 15.144 19.7232 15.624 19.3612 16.25C18.9992 16.877 18.8672 17.603 18.9422 18.356C18.9872 18.808 18.8352 19.32 18.4182 19.669C17.5316 20.4123 16.5226 20.996 15.4362 21.394C15.204 21.477 14.955 21.5019 14.7109 21.4665C14.4669 21.4312 14.2352 21.3365 14.0362 21.191C13.4202 20.75 12.7232 20.5 12.0002 20.5C11.2772 20.5 10.5802 20.749 9.96517 21.191C9.76602 21.3367 9.53417 21.4314 9.28994 21.4668C9.0457 21.5022 8.79651 21.4772 8.56417 21.394C7.47777 20.996 6.46877 20.4123 5.58217 19.669C5.39439 19.5094 5.24848 19.3064 5.15715 19.0775C5.06582 18.8487 5.03184 18.601 5.05817 18.356C5.13317 17.603 5.00017 16.876 4.63817 16.25C4.30847 15.691 3.8263 15.2377 3.24817 14.943L3.02317 14.833C2.79752 14.733 2.59978 14.5793 2.44725 14.3853C2.29472 14.1913 2.19203 13.9628 2.14817 13.72C1.95061 12.5818 1.95061 11.4181 2.14817 10.28C2.23117 9.79596 2.53817 9.43296 2.90117 9.22896L3.02317 9.16696C3.71317 8.85596 4.27717 8.37696 4.63917 7.74996C5.00017 7.12396 5.13317 6.39696 5.05817 5.64396C5.03184 5.39896 5.06582 5.15125 5.15715 4.9224C5.24848 4.69354 5.39439 4.4905 5.58217 4.33096C6.46878 3.58762 7.47778 3.00394 8.56417 2.60596C8.79638 2.52299 9.04536 2.49811 9.2894 2.5335C9.53343 2.56888 9.76509 2.66345 9.96417 2.80896C10.5792 3.25096 11.2762 3.49996 12.0002 3.49996C12.7242 3.49996 13.4202 3.25096 14.0352 2.80896ZM14.9922 4.57796C14.1262 5.14796 13.1052 5.49996 12.0002 5.49996C10.8952 5.49996 9.87417 5.14696 9.00817 4.57796C8.31201 4.85896 7.65892 5.23667 7.06817 5.69996C7.12817 6.73296 6.92317 7.79296 6.37117 8.74996C5.81817 9.70596 5.00317 10.413 4.07817 10.878C3.97396 11.6217 3.97396 12.3763 4.07817 13.12C5.00317 13.585 5.81817 14.292 6.37117 15.25C6.92317 16.205 7.12817 17.265 7.06817 18.298C7.65886 18.7616 8.31195 19.1396 9.00817 19.421C9.87417 18.851 10.8952 18.499 12.0002 18.499C13.1052 18.499 14.1262 18.852 14.9922 19.421C15.6883 19.1399 16.3414 18.7622 16.9322 18.299C16.8722 17.265 17.0772 16.205 17.6292 15.249C18.1812 14.292 18.9972 13.585 19.9222 13.119C20.0264 12.3759 20.0264 11.622 19.9222 10.879C18.9972 10.413 18.1822 9.70596 17.6292 8.74896C17.0772 7.79296 16.8722 6.73296 16.9322 5.69896C16.3414 5.23567 15.6883 4.85896 14.9922 4.57796ZM12.0002 7.99996C13.061 7.99996 14.0785 8.42138 14.8286 9.17153C15.5787 9.92168 16.0002 10.9391 16.0002 12C16.0002 13.0608 15.5787 14.0782 14.8286 14.8284C14.0785 15.5785 13.061 16 12.0002 16C10.9393 16 9.92189 15.5785 9.17175 14.8284C8.4216 14.0782 8.00017 13.0608 8.00017 12C8.00017 10.9391 8.4216 9.92168 9.17175 9.17153C9.92189 8.42138 10.9393 7.99996 12.0002 7.99996ZM12.0002 9.99996C11.4697 9.99996 10.961 10.2107 10.586 10.5857C10.2109 10.9608 10.0002 11.4695 10.0002 12C10.0002 12.5304 10.2109 13.0391 10.586 13.4142C10.961 13.7892 11.4697 14 12.0002 14C12.5306 14 13.0393 13.7892 13.4144 13.4142C13.7895 13.0391 14.0002 12.5304 14.0002 12C14.0002 11.4695 13.7895 10.9608 13.4144 10.5857C13.0393 10.2107 12.5306 9.99996 12.0002 9.99996Z" fill="#202020"/>
</g>
<defs>
<clipPath id="clip0_658_4667">
<rect width="24" height="24" fill="white"/>
</clipPath>
</defs>
</svg>
