<svg width="24" height="24" viewBox="0 0 24 24" fill="none" xmlns="http://www.w3.org/2000/svg">
<g clip-path="url(#clip0_773_10921)">
<path fill-rule="evenodd" clip-rule="evenodd" d="M12 2C13.89 2 15.657 2.524 17.165 3.435C17.0553 3.77934 16.9996 4.13861 17 4.5C17 4.96868 17.1646 5.42246 17.4651 5.78215C17.7656 6.14183 18.1828 6.38458 18.644 6.468L18.641 6.578C18.641 6.924 18.741 7.329 18.997 7.681C18.6574 8.0682 18.4803 8.57147 18.5026 9.08599C18.5248 9.60051 18.7446 10.0866 19.1163 10.4431C19.488 10.7996 19.9829 10.9989 20.4979 10.9997C21.0129 11.0004 21.5083 10.8024 21.881 10.447C21.959 10.953 22 11.472 22 12C22 17.523 17.523 22 12 22C6.477 22 2 17.523 2 12C2 6.477 6.477 2 12 2ZM14.684 12.551C14.176 12.721 13.648 12.947 13.108 13.217C12.832 13.355 12.564 13.499 12.307 13.645L11.93 13.865C11.707 13.999 11.541 14.105 11.445 14.168C11.2243 14.3152 11.0712 14.544 11.0192 14.8041C10.9673 15.0642 11.0208 15.3343 11.168 15.555C11.3152 15.7757 11.544 15.9288 11.8041 15.9808C12.0642 16.0327 12.3343 15.9792 12.555 15.832L12.849 15.646L12.959 15.58C13.286 15.384 13.639 15.188 14.003 15.006C14.463 14.776 14.907 14.586 15.316 14.449C15.5677 14.3652 15.7758 14.1848 15.8945 13.9476C16.0132 13.7104 16.0328 13.4357 15.949 13.184C15.8652 12.9323 15.6848 12.7242 15.4476 12.6055C15.2104 12.4868 14.9357 12.4672 14.684 12.551ZM9.5 9C9.10218 9 8.72064 9.15804 8.43934 9.43934C8.15804 9.72064 8 10.1022 8 10.5C8 10.8978 8.15804 11.2794 8.43934 11.5607C8.72064 11.842 9.10218 12 9.5 12C9.89782 12 10.2794 11.842 10.5607 11.5607C10.842 11.2794 11 10.8978 11 10.5C11 10.1022 10.842 9.72064 10.5607 9.43934C10.2794 9.15804 9.89782 9 9.5 9ZM14.5 7C14.1022 7 13.7206 7.15804 13.4393 7.43934C13.158 7.72064 13 8.10218 13 8.5C13 8.89782 13.158 9.27936 13.4393 9.56066C13.7206 9.84196 14.1022 10 14.5 10C14.8978 10 15.2794 9.84196 15.5607 9.56066C15.842 9.27936 16 8.89782 16 8.5C16 8.10218 15.842 7.72064 15.5607 7.43934C15.2794 7.15804 14.8978 7 14.5 7ZM20.5 8C20.7652 8 21.0196 8.10536 21.2071 8.29289C21.3946 8.48043 21.5 8.73478 21.5 9C21.5 9.26522 21.3946 9.51957 21.2071 9.70711C21.0196 9.89464 20.7652 10 20.5 10C20.2348 10 19.9804 9.89464 19.7929 9.70711C19.6054 9.51957 19.5 9.26522 19.5 9C19.5 8.73478 19.6054 8.48043 19.7929 8.29289C19.9804 8.10536 20.2348 8 20.5 8ZM20.5 2C21.0196 2.00017 21.5262 2.16224 21.9494 2.46366C22.3727 2.76508 22.6915 3.19088 22.8615 3.68186C23.0315 4.17284 23.0444 4.7046 22.8982 5.20321C22.7521 5.70183 22.4542 6.14251 22.046 6.464L21.478 6.934C21.151 7.196 20.812 7.422 20.5 7.422C19.875 7.422 19.64 6.932 19.64 6.578C19.64 6.224 19.851 5.844 20.025 5.63C20.279 5.317 20.59 5.066 20.809 4.893C20.8756 4.84062 20.9279 4.77217 20.9608 4.69407C20.9937 4.61597 21.0062 4.53078 20.9971 4.44652C20.9881 4.36225 20.9578 4.28167 20.909 4.21234C20.8603 4.143 20.7947 4.0872 20.7185 4.05017C20.6422 4.01314 20.5578 3.99609 20.4732 4.00063C20.3886 4.00517 20.3065 4.03114 20.2347 4.07612C20.1628 4.12109 20.1036 4.18359 20.0626 4.25774C20.0215 4.33188 20 4.41525 20 4.5C20 4.76522 19.8946 5.01957 19.7071 5.20711C19.5196 5.39464 19.2652 5.5 19 5.5C18.7348 5.5 18.4804 5.39464 18.2929 5.20711C18.1054 5.01957 18 4.76522 18 4.5C18 3.83696 18.2634 3.20107 18.7322 2.73223C19.2011 2.26339 19.837 2 20.5 2Z" fill="#202020"/>
</g>
<defs>
<clipPath id="clip0_773_10921">
<rect width="24" height="24" fill="white"/>
</clipPath>
</defs>
</svg>
