<svg width="24" height="24" viewBox="0 0 24 24" fill="none" xmlns="http://www.w3.org/2000/svg">
<g clip-path="url(#clip0_773_10924)">
<path fill-rule="evenodd" clip-rule="evenodd" d="M12 2C17.523 2 22 6.477 22 12C22 17.523 17.523 22 12 22C6.477 22 2 17.523 2 12C2 6.477 6.477 2 12 2ZM12 13C10.782 12.9987 9.6056 13.4433 8.693 14.25C8.49409 14.4254 8.37302 14.6727 8.35642 14.9374C8.33982 15.2021 8.42906 15.4626 8.6045 15.6615C8.77994 15.8604 9.02721 15.9815 9.29192 15.9981C9.55663 16.0147 9.81709 15.9254 10.016 15.75C10.5632 15.2655 11.2692 14.9987 12 15C12.762 15 13.455 15.282 13.984 15.75C14.1829 15.9256 14.4434 16.0149 14.7082 15.9984C14.973 15.9819 15.2204 15.8609 15.396 15.662C15.5716 15.4631 15.6609 15.2026 15.6444 14.9378C15.6279 14.673 15.5069 14.4256 15.308 14.25C14.3951 13.4431 13.2184 12.9984 12 13ZM8.5 8C8.10218 8 7.72064 8.15804 7.43934 8.43934C7.15804 8.72064 7 9.10218 7 9.5C7 9.89782 7.15804 10.2794 7.43934 10.5607C7.72064 10.842 8.10218 11 8.5 11C8.89782 11 9.27936 10.842 9.56066 10.5607C9.84196 10.2794 10 9.89782 10 9.5C10 9.10218 9.84196 8.72064 9.56066 8.43934C9.27936 8.15804 8.89782 8 8.5 8ZM15.5 8C15.1022 8 14.7206 8.15804 14.4393 8.43934C14.158 8.72064 14 9.10218 14 9.5C14 9.89782 14.158 10.2794 14.4393 10.5607C14.7206 10.842 15.1022 11 15.5 11C15.8978 11 16.2794 10.842 16.5607 10.5607C16.842 10.2794 17 9.89782 17 9.5C17 9.10218 16.842 8.72064 16.5607 8.43934C16.2794 8.15804 15.8978 8 15.5 8Z" fill="#202020"/>
</g>
<defs>
<clipPath id="clip0_773_10924">
<rect width="24" height="24" fill="white"/>
</clipPath>
</defs>
</svg>
