<svg width="24" height="24" viewBox="0 0 24 24" fill="none" xmlns="http://www.w3.org/2000/svg">
<g clip-path="url(#clip0_773_17514)">
<path fill-rule="evenodd" clip-rule="evenodd" d="M12 2C17.523 2 22 6.477 22 12C22 17.523 17.523 22 12 22C6.477 22 2 17.523 2 12C2 6.477 6.477 2 12 2ZM12.5 13H6.3C6.03478 13 5.78043 13.1054 5.59289 13.2929C5.40536 13.4804 5.3 13.7348 5.3 14C5.3 14.2652 5.40536 14.5196 5.59289 14.7071C5.78043 14.8946 6.03478 15 6.3 15H6.814L6.527 15.511C6.46278 15.6256 6.42178 15.7518 6.40632 15.8823C6.39087 16.0128 6.40126 16.1451 6.43692 16.2715C6.47258 16.398 6.5328 16.5162 6.61414 16.6194C6.69548 16.7226 6.79636 16.8088 6.911 16.873C7.02564 16.9372 7.15181 16.9782 7.28231 16.9937C7.4128 17.0091 7.54506 16.9987 7.67153 16.9631C7.798 16.9274 7.91621 16.8672 8.01941 16.7859C8.12262 16.7045 8.20878 16.6036 8.273 16.489L9.106 15H12.5C12.7652 15 13.0196 14.8946 13.2071 14.7071C13.3946 14.5196 13.5 14.2652 13.5 14C13.5 13.7348 13.3946 13.4804 13.2071 13.2929C13.0196 13.1054 12.7652 13 12.5 13ZM14.393 10.012C14.2695 9.78735 14.0643 9.61873 13.82 9.54098C13.5757 9.46323 13.3109 9.48229 13.0802 9.59422C12.8495 9.70615 12.6707 9.9024 12.5806 10.1424C12.4905 10.3825 12.496 10.6479 12.596 10.884L12.648 10.989L15.728 16.489C15.8527 16.7114 16.0577 16.8777 16.301 16.954C16.5443 17.0303 16.8076 17.0107 17.0369 16.8994C17.2663 16.788 17.4445 16.5932 17.535 16.3549C17.6255 16.1165 17.6216 15.8526 17.524 15.617L17.472 15.511L17.186 15.001H17.7C17.9564 15.003 18.2038 14.9065 18.3911 14.7313C18.5784 14.5561 18.6912 14.3156 18.7062 14.0596C18.7212 13.8036 18.6373 13.5516 18.4718 13.3557C18.3063 13.1598 18.0719 13.035 17.817 13.007L17.7 13H16.066L14.393 10.012ZM11.873 5.512C11.7495 5.28735 11.5443 5.11873 11.3 5.04098C11.0557 4.96323 10.7909 4.98229 10.5602 5.09422C10.3295 5.20615 10.1507 5.4024 10.0606 5.64243C9.97046 5.88246 9.97598 6.14793 10.076 6.384L10.127 6.489L10.854 7.786L9.047 11.012C8.92127 11.2347 8.88567 11.4972 8.94752 11.7454C9.00938 11.9936 9.16398 12.2086 9.37954 12.3463C9.5951 12.484 9.85523 12.5339 10.1064 12.4856C10.3576 12.4374 10.5808 12.2947 10.73 12.087L10.793 11.989L13.873 6.489C14.0004 6.26619 14.0373 6.00291 13.976 5.75366C13.9146 5.50442 13.7598 5.2883 13.5436 5.15004C13.3273 5.01178 13.0662 4.96197 12.8142 5.01092C12.5623 5.05987 12.3388 5.20383 12.19 5.413L12.128 5.511L12 5.74L11.873 5.512Z" fill="#202020"/>
</g>
<defs>
<clipPath id="clip0_773_17514">
<rect width="24" height="24" fill="white"/>
</clipPath>
</defs>
</svg>
