<svg width="24" height="24" viewBox="0 0 24 24" fill="none" xmlns="http://www.w3.org/2000/svg">
<g clip-path="url(#clip0_658_4862)">
<path fill-rule="evenodd" clip-rule="evenodd" d="M15.5361 13.7069C15.4432 13.7999 15.3329 13.8736 15.2115 13.924C15.0901 13.9743 14.96 14.0002 14.8286 14.0002C14.6972 14.0002 14.567 13.9743 14.4456 13.924C14.3243 13.8736 14.214 13.7999 14.1211 13.7069L12.0001 11.5859L9.87909 13.7069C9.69158 13.8945 9.43721 14 9.17194 14.0001C8.90667 14.0002 8.65223 13.8949 8.46459 13.7074C8.27695 13.5199 8.17148 13.2655 8.17139 13.0003C8.17129 12.735 8.27658 12.4805 8.46409 12.2929L11.2931 9.46491C11.4806 9.27743 11.7349 9.17212 12.0001 9.17212C12.2653 9.17212 12.5196 9.27743 12.7071 9.46491L15.5361 12.2929C15.7236 12.4804 15.8289 12.7347 15.8289 12.9999C15.8289 13.2651 15.7236 13.5194 15.5361 13.7069Z" fill="#202020"/>
</g>
<defs>
<clipPath id="clip0_658_4862">
<rect width="24" height="24" fill="white"/>
</clipPath>
</defs>
</svg>
