<svg width="24" height="24" viewBox="0 0 24 24" fill="none" xmlns="http://www.w3.org/2000/svg">
<g clip-path="url(#clip0_773_16754)">
<path d="M17.2929 3.46506C17.465 3.29273 17.694 3.18912 17.937 3.17365C18.1801 3.15819 18.4204 3.23193 18.6129 3.38106L18.7069 3.46506L21.5349 6.29306C21.7143 6.47301 21.8184 6.71449 21.8261 6.96844C21.8339 7.22239 21.7447 7.46977 21.5767 7.66033C21.4086 7.8509 21.1744 7.97036 20.9214 7.99445C20.6685 8.01855 20.4159 7.94547 20.2149 7.79006L20.1209 7.70706L18.9999 6.58606V19.0001C18.9996 19.2549 18.902 19.5001 18.7271 19.6854C18.5521 19.8708 18.313 19.9823 18.0585 19.9972C17.8041 20.0122 17.5535 19.9294 17.3581 19.7658C17.1626 19.6022 17.037 19.3702 17.0069 19.1171L16.9999 19.0001V6.58606L15.8789 7.70706C15.6994 7.88831 15.4573 7.99409 15.2024 8.00274C14.9474 8.01139 14.6987 7.92226 14.5073 7.75359C14.3159 7.58492 14.1962 7.34947 14.1727 7.09543C14.1492 6.84139 14.2237 6.58798 14.3809 6.38706L14.4639 6.29306L17.2929 3.46506Z" fill="#C5C5C5"/>
<path d="M5.84029 4C6.1055 4 6.35986 4.10536 6.5474 4.29289C6.73493 4.48043 6.84029 4.73478 6.84029 5V17.414L7.96129 16.293C8.05413 16.2001 8.16437 16.1264 8.2857 16.0761C8.40703 16.0258 8.53709 15.9998 8.66843 15.9998C8.79978 15.9998 8.92985 16.0256 9.05122 16.0758C9.17259 16.126 9.28288 16.1997 9.37579 16.2925C9.4687 16.3853 9.54241 16.4956 9.59272 16.6169C9.64303 16.7382 9.66894 16.8683 9.66899 16.9996C9.66904 17.131 9.64321 17.2611 9.59299 17.3824C9.54277 17.5038 9.46913 17.6141 9.37629 17.707L6.54729 20.535C6.35976 20.7225 6.10545 20.8278 5.84029 20.8278C5.57512 20.8278 5.32081 20.7225 5.13329 20.535L2.30529 17.707C2.20978 17.6148 2.13359 17.5044 2.08119 17.3824C2.02878 17.2604 2.00119 17.1292 2.00004 16.9964C1.99888 16.8636 2.02419 16.7319 2.07447 16.609C2.12475 16.4862 2.199 16.3745 2.29289 16.2806C2.38679 16.1867 2.49844 16.1125 2.62133 16.0622C2.74423 16.0119 2.87591 15.9866 3.00869 15.9877C3.14147 15.9889 3.27269 16.0165 3.39469 16.0689C3.5167 16.1213 3.62704 16.1975 3.71929 16.293L4.84029 17.414V5C4.84029 4.73478 4.94564 4.48043 5.13318 4.29289C5.32072 4.10536 5.57507 4 5.84029 4Z" fill="#C5C5C5"/>
</g>
<defs>
<clipPath id="clip0_773_16754">
<rect width="24" height="24" fill="white"/>
</clipPath>
</defs>
</svg>
