<svg width="276" height="280" viewBox="0 0 276 280" fill="none" xmlns="http://www.w3.org/2000/svg">
<g clip-path="url(#clip0_834_6951)">
<path d="M129.667 228.849L129.75 245.537L154.292 242.574L153.997 228.729L129.667 228.849Z" fill="#FF9C9C"/>
<path d="M119.589 250.613C119.589 250.613 102.809 259.261 96.5606 266.183C90.3122 273.105 90.3122 277.48 91.2628 279.548C92.2135 281.624 139.322 275.736 139.322 275.736C139.322 275.736 138.796 262.713 143.9 263.147C149.004 263.58 147.176 275.441 147.176 275.441L161.464 274.167C161.464 274.167 161.094 261.199 159.655 256.215C158.104 250.834 154.292 242.574 154.292 242.574L119.589 250.613Z" fill="#131934"/>
<path d="M130.258 244.383C130.258 244.383 110.58 254.997 114.263 255.864C117.946 256.732 138.233 255.311 144.001 252.671C149.77 250.031 154.292 242.574 154.292 242.574L140.254 238.162L130.258 244.374V244.383Z" fill="#FF9C9C"/>
<path d="M185.784 160.264C185.784 160.264 198.714 172.899 206.883 176.48C215.06 180.071 219.029 178.741 220.626 177.256C222.222 175.77 202.646 134.753 202.646 134.753C202.646 134.753 190.971 139.165 189.826 134.393C188.682 129.621 199.997 127.701 199.997 127.701L194.524 115.112C194.524 115.112 182.913 119.432 178.769 122.182C171.468 127.009 167.998 135.768 167.998 135.768L185.784 160.264Z" fill="#131934"/>
<path d="M132.159 105.91C132.159 105.91 123.502 179.397 152.815 189.466C172.493 196.222 183.135 176.056 187.999 162.073C190.98 153.498 187.787 143.77 180.024 139.045C179.711 138.86 179.406 138.685 179.101 138.528L177.994 137.965C175.105 136.479 171.939 135.611 168.7 135.417L163.559 97.4374L138.445 102.901L132.169 105.919L132.159 105.91Z" fill="#E4C39D"/>
<path d="M113.285 102.892C113.285 102.892 106.852 118.481 106.473 157.624C106.095 196.776 120.013 242.897 121.333 243.275C122.653 243.654 158.667 243.635 160.365 242.869C162.063 242.112 147.111 181.104 146.078 161.528C145.044 141.952 141.574 104.794 141.574 104.794L113.276 102.892H113.285Z" fill="#E4C39D"/>
<path d="M151.532 189.512C151.699 189.512 151.855 189.411 151.929 189.254C152.022 189.033 151.92 188.783 151.699 188.691C128.495 178.908 129.381 126.059 129.39 125.523C129.39 125.32 129.252 125.136 129.049 125.099L115.537 122.154C115.297 122.108 115.075 122.256 115.029 122.477C114.983 122.708 115.121 122.939 115.352 122.985L128.523 125.856C128.449 130.932 128.375 179.784 151.366 189.476C151.422 189.503 151.477 189.512 151.532 189.512Z" fill="#B77C24"/>
<path d="M169.586 152.068C169.844 152.059 170.029 151.855 170.01 151.616L169.124 133.673C169.115 133.433 168.893 133.285 168.672 133.267C168.432 133.276 168.257 133.479 168.266 133.719L169.152 151.662C169.161 151.892 169.355 152.068 169.576 152.068H169.586Z" fill="#B77C24"/>
<path d="M172.908 148.044C169.383 147.508 168.737 140.125 168.718 139.811C168.7 139.626 168.81 139.451 168.976 139.377C169.152 139.312 169.346 139.359 169.466 139.497C171.127 141.463 174.92 146.188 174.117 147.61C173.997 147.831 173.739 148.062 173.222 148.062C173.13 148.062 173.019 148.062 172.908 148.034V148.044ZM173.379 147.195C173.674 146.715 172.041 144.056 169.761 141.195C170.158 143.521 171.136 146.899 173.047 147.195C173.296 147.231 173.379 147.195 173.388 147.195H173.379Z" fill="#B77C24"/>
<path d="M161.464 117.207C161.657 117.207 161.842 117.069 161.879 116.866C161.925 116.635 161.777 116.404 161.547 116.358C161.491 116.349 155.732 115.057 154.707 109.971C154.661 109.741 154.431 109.593 154.2 109.639C153.969 109.685 153.821 109.916 153.868 110.147C155.003 115.786 161.113 117.143 161.371 117.198C161.399 117.198 161.427 117.207 161.464 117.207Z" fill="#B77C24"/>
<path d="M241.309 44.7085C241.355 44.7085 241.411 44.7085 241.457 44.6808C241.678 44.5977 241.798 44.3577 241.715 44.1362C241.42 43.3056 234.258 23.8125 223.155 21.5605C222.924 21.5236 222.693 21.662 222.647 21.8928C222.601 22.1235 222.748 22.3542 222.979 22.4004C233.612 24.5601 240.839 44.2285 240.903 44.4316C240.968 44.6069 241.134 44.7177 241.309 44.7177V44.7085Z" fill="#FF98E1"/>
<path d="M215.383 14.7305C215.383 14.7305 220.293 12.2939 221.272 13.8537C222.25 15.4043 221.272 17.2687 221.272 17.2687C221.272 17.2687 223.828 14.0937 225.785 15.9304C227.751 17.7579 225 21.6897 225 21.6897C225 21.6897 229.717 18.8101 227.945 23.388C226.182 27.9659 222.841 29.4518 221.862 29.2949C220.875 29.1473 220.875 27.2736 220.875 27.2736C220.875 27.2736 217.515 35.7742 208.101 36.6787C198.687 37.5832 203.006 25.0862 203.006 25.0862L210.667 15.2382L215.383 14.7213V14.7305Z" fill="#FF9C9C"/>
<path d="M198.271 24.4032C198.271 24.4032 203.606 18.2286 205.175 15.9304C206.744 13.6414 210.085 11.334 211.461 11.6017C212.836 11.8693 218.134 11.7124 217.94 13.8537C217.746 15.995 212.642 17.2687 212.642 17.2687C212.642 17.2687 213.427 23.4433 211.461 27.2829C209.495 31.1132 201.557 31.7962 201.557 31.7962L198.281 24.394L198.271 24.4032Z" fill="#FF9C9C"/>
<path d="M147.527 12.257C147.527 12.257 160.421 9.75576 169.004 21.9481C177.597 34.1405 170.739 47.9111 155.861 46.4436C140.983 44.9761 138.602 29.498 138.602 29.498L147.527 12.2662V12.257Z" fill="#131934"/>
<path d="M45.4099 74.8433C45.7052 74.8063 45.8714 74.5848 45.8344 74.3541C45.7791 73.9941 40.7028 37.9431 50.5323 21.1544C50.6523 20.9513 50.5877 20.6929 50.3754 20.5729C50.1724 20.4529 49.9047 20.5175 49.7847 20.7298C39.8075 37.7677 44.9299 74.1141 44.9853 74.4833C45.013 74.6956 45.1976 74.8525 45.4099 74.8525V74.8433Z" fill="#E4C39D"/>
<path d="M46.8128 66.8873C46.8128 66.8873 38.8753 118.269 39.5306 118.555C40.1859 118.841 95.1854 118.915 96.1361 118.61C97.0867 118.306 88.5308 66.2781 88.5308 66.2781L46.8036 66.8873H46.8128Z" fill="#5B73D1"/>
<path d="M30.0425 52.2676C30.2086 52.2676 30.3655 52.1753 30.4302 52.0091C30.5409 51.7507 41.8195 26.5353 52.8674 21.4313C53.0797 21.3298 53.172 21.0806 53.0797 20.8683C52.9782 20.6468 52.729 20.5545 52.5075 20.656C41.1642 25.8984 30.1163 50.6155 29.6456 51.6584C29.5533 51.8799 29.6456 52.1291 29.8671 52.2214C29.9225 52.2491 29.9779 52.2583 30.0425 52.2583V52.2676Z" fill="#272660"/>
<path d="M209.698 46.5544C209.698 46.5544 220.247 104.701 220.976 104.784C221.715 104.867 274.721 86.1219 275.533 85.4666C276.345 84.8113 249.681 31.6208 249.681 31.6208L209.698 46.5636V46.5544Z" fill="#85A521"/>
<path d="M144.832 36.8355C151.2 38.6538 153 38.1738 160.541 37.657C167.555 37.177 175.899 34.8142 180.495 32.2853C185.101 29.7564 195.733 20.4344 195.733 20.4344C195.733 20.4344 212.439 39.4845 212.439 40.3705C212.439 41.2565 206.855 54.4919 192.761 63.3339C179.046 71.9359 165.017 71.1422 165.017 71.1422C165.017 71.1422 166.318 97.9912 166.226 103.594C166.208 104.424 153.831 108.208 142.414 108.735C124.702 109.547 116.026 104.904 112.749 103.944C111.891 103.695 127.212 37.4908 127.212 37.4908L144.841 36.8448L144.832 36.8355Z" fill="#62AD54"/>
<path d="M205.249 48.4003C205.249 48.4003 215.799 106.547 216.528 106.63C217.266 106.713 270.272 87.9678 271.084 87.3125C271.896 86.6572 245.232 33.4667 245.232 33.4667L205.249 48.4095V48.4003Z" fill="#AACE37"/>
<path d="M57.8699 14.1214C57.8699 14.1214 52.9597 11.6847 51.9814 13.2445C51.0031 14.7951 51.9814 16.6595 51.9814 16.6595C51.9814 16.6595 49.4248 13.4845 47.4681 15.3212C45.5022 17.1487 48.2526 21.0805 48.2526 21.0805C48.2526 21.0805 43.5363 18.2009 45.3084 22.7788C47.0712 27.3567 50.4124 28.8427 51.3907 28.6857C52.3783 28.5381 52.3783 26.6645 52.3783 26.6645C52.3783 26.6645 55.7379 35.165 65.1521 36.0695C74.5664 36.974 70.2469 24.477 70.2469 24.477L62.5863 14.629L57.8699 14.1121V14.1214Z" fill="#FF9C9C"/>
<path d="M74.9817 23.7848C74.9817 23.7848 69.6469 17.6102 68.0779 15.312C66.5089 13.023 63.1677 10.7156 61.7925 10.9833C60.4173 11.2509 55.1195 11.094 55.3133 13.2353C55.5071 15.3766 60.6111 16.6503 60.6111 16.6503C60.6111 16.6503 59.8266 22.8249 61.7925 26.6645C63.7584 30.4948 71.6959 31.1778 71.6959 31.1778L74.9725 23.7756L74.9817 23.7848Z" fill="#FF9C9C"/>
<path d="M238.18 57.6484C238.18 57.6484 238.254 57.6484 238.3 57.6299C238.531 57.5653 238.66 57.3254 238.596 57.1038C231.84 33.1806 226.237 27.449 226.007 27.2182C225.84 27.0521 225.564 27.0521 225.397 27.2182C225.231 27.3844 225.231 27.6613 225.397 27.8274C225.453 27.8828 231.092 33.7159 237.765 57.3346C237.82 57.5192 237.987 57.6484 238.18 57.6484Z" fill="#B77C24"/>
<path d="M66.5366 30.4856C66.7304 30.4856 66.9057 30.3563 66.9519 30.1533C67.0073 29.9226 66.8688 29.6918 66.6381 29.6364C59.4851 27.9382 61.0172 16.8257 61.0357 16.7149C61.0634 16.5119 60.9434 16.318 60.7496 16.2442C60.7219 16.2442 58.193 15.3489 57.3623 14.9244C56.5962 14.5367 56.024 13.8445 56.0148 13.8353C55.8671 13.6507 55.5994 13.623 55.4148 13.7707C55.2302 13.9183 55.2025 14.1952 55.3502 14.3706C55.3779 14.4075 56.0424 15.2013 56.9746 15.6812C57.6761 16.0319 59.4113 16.6688 60.1404 16.9272C59.9374 18.9208 59.2913 28.7596 66.435 30.4579C66.472 30.4579 66.4996 30.4671 66.5366 30.4671V30.4856Z" fill="#131934"/>
<path d="M52.6736 26.7106C52.7382 26.7106 52.8028 26.7106 52.8674 26.7014C54.981 26.4245 55.664 24.4863 55.7286 23.5079C55.7471 23.268 55.5625 23.0741 55.3318 23.0557C55.1195 23.0557 54.8887 23.2126 54.8703 23.4525C54.8703 23.5356 54.6857 25.6031 52.7567 25.8615C51.2892 26.083 48.7418 21.985 47.4773 19.3823C47.3758 19.17 47.1174 19.0777 46.9051 19.1884C46.6928 19.29 46.6005 19.5484 46.702 19.7607C47.0528 20.4898 50.1539 26.7291 52.6736 26.7291V26.7106Z" fill="#131934"/>
<path d="M131.495 36.8263C131.495 36.8263 113.432 37.3339 104.424 35.5065C95.4161 33.679 76.6707 20.1114 76.6707 20.1114L62.4386 39.1152C62.4386 39.1152 73.2188 57.4269 85.6789 63.5092C98.1389 69.6008 113.497 70.0346 113.497 70.0346C113.497 70.0346 110.248 102.948 112.74 103.926C115.232 104.904 129.686 106.621 129.686 106.621L131.504 36.8263H131.495Z" fill="#62AD54"/>
<path d="M41.395 66.8873C41.395 66.8873 33.4575 118.269 34.1128 118.555C34.7681 118.841 89.7676 118.915 90.7183 118.61C91.6781 118.306 83.113 66.2781 83.113 66.2781L41.3858 66.8873H41.395Z" fill="#778BEE"/>
<path d="M34.362 46.5544C34.362 46.5544 4.79941 97.7236 5.30704 98.2589C5.81467 98.7942 58.3775 118.786 59.4205 118.804C60.4634 118.832 74.5202 61.008 74.5202 61.008L34.362 46.5452V46.5544Z" fill="#CB6830"/>
<path d="M29.0549 44.5238C29.0549 44.5238 -0.498416 95.693 -1.46581e-05 96.2283C0.507616 96.7637 53.0705 116.755 54.1134 116.774C55.1564 116.801 69.2132 58.9775 69.2132 58.9775L29.0549 44.5146V44.5238Z" fill="#F68546"/>
<path d="M206.707 31.1039C206.707 31.1039 206.772 31.1039 206.809 31.0947C213.953 29.3965 213.307 19.5576 213.103 17.564C213.833 17.3056 215.568 16.6688 216.269 16.318C217.201 15.8473 217.866 15.0443 217.894 15.0074C218.041 14.8228 218.014 14.5552 217.829 14.4075C217.644 14.2598 217.377 14.2875 217.229 14.4721C217.229 14.4721 216.648 15.1643 215.882 15.5612C215.051 15.9765 212.522 16.8718 212.494 16.881C212.3 16.9457 212.18 17.1487 212.208 17.3518C212.227 17.4625 213.759 28.575 206.606 30.2733C206.375 30.3287 206.237 30.5594 206.292 30.7901C206.338 30.984 206.513 31.1224 206.707 31.1224V31.1039Z" fill="#131934"/>
<path d="M202 60.3896C202 60.3896 209.292 114.632 210.039 114.715C210.787 114.808 266.331 98.4988 267.208 97.9081C268.085 97.3175 243.94 47.3389 243.94 47.3389L202 60.3804V60.3896Z" fill="#5B73D1"/>
<path d="M216.878 24.8462C217.294 24.8462 217.728 24.717 218.171 24.4586C221.023 22.8065 221.807 17.7856 221.835 17.5733C221.872 17.3425 221.706 17.121 221.475 17.0841C221.244 17.0564 221.022 17.2133 220.986 17.4441C220.986 17.4902 220.229 22.2712 217.737 23.711C217.238 23.9971 216.795 24.0525 216.398 23.8771C215.365 23.4341 214.709 21.6066 214.543 20.9329C214.488 20.7021 214.257 20.5637 214.026 20.6191C213.796 20.6744 213.657 20.9052 213.713 21.1359C213.74 21.2467 214.414 23.9602 216.057 24.6616C216.325 24.7724 216.592 24.8278 216.878 24.8278V24.8462Z" fill="#131934"/>
<path d="M195.733 62.4478C195.733 62.4478 203.025 116.691 203.772 116.774C204.52 116.866 260.064 100.557 260.941 99.9664C261.818 99.3757 237.673 49.3971 237.673 49.3971L195.733 62.4386V62.4478Z" fill="#778BEE"/>
<path d="M220.579 27.329C223.099 27.329 226.191 21.0897 226.551 20.3606C226.653 20.1483 226.57 19.8899 226.348 19.7883C226.136 19.6868 225.877 19.7699 225.776 19.9822C224.511 22.5942 221.982 26.6921 220.496 26.4614C218.549 26.2122 218.392 24.1447 218.383 24.0617C218.364 23.8217 218.143 23.6279 217.931 23.6648C217.691 23.6833 217.515 23.8863 217.534 24.1171C217.598 25.1046 218.281 27.0429 220.395 27.3105C220.459 27.3105 220.524 27.3197 220.589 27.3197L220.579 27.329Z" fill="#131934"/>
<path d="M201.077 67.7826C201.363 67.7457 201.529 67.5334 201.502 67.3026C201.456 66.9519 197.302 32.6545 214.359 21.4128C214.553 21.2836 214.608 21.0159 214.479 20.8221C214.349 20.6191 214.082 20.5729 213.888 20.7021C196.379 32.2392 200.607 67.0719 200.653 67.4134C200.68 67.6349 200.865 67.7918 201.077 67.7918V67.7826Z" fill="#B77C24"/>
<path d="M210.704 50.3016C211.008 50.2554 211.165 50.0339 211.128 49.8032C207.4 28.1689 214.349 21.4312 214.423 21.3666C214.599 21.2097 214.608 20.9328 214.451 20.7667C214.294 20.5913 214.026 20.5821 213.851 20.739C213.546 21.0159 206.467 27.7905 210.288 49.9601C210.325 50.1631 210.51 50.3108 210.713 50.3108L210.704 50.3016Z" fill="#FF98E1"/>
<path d="M77.7598 71.5575C77.9906 71.5575 78.1844 71.3729 78.1844 71.1422C78.1844 70.8653 78.7197 42.9825 60.6296 23.0926C60.4727 22.9173 60.1958 22.908 60.0204 23.0649C59.8451 23.2218 59.8358 23.4987 59.9927 23.6649C77.8429 43.2871 77.3353 70.8376 77.326 71.1145C77.326 71.3545 77.5106 71.5483 77.7414 71.5575H77.7506H77.7598Z" fill="#E4C39D"/>
<path d="M61.1188 63.7584C61.3218 63.7584 61.5064 63.6108 61.5433 63.3985C67.0627 30.0794 59.7343 22.3819 59.4205 22.0681C59.2544 21.9019 58.9775 21.9019 58.8113 22.0681C58.6452 22.2342 58.6452 22.5111 58.8113 22.668C58.9036 22.7603 66.112 30.5501 60.6942 63.2508C60.6573 63.4815 60.8142 63.703 61.0449 63.74C61.0726 63.74 61.0911 63.74 61.1188 63.74V63.7584Z" fill="#272660"/>
<path d="M97.4467 44.127C96.8837 44.0624 96.616 43.7393 96.496 43.4809C95.5823 41.5981 99.2003 35.6726 99.9294 34.5097C100.031 34.3436 100.225 34.2605 100.419 34.3251C100.603 34.3805 100.732 34.5466 100.723 34.7404C100.714 35.4788 100.557 42.0411 98.665 43.7116C98.3512 43.9885 97.9912 44.1362 97.6128 44.1362C97.5574 44.1362 97.502 44.1362 97.4467 44.1362V44.127ZM97.2621 43.1117C97.299 43.1856 97.3451 43.2594 97.539 43.2779C97.742 43.3055 97.9174 43.2317 98.0927 43.0748C99.1449 42.1426 99.6156 38.783 99.7818 36.4295C98.2866 39.0507 96.8283 42.2257 97.2621 43.1117Z" fill="#131934"/>
<path d="M175.437 43.6009C173.37 43.204 171.764 37.1771 171.459 35.9772C171.413 35.7926 171.496 35.608 171.653 35.5065C171.81 35.405 172.013 35.4234 172.161 35.5526C173.61 36.8171 178.243 41.0627 176.969 42.8256C176.508 43.4625 176.037 43.6286 175.668 43.6286C175.585 43.6286 175.502 43.6194 175.428 43.6009H175.437ZM175.594 42.761C175.677 42.7702 175.908 42.8256 176.268 42.3272C176.739 41.6719 174.92 39.3368 172.678 37.1955C173.444 39.7429 174.644 42.5856 175.594 42.7702V42.761Z" fill="#131934"/>
<path d="M115.075 70.4315C115.186 70.4315 115.288 70.3946 115.371 70.3115C115.537 70.1454 115.546 69.8777 115.38 69.7024C115.352 69.6747 112.353 66.4904 112.5 60.4173C112.639 54.2796 118.361 46.8867 118.416 46.8036C118.564 46.619 118.527 46.3513 118.343 46.2037C118.158 46.056 117.89 46.0929 117.743 46.2775C117.503 46.5913 111.79 53.975 111.642 60.3896C111.494 66.8412 114.632 70.1546 114.771 70.2931C114.854 70.3761 114.965 70.4223 115.075 70.4223V70.4315Z" fill="#131934"/>
<path d="M127.858 20.3883C127.858 20.3883 124.536 16.3088 125.865 10.3188C126.769 6.25772 128.652 5.03017 128.652 5.03017C128.652 5.03017 126.169 -0.701443 134.411 0.0646185C142.654 0.83068 149.474 0.609168 152.64 7.97443C154.514 12.3124 153 21.339 153 21.339L127.849 20.3883H127.858Z" fill="#131934"/>
<path d="M145.644 28.1412L144.869 38.2107C144.869 38.2107 142.829 40.9704 136.903 40.9889C132.482 41.0073 131.273 38.6445 131.273 38.6445L133.018 29.9133L143.835 28.3904L145.653 28.132L145.644 28.1412Z" fill="#FF9C9C"/>
<path d="M145.672 27.5228C145.625 27.7997 145.496 28.1135 145.302 28.4735C142.663 33.3283 134.568 34.8143 132.021 34.8419L133.009 29.9133L145.672 27.5228Z" fill="#131934"/>
<path d="M132.529 6.78379C132.529 6.78379 126.271 19.0038 127.812 26.1845C129.354 33.3652 135.851 32.6453 139.783 31.5193C143.715 30.3932 145.644 28.1412 145.644 28.1412C145.644 28.1412 149.16 29.581 151.772 26.3876C154.384 23.1941 153.138 19.2715 151.136 18.2655C149.142 17.2594 146.604 18.5885 146.604 18.5885L148.736 15.0536C148.736 15.0536 141.832 -3.98722 132.519 6.78379H132.529Z" fill="#FF9C9C"/>
<path d="M146.604 18.5885C146.604 18.5885 141.14 19.4007 137.706 13.1892C134.264 6.97762 134.734 4.53176 134.734 4.53176L130.673 10.5495C130.673 10.5495 130.064 6.20233 131.919 3.54419C133.784 0.886048 135.537 1.55058 135.537 1.55058L147.296 5.14092L149.936 14.8505L146.595 18.5793L146.604 18.5885Z" fill="#131934"/>
<path d="M146.844 24.5416C146.955 24.5416 147.056 24.5047 147.139 24.4217L150.748 20.9882C150.923 20.8221 150.923 20.5544 150.766 20.3791C150.6 20.2129 150.333 20.2037 150.157 20.3606L146.548 23.794C146.373 23.9602 146.373 24.2278 146.53 24.4032C146.613 24.4955 146.724 24.5324 146.844 24.5324V24.5416Z" fill="#131934"/>
<path d="M150.508 23.7663C150.702 23.7663 150.886 23.6279 150.923 23.4249C150.969 23.1941 150.822 22.9634 150.591 22.9172L148.247 22.428C148.025 22.3911 147.785 22.5296 147.739 22.7603C147.693 22.9911 147.841 23.2218 148.071 23.2679L150.416 23.7571C150.416 23.7571 150.471 23.7571 150.508 23.7571V23.7663Z" fill="#131934"/>
<path d="M131.643 36.7433L125.579 36.8909C125.579 36.8909 126.179 43.9978 135.574 45.5207C144.961 47.0436 151.985 38.0723 151.985 38.0723L142.146 36.1618L131.643 36.734V36.7433Z" fill="#FF9C9C"/>
<path d="M132.169 22.1604C132.409 22.1604 132.602 21.9666 132.593 21.7266C132.575 18.3578 134.153 15.8658 134.162 15.8381C134.291 15.6442 134.236 15.3766 134.033 15.2474C133.839 15.1182 133.572 15.1735 133.442 15.3766C133.368 15.4873 131.716 18.1086 131.735 21.7266C131.735 21.9666 131.929 22.1511 132.159 22.1511L132.169 22.1604Z" fill="#131934"/>
<path d="M130.323 11.4632C130.397 11.4632 130.47 11.4447 130.535 11.4078C131.366 10.9279 132.695 11.1863 132.704 11.1863C132.935 11.2232 133.165 11.0848 133.212 10.854C133.258 10.6233 133.11 10.3926 132.879 10.3464C132.815 10.3372 131.218 10.0141 130.101 10.6602C129.898 10.7802 129.824 11.0386 129.944 11.2417C130.027 11.3801 130.166 11.454 130.313 11.454L130.323 11.4632Z" fill="#131934"/>
<path d="M131.836 15.9027C131.901 15.9027 131.975 15.8842 132.03 15.8566C132.242 15.7458 132.326 15.4874 132.215 15.2751C131.458 13.8353 130.046 13.9183 129.4 14.1768C129.178 14.2598 129.067 14.509 129.16 14.7305C129.252 14.9521 129.501 15.0628 129.714 14.9705C129.834 14.9244 130.886 14.5644 131.458 15.6627C131.532 15.8104 131.679 15.8935 131.836 15.8935V15.9027Z" fill="#131934"/>
<path d="M139.072 12.5339C139.174 12.5339 139.266 12.497 139.349 12.4324C139.525 12.2755 139.552 12.0078 139.395 11.8324C138.556 10.8449 136.95 10.6233 136.885 10.6049C136.663 10.5864 136.433 10.7341 136.405 10.9741C136.377 11.2048 136.534 11.4263 136.774 11.454C136.783 11.454 138.131 11.6478 138.749 12.3862C138.832 12.4877 138.952 12.5339 139.072 12.5339Z" fill="#131934"/>
<path d="M136.165 16.2165C136.267 16.2165 136.377 16.1796 136.46 16.0965C137.365 15.2474 138.233 15.9396 138.334 16.0227C138.509 16.1704 138.786 16.1519 138.934 15.9765C139.091 15.8012 139.072 15.5335 138.888 15.3766C138.362 14.9244 137.06 14.3614 135.87 15.4781C135.694 15.6443 135.685 15.9119 135.851 16.0873C135.934 16.1796 136.045 16.2257 136.165 16.2257V16.2165Z" fill="#131934"/>
<path d="M131.292 25.2431C131.181 25.1416 131.135 24.9847 131.163 24.837C131.2 24.6894 131.31 24.5694 131.449 24.5232C135.417 23.2864 135.851 23.5818 136.008 23.6925C136.119 23.7664 136.22 23.951 136.23 24.0802C136.276 24.7263 135.371 26.6645 134.291 26.886C134.227 26.8952 134.162 26.9045 134.098 26.9045C133.128 26.9045 131.707 25.6585 131.273 25.2524L131.292 25.2431ZM132.455 25.1139C133.128 25.6492 133.867 26.0923 134.135 26.0369C134.596 25.9446 135.141 24.9847 135.325 24.4309C134.762 24.4955 133.599 24.7816 132.455 25.1139Z" fill="#131934"/>
<path d="M56.8916 24.394C57.1685 24.394 57.4453 24.3478 57.713 24.2648C58.9498 23.8494 59.4943 22.5942 59.5128 22.5388C59.6051 22.3173 59.5036 22.0681 59.2821 21.9758C59.0698 21.8835 58.8113 21.9758 58.719 22.1973C58.719 22.2066 58.3037 23.1572 57.4269 23.4433C56.8731 23.6279 56.227 23.5079 55.4979 23.0926C53.0059 21.6528 52.2583 16.8718 52.2491 16.8257C52.2121 16.5949 51.9999 16.4196 51.7599 16.4657C51.5291 16.5026 51.363 16.7149 51.3999 16.9549C51.4276 17.1672 52.2121 22.1881 55.0641 23.8402C55.7009 24.2094 56.3101 24.394 56.8823 24.394H56.8916Z" fill="#131934"/>
</g>
<defs>
<clipPath id="clip0_834_6951">
<rect width="275.551" height="280" fill="white"/>
</clipPath>
</defs>
</svg>
