<svg width="24" height="24" viewBox="0 0 24 24" fill="none" xmlns="http://www.w3.org/2000/svg">
<g clip-path="url(#clip0_658_4866)">
<path fill-rule="evenodd" clip-rule="evenodd" d="M4.99999 10C4.99999 8.67392 5.52677 7.40215 6.46446 6.46447C7.40214 5.52678 8.67391 5 9.99999 5C11.3261 5 12.5978 5.52678 13.5355 6.46447C14.4732 7.40215 15 8.67392 15 10C15 11.3261 14.4732 12.5979 13.5355 13.5355C12.5978 14.4732 11.3261 15 9.99999 15C8.67391 15 7.40214 14.4732 6.46446 13.5355C5.52677 12.5979 4.99999 11.3261 4.99999 10ZM9.99999 3C8.89125 3 7.79837 3.26338 6.81134 3.76843C5.82431 4.27349 4.97138 5.00578 4.32276 5.90501C3.67415 6.80423 3.24842 7.84467 3.08063 8.94064C2.91283 10.0366 3.00778 11.1568 3.35764 12.2089C3.7075 13.2609 4.30228 14.2149 5.09298 14.9921C5.88369 15.7693 6.84771 16.3476 7.90567 16.6794C8.96362 17.0111 10.0852 17.0868 11.1782 16.9001C12.2711 16.7135 13.304 16.27 14.192 15.606L19.292 20.707C19.4795 20.8946 19.7339 21.0001 19.9991 21.0002C20.2644 21.0003 20.5188 20.895 20.7065 20.7075C20.8941 20.52 20.9996 20.2656 20.9997 20.0004C20.9998 19.7351 20.8945 19.4806 20.707 19.293L15.607 14.193C16.3853 13.1525 16.8587 11.9159 16.9741 10.6217C17.0895 9.32741 16.8424 8.02658 16.2604 6.86481C15.6784 5.70304 14.7846 4.72618 13.6789 4.0436C12.5732 3.36103 11.2994 2.99967 9.99999 3Z" fill="#202020"/>
</g>
<defs>
<clipPath id="clip0_658_4866">
<rect width="24" height="24" fill="white"/>
</clipPath>
</defs>
</svg>
