<svg width="24" height="24" viewBox="0 0 24 24" fill="none" xmlns="http://www.w3.org/2000/svg">
<g clip-path="url(#clip0_773_10925)">
<path fill-rule="evenodd" clip-rule="evenodd" d="M12 2C17.523 2 22 6.477 22 12C22.0007 13.7557 21.539 15.4807 20.6612 17.0013C19.7835 18.5219 18.5207 19.7845 17 20.662V13C17 12.7348 16.8946 12.4804 16.7071 12.2929C16.5196 12.1054 16.2652 12 16 12C15.7348 12 15.4804 12.1054 15.2929 12.2929C15.1054 12.4804 15 12.7348 15 13V21C15 21.182 15.049 21.352 15.133 21.5C14.148 21.824 13.094 22 12 22C10.9357 22.0013 9.87804 21.8325 8.867 21.5C8.9546 21.348 9.00049 21.1755 9 21V13C9 12.7348 8.89464 12.4804 8.70711 12.2929C8.51957 12.1054 8.26522 12 8 12C7.73478 12 7.48043 12.1054 7.29289 12.2929C7.10536 12.4804 7 12.7348 7 13V20.662C5.47928 19.7845 4.21651 18.5219 3.33877 17.0013C2.46103 15.4807 1.99929 13.7557 2 12C2 6.477 6.477 2 12 2ZM10 8H7C6.74512 8.00028 6.49997 8.09788 6.31463 8.27285C6.1293 8.44782 6.01777 8.68695 6.00283 8.94139C5.98789 9.19584 6.07068 9.44638 6.23427 9.64183C6.39786 9.83729 6.62991 9.9629 6.883 9.993L7 10H10C10.2549 9.99972 10.5 9.90212 10.6854 9.72715C10.8707 9.55218 10.9822 9.31305 10.9972 9.05861C11.0121 8.80416 10.9293 8.55362 10.7657 8.35817C10.6021 8.16271 10.3701 8.0371 10.117 8.007L10 8ZM17 8H14C13.7348 8 13.4804 8.10536 13.2929 8.29289C13.1054 8.48043 13 8.73478 13 9C13 9.26522 13.1054 9.51957 13.2929 9.70711C13.4804 9.89464 13.7348 10 14 10H17C17.2652 10 17.5196 9.89464 17.7071 9.70711C17.8946 9.51957 18 9.26522 18 9C18 8.73478 17.8946 8.48043 17.7071 8.29289C17.5196 8.10536 17.2652 8 17 8Z" fill="#202020"/>
</g>
<defs>
<clipPath id="clip0_773_10925">
<rect width="24" height="24" fill="white"/>
</clipPath>
</defs>
</svg>
