<svg width="24" height="24" viewBox="0 0 24 24" fill="none" xmlns="http://www.w3.org/2000/svg">
<g clip-path="url(#clip0_658_4615)">
<path d="M15 19C15 20.0544 14.1841 20.9182 13.1493 20.9945L13 21H11C9.94564 21 9.08183 20.1841 9.00548 19.1493L9 19H15ZM12.0002 2C15.7857 2 18.8693 5.00479 18.9961 8.75935L19.0002 9V12.7639L20.8222 16.4081C21.1705 17.1047 20.7047 17.9183 19.9532 17.9943L19.8384 18H4.16197C3.38319 18 2.8637 17.2195 3.13189 16.5134L3.1781 16.4081L5.00016 12.7639V9C5.00016 5.13401 8.13417 2 12.0002 2Z" fill="#62AD54"/>
</g>
<defs>
<clipPath id="clip0_658_4615">
<rect width="24" height="24" fill="white"/>
</clipPath>
</defs>
</svg>
