<svg width="24" height="24" viewBox="0 0 24 24" fill="none" xmlns="http://www.w3.org/2000/svg">
<g clip-path="url(#clip0_658_4858)">
<path fill-rule="evenodd" clip-rule="evenodd" d="M11.2932 9.46393C11.4807 9.27646 11.735 9.17114 12.0002 9.17114C12.2653 9.17114 12.5196 9.27646 12.7072 9.46393L15.5362 12.2929C15.676 12.4328 15.7713 12.6111 15.8098 12.8051C15.8483 12.9992 15.8285 13.2003 15.7527 13.383C15.6769 13.5658 15.5486 13.7219 15.384 13.8317C15.2194 13.9416 15.026 14.0001 14.8282 13.9999H9.17217C8.97434 14.0001 8.7809 13.9416 8.61634 13.8317C8.45178 13.7219 8.32348 13.5658 8.24769 13.383C8.17189 13.2003 8.15201 12.9992 8.19054 12.8051C8.22908 12.6111 8.3243 12.4328 8.46417 12.2929L11.2932 9.46393Z" fill="#202020"/>
</g>
<defs>
<clipPath id="clip0_658_4858">
<rect width="24" height="24" fill="white"/>
</clipPath>
</defs>
</svg>
