<svg width="24" height="24" viewBox="0 0 24 24" fill="none" xmlns="http://www.w3.org/2000/svg">
<g clip-path="url(#clip0_773_16769)">
<path d="M6 4C5.73478 4 5.48043 4.10536 5.29289 4.29289C5.10536 4.48043 5 4.73478 5 5V17.414L3.879 16.293C3.78616 16.2001 3.67592 16.1264 3.55459 16.0761C3.43326 16.0258 3.3032 15.9998 3.17185 15.9998C3.04051 15.9998 2.91043 16.0256 2.78907 16.0758C2.6677 16.126 2.55741 16.1997 2.4645 16.2925C2.37159 16.3853 2.29788 16.4956 2.24757 16.6169C2.19726 16.7382 2.17134 16.8683 2.1713 16.9996C2.17125 17.131 2.19707 17.2611 2.2473 17.3824C2.29752 17.5038 2.37116 17.6141 2.464 17.707L5.293 20.535C5.48053 20.7225 5.73484 20.8278 6 20.8278C6.26516 20.8278 6.51947 20.7225 6.707 20.535L9.535 17.707C9.63051 17.6148 9.70669 17.5044 9.7591 17.3824C9.81151 17.2604 9.8391 17.1292 9.84025 16.9964C9.8414 16.8636 9.8161 16.7319 9.76582 16.609C9.71554 16.4862 9.64129 16.3745 9.54739 16.2806C9.4535 16.1867 9.34185 16.1125 9.21895 16.0622C9.09606 16.0119 8.96438 15.9866 8.8316 15.9877C8.69882 15.9889 8.5676 16.0165 8.4456 16.0689C8.32359 16.1213 8.21325 16.1975 8.121 16.293L7 17.414V5C7 4.73478 6.89464 4.48043 6.70711 4.29289C6.51957 4.10536 6.26522 4 6 4ZM13 18C12.7451 18.0003 12.5 18.0979 12.3146 18.2728C12.1293 18.4478 12.0178 18.687 12.0028 18.9414C11.9879 19.1958 12.0707 19.4464 12.2343 19.6418C12.3979 19.8373 12.6299 19.9629 12.883 19.993L13 20H20C20.2549 19.9997 20.5 19.9021 20.6854 19.7272C20.8707 19.5522 20.9822 19.313 20.9972 19.0586C21.0121 18.8042 20.9293 18.5536 20.7657 18.3582C20.6021 18.1627 20.3701 18.0371 20.117 18.007L20 18H13ZM11 11C10.7451 11.0003 10.5 11.0979 10.3146 11.2728C10.1293 11.4478 10.0178 11.687 10.0028 11.9414C9.98789 12.1958 10.0707 12.4464 10.2343 12.6418C10.3979 12.8373 10.6299 12.9629 10.883 12.993L11 13H20C20.2549 12.9997 20.5 12.9021 20.6854 12.7272C20.8707 12.5522 20.9822 12.313 20.9972 12.0586C21.0121 11.8042 20.9293 11.5536 20.7657 11.3582C20.6021 11.1627 20.3701 11.0371 20.117 11.007L20 11H11ZM11 4C10.7348 4 10.4804 4.10536 10.2929 4.29289C10.1054 4.48043 10 4.73478 10 5C10 5.26522 10.1054 5.51957 10.2929 5.70711C10.4804 5.89464 10.7348 6 11 6H20C20.2652 6 20.5196 5.89464 20.7071 5.70711C20.8946 5.51957 21 5.26522 21 5C21 4.73478 20.8946 4.48043 20.7071 4.29289C20.5196 4.10536 20.2652 4 20 4H11Z" fill="#62AD54"/>
</g>
<defs>
<clipPath id="clip0_773_16769">
<rect width="24" height="24" fill="white" transform="matrix(-1 0 0 1 24 0)"/>
</clipPath>
</defs>
</svg>
