<svg width="24" height="24" viewBox="0 0 24 24" fill="none" xmlns="http://www.w3.org/2000/svg">
<g clip-path="url(#clip0_658_4874)">
<path d="M12 2C17.523 2 22 6.477 22 12C22 17.523 17.523 22 12 22C6.477 22 2 17.523 2 12C2 6.477 6.477 2 12 2ZM12 4C9.87827 4 7.84344 4.84285 6.34315 6.34315C4.84285 7.84344 4 9.87827 4 12C4 14.1217 4.84285 16.1566 6.34315 17.6569C7.84344 19.1571 9.87827 20 12 20C14.1217 20 16.1566 19.1571 17.6569 17.6569C19.1571 16.1566 20 14.1217 20 12C20 9.87827 19.1571 7.84344 17.6569 6.34315C16.1566 4.84285 14.1217 4 12 4ZM15.535 8.381C15.7145 8.19975 15.9566 8.09397 16.2115 8.08532C16.4665 8.07667 16.7152 8.1658 16.9066 8.33447C17.098 8.50313 17.2177 8.73858 17.2412 8.99262C17.2647 9.24666 17.1902 9.50008 17.033 9.701L16.95 9.795L11.364 15.382C11.1733 15.5726 10.9193 15.6866 10.6502 15.7023C10.381 15.7179 10.1155 15.6342 9.904 15.467L9.808 15.382L7.05 12.624C6.86875 12.4445 6.76297 12.2024 6.75432 11.9475C6.74567 11.6925 6.8348 11.4438 7.00347 11.2524C7.17213 11.061 7.40758 10.9413 7.66162 10.9178C7.91566 10.8943 8.16908 10.9688 8.37 11.126L8.464 11.21L10.586 13.331L15.536 8.381H15.535Z" fill="#202020"/>
</g>
<defs>
<clipPath id="clip0_658_4874">
<rect width="24" height="24" fill="white"/>
</clipPath>
</defs>
</svg>
